<svg width="46" height="9" viewBox="0 0 46 9" fill="none" xmlns="http://www.w3.org/2000/svg">
<path d="M0.05 8V1H3.19C3.99667 1 4.61667 1.16333 5.05 1.49C5.48333 1.81 5.7 2.25 5.7 2.81C5.7 3.19 5.61333 3.51 5.44 3.77C5.27333 4.03 5.04667 4.23 4.76 4.37C4.47333 4.51 4.16333 4.58 3.83 4.58L4.01 4.28C4.41 4.28 4.76333 4.35 5.07 4.49C5.37667 4.63 5.62 4.83667 5.8 5.11C5.98 5.37667 6.07 5.71 6.07 6.11C6.07 6.71 5.84333 7.17667 5.39 7.51C4.94333 7.83667 4.27667 8 3.39 8H0.05ZM1.05 7.19H3.35C3.90333 7.19 4.32667 7.09667 4.62 6.91C4.91333 6.72333 5.06 6.43 5.06 6.03C5.06 5.62333 4.91333 5.32667 4.62 5.14C4.32667 4.95333 3.90333 4.86 3.35 4.86H0.96V4.05H3.1C3.60667 4.05 4 3.95667 4.28 3.77C4.56 3.58333 4.7 3.30333 4.7 2.93C4.7 2.55667 4.56 2.27667 4.28 2.09C4 1.90333 3.60667 1.81 3.1 1.81H1.05V7.19ZM9.83836 8.06C9.27169 8.06 8.77169 7.94333 8.33836 7.71C7.91169 7.47667 7.57836 7.15667 7.33836 6.75C7.10503 6.34333 6.98836 5.87667 6.98836 5.35C6.98836 4.82333 7.10169 4.35667 7.32836 3.95C7.56169 3.54333 7.87836 3.22667 8.27836 3C8.68503 2.76667 9.14169 2.65 9.64836 2.65C10.1617 2.65 10.615 2.76333 11.0084 2.99C11.4017 3.21667 11.7084 3.53667 11.9284 3.95C12.155 4.35667 12.2684 4.83333 12.2684 5.38C12.2684 5.42 12.265 5.46667 12.2584 5.52C12.2584 5.57333 12.255 5.62333 12.2484 5.67H7.73836V4.98H11.7484L11.3584 5.22C11.365 4.88 11.295 4.57667 11.1484 4.31C11.0017 4.04333 10.7984 3.83667 10.5384 3.69C10.285 3.53667 9.98836 3.46 9.64836 3.46C9.31503 3.46 9.01836 3.53667 8.75836 3.69C8.49836 3.83667 8.29503 4.04667 8.14836 4.32C8.00169 4.58667 7.92836 4.89333 7.92836 5.24V5.4C7.92836 5.75333 8.00836 6.07 8.16836 6.35C8.33503 6.62333 8.56503 6.83667 8.85836 6.99C9.15169 7.14333 9.48836 7.22 9.86836 7.22C10.1817 7.22 10.465 7.16667 10.7184 7.06C10.9784 6.95333 11.205 6.79333 11.3984 6.58L11.9284 7.2C11.6884 7.48 11.3884 7.69333 11.0284 7.84C10.675 7.98667 10.2784 8.06 9.83836 8.06ZM15.7914 8.06C15.2781 8.06 14.8181 7.94667 14.4114 7.72C14.0114 7.49333 13.6947 7.17667 13.4614 6.77C13.2281 6.36333 13.1114 5.89 13.1114 5.35C13.1114 4.81 13.2281 4.34 13.4614 3.94C13.6947 3.53333 14.0114 3.21667 14.4114 2.99C14.8181 2.76333 15.2781 2.65 15.7914 2.65C16.2381 2.65 16.6414 2.75 17.0014 2.95C17.3614 3.15 17.6481 3.45 17.8614 3.85C18.0814 4.25 18.1914 4.75 18.1914 5.35C18.1914 5.95 18.0847 6.45 17.8714 6.85C17.6647 7.25 17.3814 7.55333 17.0214 7.76C16.6614 7.96 16.2514 8.06 15.7914 8.06ZM15.8714 7.22C16.2047 7.22 16.5047 7.14333 16.7714 6.99C17.0447 6.83667 17.2581 6.62 17.4114 6.34C17.5714 6.05333 17.6514 5.72333 17.6514 5.35C17.6514 4.97 17.5714 4.64333 17.4114 4.37C17.2581 4.09 17.0447 3.87333 16.7714 3.72C16.5047 3.56667 16.2047 3.49 15.8714 3.49C15.5314 3.49 15.2281 3.56667 14.9614 3.72C14.6947 3.87333 14.4814 4.09 14.3214 4.37C14.1614 4.64333 14.0814 4.97 14.0814 5.35C14.0814 5.72333 14.1614 6.05333 14.3214 6.34C14.4814 6.62 14.6947 6.83667 14.9614 6.99C15.2281 7.14333 15.5314 7.22 15.8714 7.22ZM17.6814 8V6.57L17.7414 5.34L17.6414 4.11V0.58H18.6014V8H17.6814ZM20.4178 8V2.7H21.3378V4.14L21.2478 3.78C21.3945 3.41333 21.6411 3.13333 21.9878 2.94C22.3345 2.74667 22.7611 2.65 23.2678 2.65V3.58C23.2278 3.57333 23.1878 3.57 23.1478 3.57C23.1145 3.57 23.0811 3.57 23.0478 3.57C22.5345 3.57 22.1278 3.72333 21.8278 4.03C21.5278 4.33667 21.3778 4.78 21.3778 5.36V8H20.4178ZM26.6722 8.06C26.1389 8.06 25.6655 7.94333 25.2522 7.71C24.8389 7.47667 24.5122 7.15667 24.2722 6.75C24.0322 6.33667 23.9122 5.87 23.9122 5.35C23.9122 4.82333 24.0322 4.35667 24.2722 3.95C24.5122 3.54333 24.8389 3.22667 25.2522 3C25.6655 2.76667 26.1389 2.65 26.6722 2.65C27.1989 2.65 27.6689 2.76667 28.0822 3C28.5022 3.22667 28.8289 3.54333 29.0622 3.95C29.3022 4.35 29.4222 4.81667 29.4222 5.35C29.4222 5.87667 29.3022 6.34333 29.0622 6.75C28.8289 7.15667 28.5022 7.47667 28.0822 7.71C27.6689 7.94333 27.1989 8.06 26.6722 8.06ZM26.6722 7.22C27.0122 7.22 27.3155 7.14333 27.5822 6.99C27.8555 6.83667 28.0689 6.62 28.2222 6.34C28.3755 6.05333 28.4522 5.72333 28.4522 5.35C28.4522 4.97 28.3755 4.64333 28.2222 4.37C28.0689 4.09 27.8555 3.87333 27.5822 3.72C27.3155 3.56667 27.0122 3.49 26.6722 3.49C26.3322 3.49 26.0289 3.56667 25.7622 3.72C25.4955 3.87333 25.2822 4.09 25.1222 4.37C24.9622 4.64333 24.8822 4.97 24.8822 5.35C24.8822 5.72333 24.9622 6.05333 25.1222 6.34C25.2822 6.62 25.4955 6.83667 25.7622 6.99C26.0289 7.14333 26.3322 7.22 26.6722 7.22ZM33.0198 8.06C32.4865 8.06 32.0132 7.94333 31.5998 7.71C31.1865 7.47667 30.8598 7.15667 30.6198 6.75C30.3798 6.33667 30.2598 5.87 30.2598 5.35C30.2598 4.82333 30.3798 4.35667 30.6198 3.95C30.8598 3.54333 31.1865 3.22667 31.5998 3C32.0132 2.76667 32.4865 2.65 33.0198 2.65C33.5465 2.65 34.0165 2.76667 34.4298 3C34.8498 3.22667 35.1765 3.54333 35.4098 3.95C35.6498 4.35 35.7698 4.81667 35.7698 5.35C35.7698 5.87667 35.6498 6.34333 35.4098 6.75C35.1765 7.15667 34.8498 7.47667 34.4298 7.71C34.0165 7.94333 33.5465 8.06 33.0198 8.06ZM33.0198 7.22C33.3598 7.22 33.6632 7.14333 33.9298 6.99C34.2032 6.83667 34.4165 6.62 34.5698 6.34C34.7232 6.05333 34.7998 5.72333 34.7998 5.35C34.7998 4.97 34.7232 4.64333 34.5698 4.37C34.4165 4.09 34.2032 3.87333 33.9298 3.72C33.6632 3.56667 33.3598 3.49 33.0198 3.49C32.6798 3.49 32.3765 3.56667 32.1098 3.72C31.8432 3.87333 31.6298 4.09 31.4698 4.37C31.3098 4.64333 31.2298 4.97 31.2298 5.35C31.2298 5.72333 31.3098 6.05333 31.4698 6.34C31.6298 6.62 31.8432 6.83667 32.1098 6.99C32.3765 7.14333 32.6798 7.22 33.0198 7.22ZM43.7275 2.65C44.1542 2.65 44.5308 2.73333 44.8575 2.9C45.1842 3.06667 45.4375 3.32 45.6175 3.66C45.8042 4 45.8975 4.43 45.8975 4.95V8H44.9375V5.06C44.9375 4.54667 44.8175 4.16 44.5775 3.9C44.3375 3.64 44.0008 3.51 43.5675 3.51C43.2475 3.51 42.9675 3.57667 42.7275 3.71C42.4875 3.84333 42.3008 4.04 42.1675 4.3C42.0408 4.56 41.9775 4.88333 41.9775 5.27V8H41.0175V5.06C41.0175 4.54667 40.8975 4.16 40.6575 3.9C40.4242 3.64 40.0875 3.51 39.6475 3.51C39.3342 3.51 39.0575 3.57667 38.8175 3.71C38.5775 3.84333 38.3908 4.04 38.2575 4.3C38.1242 4.56 38.0575 4.88333 38.0575 5.27V8H37.0975V2.7H38.0175V4.11L37.8675 3.75C38.0342 3.40333 38.2908 3.13333 38.6375 2.94C38.9842 2.74667 39.3875 2.65 39.8475 2.65C40.3542 2.65 40.7908 2.77667 41.1575 3.03C41.5242 3.27667 41.7642 3.65333 41.8775 4.16L41.4875 4C41.6475 3.59333 41.9275 3.26667 42.3275 3.02C42.7275 2.77333 43.1942 2.65 43.7275 2.65Z" fill="white"/>
</svg>
