<svg width="27" height="9" viewBox="0 0 27 9" fill="none" xmlns="http://www.w3.org/2000/svg">
<path d="M0.95 3.31H4.56V4.17H0.95V3.31ZM1.05 7H0.05V-4.76837e-07H4.99V0.87H1.05V7ZM8.36164 7.06C7.82831 7.06 7.35497 6.94333 6.94164 6.71C6.52831 6.47667 6.20164 6.15667 5.96164 5.75C5.72164 5.33667 5.60164 4.87 5.60164 4.35C5.60164 3.82333 5.72164 3.35667 5.96164 2.95C6.20164 2.54333 6.52831 2.22667 6.94164 2C7.35497 1.76667 7.82831 1.65 8.36164 1.65C8.88831 1.65 9.35831 1.76667 9.77164 2C10.1916 2.22667 10.5183 2.54333 10.7516 2.95C10.9916 3.35 11.1116 3.81667 11.1116 4.35C11.1116 4.87667 10.9916 5.34333 10.7516 5.75C10.5183 6.15667 10.1916 6.47667 9.77164 6.71C9.35831 6.94333 8.88831 7.06 8.36164 7.06ZM8.36164 6.22C8.70164 6.22 9.00497 6.14333 9.27164 5.99C9.54497 5.83667 9.75831 5.62 9.91164 5.34C10.065 5.05333 10.1416 4.72333 10.1416 4.35C10.1416 3.97 10.065 3.64333 9.91164 3.37C9.75831 3.09 9.54497 2.87333 9.27164 2.72C9.00497 2.56667 8.70164 2.49 8.36164 2.49C8.02164 2.49 7.71831 2.56667 7.45164 2.72C7.18497 2.87333 6.97164 3.09 6.81164 3.37C6.65164 3.64333 6.57164 3.97 6.57164 4.35C6.57164 4.72333 6.65164 5.05333 6.81164 5.34C6.97164 5.62 7.18497 5.83667 7.45164 5.99C7.71831 6.14333 8.02164 6.22 8.36164 6.22ZM12.5228 9C12.2695 9 12.0228 8.95667 11.7828 8.87C11.5428 8.79 11.3361 8.67 11.1628 8.51L11.5728 7.79C11.7061 7.91667 11.8528 8.01333 12.0128 8.08C12.1728 8.14667 12.3428 8.18 12.5228 8.18C12.7561 8.18 12.9495 8.12 13.1028 8C13.2561 7.88 13.3995 7.66667 13.5328 7.36L13.8628 6.63L13.9628 6.51L16.0428 1.7H16.9828L14.4128 7.53C14.2595 7.90333 14.0861 8.19667 13.8928 8.41C13.7061 8.62333 13.4995 8.77333 13.2728 8.86C13.0461 8.95333 12.7961 9 12.5228 9ZM13.7828 7.17L11.3628 1.7H12.3628L14.4228 6.42L13.7828 7.17ZM20.0923 7.06C19.5256 7.06 19.0256 6.94333 18.5923 6.71C18.1656 6.47667 17.8323 6.15667 17.5923 5.75C17.3589 5.34333 17.2423 4.87667 17.2423 4.35C17.2423 3.82333 17.3556 3.35667 17.5823 2.95C17.8156 2.54333 18.1323 2.22667 18.5323 2C18.9389 1.76667 19.3956 1.65 19.9023 1.65C20.4156 1.65 20.8689 1.76333 21.2623 1.99C21.6556 2.21667 21.9623 2.53667 22.1823 2.95C22.4089 3.35667 22.5223 3.83333 22.5223 4.38C22.5223 4.42 22.5189 4.46667 22.5123 4.52C22.5123 4.57333 22.5089 4.62333 22.5023 4.67H17.9923V3.98H22.0023L21.6123 4.22C21.6189 3.88 21.5489 3.57667 21.4023 3.31C21.2556 3.04333 21.0523 2.83667 20.7923 2.69C20.5389 2.53667 20.2423 2.46 19.9023 2.46C19.5689 2.46 19.2723 2.53667 19.0123 2.69C18.7523 2.83667 18.5489 3.04667 18.4023 3.32C18.2556 3.58667 18.1823 3.89333 18.1823 4.24V4.4C18.1823 4.75333 18.2623 5.07 18.4223 5.35C18.5889 5.62333 18.8189 5.83667 19.1123 5.99C19.4056 6.14333 19.7423 6.22 20.1223 6.22C20.4356 6.22 20.7189 6.16667 20.9723 6.06C21.2323 5.95333 21.4589 5.79333 21.6523 5.58L22.1823 6.2C21.9423 6.48 21.6423 6.69333 21.2823 6.84C20.9289 6.98667 20.5323 7.06 20.0923 7.06ZM23.8553 7V1.7H24.7753V3.14L24.6853 2.78C24.832 2.41333 25.0786 2.13333 25.4253 1.94C25.772 1.74667 26.1986 1.65 26.7053 1.65V2.58C26.6653 2.57333 26.6253 2.57 26.5853 2.57C26.552 2.57 26.5186 2.57 26.4853 2.57C25.972 2.57 25.5653 2.72333 25.2653 3.03C24.9653 3.33667 24.8153 3.78 24.8153 4.36V7H23.8553Z" fill="white"/>
</svg>
