<svg width="38" height="9" viewBox="0 0 38 9" fill="none" xmlns="http://www.w3.org/2000/svg">
<path d="M0.93 6.31L0.88 5.09L4.85 1H5.99L2.92 4.24L2.36 4.86L0.93 6.31ZM0.05 8V1H1.05V8H0.05ZM5.01 8L2.14 4.66L2.81 3.92L6.18 8H5.01ZM7.0975 8V2.7H8.0575V8H7.0975ZM7.5775 1.68C7.39083 1.68 7.23417 1.62 7.1075 1.5C6.9875 1.38 6.9275 1.23333 6.9275 1.06C6.9275 0.88 6.9875 0.73 7.1075 0.61C7.23417 0.49 7.39083 0.43 7.5775 0.43C7.76417 0.43 7.9175 0.49 8.0375 0.61C8.16417 0.723333 8.2275 0.866666 8.2275 1.04C8.2275 1.22 8.1675 1.37333 8.0475 1.5C7.9275 1.62 7.77083 1.68 7.5775 1.68ZM11.7105 8.06C11.1771 8.06 10.7638 7.91667 10.4705 7.63C10.1771 7.34333 10.0305 6.93333 10.0305 6.4V1.54H10.9905V6.36C10.9905 6.64667 11.0605 6.86667 11.2005 7.02C11.3471 7.17333 11.5538 7.25 11.8205 7.25C12.1205 7.25 12.3705 7.16667 12.5705 7L12.8705 7.69C12.7238 7.81667 12.5471 7.91 12.3405 7.97C12.1405 8.03 11.9305 8.06 11.7105 8.06ZM9.13047 3.49V2.7H12.5105V3.49H9.13047ZM16.1653 8.06C15.6253 8.06 15.142 7.94333 14.7153 7.71C14.2953 7.47667 13.9653 7.15667 13.7253 6.75C13.4853 6.34333 13.3653 5.87667 13.3653 5.35C13.3653 4.82333 13.4853 4.35667 13.7253 3.95C13.9653 3.54333 14.2953 3.22667 14.7153 3C15.142 2.76667 15.6253 2.65 16.1653 2.65C16.6453 2.65 17.072 2.74667 17.4453 2.94C17.8253 3.12667 18.1186 3.40667 18.3253 3.78L17.5953 4.25C17.422 3.99 17.2086 3.8 16.9553 3.68C16.7086 3.55333 16.442 3.49 16.1553 3.49C15.8086 3.49 15.4986 3.56667 15.2253 3.72C14.952 3.87333 14.7353 4.09 14.5753 4.37C14.4153 4.64333 14.3353 4.97 14.3353 5.35C14.3353 5.73 14.4153 6.06 14.5753 6.34C14.7353 6.62 14.952 6.83667 15.2253 6.99C15.4986 7.14333 15.8086 7.22 16.1553 7.22C16.442 7.22 16.7086 7.16 16.9553 7.04C17.2086 6.91333 17.422 6.72 17.5953 6.46L18.3253 6.92C18.1186 7.28667 17.8253 7.57 17.4453 7.77C17.072 7.96333 16.6453 8.06 16.1653 8.06ZM22.3298 2.65C22.7632 2.65 23.1432 2.73333 23.4698 2.9C23.8032 3.06667 24.0632 3.32 24.2498 3.66C24.4365 4 24.5298 4.43 24.5298 4.95V8H23.5698V5.06C23.5698 4.54667 23.4432 4.16 23.1898 3.9C22.9432 3.64 22.5932 3.51 22.1398 3.51C21.7998 3.51 21.5032 3.57667 21.2498 3.71C20.9965 3.84333 20.7998 4.04 20.6598 4.3C20.5265 4.56 20.4598 4.88333 20.4598 5.27V8H19.4998V0.58H20.4598V4.13L20.2698 3.75C20.4432 3.40333 20.7098 3.13333 21.0698 2.94C21.4298 2.74667 21.8498 2.65 22.3298 2.65ZM28.6665 8.06C28.0998 8.06 27.5998 7.94333 27.1665 7.71C26.7398 7.47667 26.4065 7.15667 26.1665 6.75C25.9332 6.34333 25.8165 5.87667 25.8165 5.35C25.8165 4.82333 25.9298 4.35667 26.1565 3.95C26.3898 3.54333 26.7065 3.22667 27.1065 3C27.5132 2.76667 27.9698 2.65 28.4765 2.65C28.9898 2.65 29.4432 2.76333 29.8365 2.99C30.2298 3.21667 30.5365 3.53667 30.7565 3.95C30.9832 4.35667 31.0965 4.83333 31.0965 5.38C31.0965 5.42 31.0932 5.46667 31.0865 5.52C31.0865 5.57333 31.0832 5.62333 31.0765 5.67H26.5665V4.98H30.5765L30.1865 5.22C30.1932 4.88 30.1232 4.57667 29.9765 4.31C29.8298 4.04333 29.6265 3.83667 29.3665 3.69C29.1132 3.53667 28.8165 3.46 28.4765 3.46C28.1432 3.46 27.8465 3.53667 27.5865 3.69C27.3265 3.83667 27.1232 4.04667 26.9765 4.32C26.8298 4.58667 26.7565 4.89333 26.7565 5.24V5.4C26.7565 5.75333 26.8365 6.07 26.9965 6.35C27.1632 6.62333 27.3932 6.83667 27.6865 6.99C27.9798 7.14333 28.3165 7.22 28.6965 7.22C29.0098 7.22 29.2932 7.16667 29.5465 7.06C29.8065 6.95333 30.0332 6.79333 30.2265 6.58L30.7565 7.2C30.5165 7.48 30.2165 7.69333 29.8565 7.84C29.5032 7.98667 29.1065 8.06 28.6665 8.06ZM35.2595 2.65C35.6929 2.65 36.0729 2.73333 36.3995 2.9C36.7329 3.06667 36.9929 3.32 37.1795 3.66C37.3662 4 37.4595 4.43 37.4595 4.95V8H36.4995V5.06C36.4995 4.54667 36.3729 4.16 36.1195 3.9C35.8729 3.64 35.5229 3.51 35.0695 3.51C34.7295 3.51 34.4329 3.57667 34.1795 3.71C33.9262 3.84333 33.7295 4.04 33.5895 4.3C33.4562 4.56 33.3895 4.88333 33.3895 5.27V8H32.4295V2.7H33.3495V4.13L33.1995 3.75C33.3729 3.40333 33.6395 3.13333 33.9995 2.94C34.3595 2.74667 34.7795 2.65 35.2595 2.65Z" fill="white"/>
</svg>
