<svg width="76" height="10" viewBox="0 0 76 10" fill="none" xmlns="http://www.w3.org/2000/svg">
<path d="M0.05 8V1H1.05V7.13H4.84V8H0.05ZM5.8475 8V2.7H6.8075V8H5.8475ZM6.3275 1.68C6.14083 1.68 5.98417 1.62 5.8575 1.5C5.7375 1.38 5.6775 1.23333 5.6775 1.06C5.6775 0.88 5.7375 0.73 5.8575 0.61C5.98417 0.49 6.14083 0.43 6.3275 0.43C6.51417 0.43 6.6675 0.49 6.7875 0.61C6.91417 0.723333 6.9775 0.866666 6.9775 1.04C6.9775 1.22 6.9175 1.37333 6.7975 1.5C6.6775 1.62 6.52083 1.68 6.3275 1.68ZM10.0305 8L7.71047 2.7H8.71047L10.7705 7.5H10.2905L12.3905 2.7H13.3305L11.0105 8H10.0305ZM14.2264 8V2.7H15.1864V8H14.2264ZM14.7064 1.68C14.5197 1.68 14.3631 1.62 14.2364 1.5C14.1164 1.38 14.0564 1.23333 14.0564 1.06C14.0564 0.88 14.1164 0.73 14.2364 0.61C14.3631 0.49 14.5197 0.43 14.7064 0.43C14.8931 0.43 15.0464 0.49 15.1664 0.61C15.2931 0.723333 15.3564 0.866666 15.3564 1.04C15.3564 1.22 15.2964 1.37333 15.1764 1.5C15.0564 1.62 14.8997 1.68 14.7064 1.68ZM19.8494 2.65C20.2827 2.65 20.6627 2.73333 20.9894 2.9C21.3227 3.06667 21.5827 3.32 21.7694 3.66C21.956 4 22.0494 4.43 22.0494 4.95V8H21.0894V5.06C21.0894 4.54667 20.9627 4.16 20.7094 3.9C20.4627 3.64 20.1127 3.51 19.6594 3.51C19.3194 3.51 19.0227 3.57667 18.7694 3.71C18.516 3.84333 18.3194 4.04 18.1794 4.3C18.046 4.56 17.9794 4.88333 17.9794 5.27V8H17.0194V2.7H17.9394V4.13L17.7894 3.75C17.9627 3.40333 18.2294 3.13333 18.5894 2.94C18.9494 2.74667 19.3694 2.65 19.8494 2.65ZM26.146 10C25.6593 10 25.186 9.93 24.726 9.79C24.2727 9.65667 23.9027 9.46333 23.616 9.21L24.076 8.47C24.3227 8.68333 24.626 8.85 24.986 8.97C25.346 9.09667 25.7227 9.16 26.116 9.16C26.7427 9.16 27.2027 9.01333 27.496 8.72C27.7893 8.42667 27.936 7.98 27.936 7.38V6.26L28.036 5.21L27.986 4.15V2.7H28.896V7.28C28.896 8.21333 28.6627 8.9 28.196 9.34C27.7293 9.78 27.046 10 26.146 10ZM26.026 7.78C25.5127 7.78 25.0527 7.67333 24.646 7.46C24.246 7.24 23.926 6.93667 23.686 6.55C23.4527 6.16333 23.336 5.71667 23.336 5.21C23.336 4.69667 23.4527 4.25 23.686 3.87C23.926 3.48333 24.246 3.18333 24.646 2.97C25.0527 2.75667 25.5127 2.65 26.026 2.65C26.4793 2.65 26.8927 2.74333 27.266 2.93C27.6393 3.11 27.936 3.39 28.156 3.77C28.3827 4.15 28.496 4.63 28.496 5.21C28.496 5.78333 28.3827 6.26 28.156 6.64C27.936 7.02 27.6393 7.30667 27.266 7.5C26.8927 7.68667 26.4793 7.78 26.026 7.78ZM26.136 6.94C26.4893 6.94 26.8027 6.86667 27.076 6.72C27.3493 6.57333 27.5627 6.37 27.716 6.11C27.876 5.85 27.956 5.55 27.956 5.21C27.956 4.87 27.876 4.57 27.716 4.31C27.5627 4.05 27.3493 3.85 27.076 3.71C26.8027 3.56333 26.4893 3.49 26.136 3.49C25.7827 3.49 25.466 3.56333 25.186 3.71C24.9127 3.85 24.696 4.05 24.536 4.31C24.3827 4.57 24.306 4.87 24.306 5.21C24.306 5.55 24.3827 5.85 24.536 6.11C24.696 6.37 24.9127 6.57333 25.186 6.72C25.466 6.86667 25.7827 6.94 26.136 6.94ZM35.4059 8.08C34.9325 8.08 34.5125 8.00333 34.1459 7.85C33.7792 7.69667 33.4892 7.48333 33.2759 7.21C33.0625 6.93667 32.9559 6.62 32.9559 6.26C32.9559 5.94667 33.0259 5.66 33.1659 5.4C33.3059 5.14 33.5292 4.89 33.8359 4.65C34.1425 4.40333 34.5459 4.15 35.0459 3.89C35.4525 3.67667 35.7692 3.49 35.9959 3.33C36.2292 3.17 36.3925 3.02 36.4859 2.88C36.5859 2.73333 36.6359 2.57667 36.6359 2.41C36.6359 2.18333 36.5559 2 36.3959 1.86C36.2359 1.71333 36.0059 1.64 35.7059 1.64C35.3925 1.64 35.1459 1.72 34.9659 1.88C34.7925 2.03333 34.7059 2.23667 34.7059 2.49C34.7059 2.61667 34.7259 2.74 34.7659 2.86C34.8125 2.97333 34.8925 3.10333 35.0059 3.25C35.1259 3.39 35.2959 3.57 35.5159 3.79L39.2159 7.47L38.6759 8.11L34.7459 4.2C34.5125 3.96667 34.3292 3.76 34.1959 3.58C34.0625 3.39333 33.9659 3.21333 33.9059 3.04C33.8459 2.86667 33.8159 2.69 33.8159 2.51C33.8159 2.19667 33.8925 1.92333 34.0459 1.69C34.2059 1.45 34.4259 1.26667 34.7059 1.14C34.9925 1.00667 35.3259 0.94 35.7059 0.94C36.0592 0.94 36.3659 1 36.6259 1.12C36.8859 1.23333 37.0859 1.4 37.2259 1.62C37.3725 1.83333 37.4459 2.09333 37.4459 2.4C37.4459 2.66667 37.3792 2.91333 37.2459 3.14C37.1192 3.36667 36.9125 3.58667 36.6259 3.8C36.3392 4.01333 35.9525 4.24333 35.4659 4.49C35.0659 4.69667 34.7525 4.89 34.5259 5.07C34.2992 5.24333 34.1359 5.41667 34.0359 5.59C33.9425 5.76333 33.8959 5.95333 33.8959 6.16C33.8959 6.38 33.9592 6.57667 34.0859 6.75C34.2192 6.91667 34.4025 7.04667 34.6359 7.14C34.8759 7.23333 35.1525 7.28 35.4659 7.28C35.9125 7.28 36.3159 7.18333 36.6759 6.99C37.0359 6.79667 37.3359 6.50667 37.5759 6.12C37.8225 5.73333 38.0025 5.25333 38.1159 4.68L38.8859 4.93C38.7525 5.60333 38.5225 6.17333 38.1959 6.64C37.8759 7.10667 37.4792 7.46333 37.0059 7.71C36.5325 7.95667 35.9992 8.08 35.4059 8.08ZM43.0969 8V1H46.0469C46.7935 1 47.4502 1.14667 48.0169 1.44C48.5902 1.73333 49.0335 2.14333 49.3469 2.67C49.6669 3.19667 49.8269 3.80667 49.8269 4.5C49.8269 5.19333 49.6669 5.80333 49.3469 6.33C49.0335 6.85667 48.5902 7.26667 48.0169 7.56C47.4502 7.85333 46.7935 8 46.0469 8H43.0969ZM44.0969 7.13H45.9869C46.5669 7.13 47.0669 7.02 47.4869 6.8C47.9135 6.58 48.2435 6.27333 48.4769 5.88C48.7102 5.48 48.8269 5.02 48.8269 4.5C48.8269 3.97333 48.7102 3.51333 48.4769 3.12C48.2435 2.72667 47.9135 2.42 47.4869 2.2C47.0669 1.98 46.5669 1.87 45.9869 1.87H44.0969V7.13ZM51.2186 8V2.7H52.1786V8H51.2186ZM51.6986 1.68C51.5119 1.68 51.3553 1.62 51.2286 1.5C51.1086 1.38 51.0486 1.23333 51.0486 1.06C51.0486 0.88 51.1086 0.73 51.2286 0.61C51.3553 0.49 51.5119 0.43 51.6986 0.43C51.8853 0.43 52.0386 0.49 52.1586 0.61C52.2853 0.723333 52.3486 0.866666 52.3486 1.04C52.3486 1.22 52.2886 1.37333 52.1686 1.5C52.0486 1.62 51.8919 1.68 51.6986 1.68ZM56.8416 2.65C57.2749 2.65 57.6549 2.73333 57.9816 2.9C58.3149 3.06667 58.5749 3.32 58.7616 3.66C58.9482 4 59.0416 4.43 59.0416 4.95V8H58.0816V5.06C58.0816 4.54667 57.9549 4.16 57.7016 3.9C57.4549 3.64 57.1049 3.51 56.6516 3.51C56.3116 3.51 56.0149 3.57667 55.7616 3.71C55.5082 3.84333 55.3116 4.04 55.1716 4.3C55.0382 4.56 54.9716 4.88333 54.9716 5.27V8H54.0116V2.7H54.9316V4.13L54.7816 3.75C54.9549 3.40333 55.2216 3.13333 55.5816 2.94C55.9416 2.74667 56.3616 2.65 56.8416 2.65ZM60.8182 8V2.7H61.7782V8H60.8182ZM61.2982 1.68C61.1115 1.68 60.9549 1.62 60.8282 1.5C60.7082 1.38 60.6482 1.23333 60.6482 1.06C60.6482 0.88 60.7082 0.73 60.8282 0.61C60.9549 0.49 61.1115 0.43 61.2982 0.43C61.4849 0.43 61.6382 0.49 61.7582 0.61C61.8849 0.723333 61.9482 0.866666 61.9482 1.04C61.9482 1.22 61.8882 1.37333 61.7682 1.5C61.6482 1.62 61.4915 1.68 61.2982 1.68ZM66.4412 2.65C66.8745 2.65 67.2545 2.73333 67.5812 2.9C67.9145 3.06667 68.1745 3.32 68.3612 3.66C68.5478 4 68.6412 4.43 68.6412 4.95V8H67.6812V5.06C67.6812 4.54667 67.5545 4.16 67.3012 3.9C67.0545 3.64 66.7045 3.51 66.2512 3.51C65.9112 3.51 65.6145 3.57667 65.3612 3.71C65.1078 3.84333 64.9112 4.04 64.7712 4.3C64.6378 4.56 64.5712 4.88333 64.5712 5.27V8H63.6112V2.7H64.5312V4.13L64.3812 3.75C64.5545 3.40333 64.8212 3.13333 65.1812 2.94C65.5412 2.74667 65.9612 2.65 66.4412 2.65ZM72.7378 10C72.2511 10 71.7778 9.93 71.3178 9.79C70.8645 9.65667 70.4945 9.46333 70.2078 9.21L70.6678 8.47C70.9145 8.68333 71.2178 8.85 71.5778 8.97C71.9378 9.09667 72.3145 9.16 72.7078 9.16C73.3345 9.16 73.7945 9.01333 74.0878 8.72C74.3811 8.42667 74.5278 7.98 74.5278 7.38V6.26L74.6278 5.21L74.5778 4.15V2.7H75.4878V7.28C75.4878 8.21333 75.2545 8.9 74.7878 9.34C74.3211 9.78 73.6378 10 72.7378 10ZM72.6178 7.78C72.1045 7.78 71.6445 7.67333 71.2378 7.46C70.8378 7.24 70.5178 6.93667 70.2778 6.55C70.0445 6.16333 69.9278 5.71667 69.9278 5.21C69.9278 4.69667 70.0445 4.25 70.2778 3.87C70.5178 3.48333 70.8378 3.18333 71.2378 2.97C71.6445 2.75667 72.1045 2.65 72.6178 2.65C73.0711 2.65 73.4845 2.74333 73.8578 2.93C74.2311 3.11 74.5278 3.39 74.7478 3.77C74.9745 4.15 75.0878 4.63 75.0878 5.21C75.0878 5.78333 74.9745 6.26 74.7478 6.64C74.5278 7.02 74.2311 7.30667 73.8578 7.5C73.4845 7.68667 73.0711 7.78 72.6178 7.78ZM72.7278 6.94C73.0811 6.94 73.3945 6.86667 73.6678 6.72C73.9411 6.57333 74.1545 6.37 74.3078 6.11C74.4678 5.85 74.5478 5.55 74.5478 5.21C74.5478 4.87 74.4678 4.57 74.3078 4.31C74.1545 4.05 73.9411 3.85 73.6678 3.71C73.3945 3.56333 73.0811 3.49 72.7278 3.49C72.3745 3.49 72.0578 3.56333 71.7778 3.71C71.5045 3.85 71.2878 4.05 71.1278 4.31C70.9745 4.57 70.8978 4.87 70.8978 5.21C70.8978 5.55 70.9745 5.85 71.1278 6.11C71.2878 6.37 71.5045 6.57333 71.7778 6.72C72.0578 6.86667 72.3745 6.94 72.7278 6.94Z" fill="white"/>
</svg>
