<svg width="16" height="16" viewBox="0 0 16 16" fill="none" xmlns="http://www.w3.org/2000/svg">
<path d="M15.6497 12.0388L13.1185 9.51085C12.6552 9.04814 11.8416 9.04814 11.367 9.51085L10.0449 10.8312C10.0449 10.8312 9.93187 10.899 9.88667 10.8764C9.26517 10.6394 8.04477 10.0977 6.95996 9.01428C5.86386 7.93088 5.33276 6.72333 5.10675 6.11391C5.08415 6.0462 5.10675 5.98977 5.15195 5.94463L5.17455 5.92206C5.51356 5.57221 6.06726 5.01922 6.47406 4.62423C6.71136 4.38723 6.83566 4.08252 6.83566 3.75525C6.83566 3.42797 6.70006 3.11197 6.47406 2.88626L3.94285 0.347029C3.47955 -0.115676 2.66594 -0.115676 2.20264 0.347029L0.970937 1.56586C0.134733 2.41227 -0.192968 3.63111 0.112133 4.81608V4.84994C0.688436 6.80233 1.84104 9.61241 4.10105 11.8808C6.36106 14.1266 9.14087 15.2777 11.0958 15.8533L11.1636 15.8759C11.4574 15.9549 11.7512 16 12.045 16C12.9264 16 13.7852 15.6502 14.418 15.0182L15.6384 13.7993C15.8757 13.5623 16 13.2576 16 12.9303C16 12.6031 15.8757 12.2871 15.6384 12.0614L15.6497 12.0388ZM5.72826 3.8681L5.59266 4.00353C5.19715 4.39852 4.71125 4.88379 4.40615 5.19979C4.07845 5.52707 3.96545 6.00106 4.11235 6.45248C4.37225 7.15218 4.98245 8.52901 6.22546 9.77041C7.45716 11.0005 8.82447 11.6212 9.55897 11.8921C9.99967 12.0275 10.4743 11.9147 10.802 11.5874L12.1241 10.267C12.1919 10.1993 12.3049 10.1993 12.3727 10.267L14.9039 12.7949C14.9039 12.7949 14.9604 12.8739 14.9604 12.9191C14.9604 12.9642 14.9378 13.0093 14.9039 13.0432L13.6835 14.262L13.6609 14.2846C13.0733 14.8602 12.2145 15.0746 11.4348 14.8489C9.60417 14.3185 6.97126 13.2463 4.85815 11.136C2.74504 9.02557 1.67154 6.39605 1.14044 4.5678C0.914437 3.76653 1.14044 2.90883 1.72804 2.32199L2.94845 1.10316C2.94845 1.10316 3.02755 1.04673 3.07275 1.04673C3.11795 1.04673 3.16315 1.0693 3.19705 1.10316L5.72826 3.63111C5.72826 3.63111 5.78476 3.7101 5.78476 3.75525C5.78476 3.80039 5.76216 3.84553 5.72826 3.87939V3.8681Z" fill="#F15F40"/>
</svg>
