<svg width="226" height="169" viewBox="0 0 226 169" fill="none" xmlns="http://www.w3.org/2000/svg">
<path d="M73.7166 53.1245H75.0095V49.6937C75.0095 46.8711 74.8559 44.9765 74.5423 44.01C74.2286 43.0435 73.627 42.5634 72.7373 42.5634C72.1996 42.5634 71.7196 42.7043 71.2907 42.9859C70.8619 43.2675 70.6443 43.6516 70.6443 44.1444C70.6443 44.6372 70.7339 45.1301 70.9131 45.6357H72.0268C72.2636 46.263 72.3853 47.0119 72.3853 47.8888C72.3853 48.7656 72.014 49.5209 71.2715 50.161C70.5291 50.801 69.5946 51.1211 68.4617 51.1211C65.9078 51.1211 64.6277 49.8857 64.6277 47.4215C64.6277 43.7668 67.732 41.9362 73.9406 41.9362C77.4738 41.9362 79.9188 42.5378 81.2757 43.7412C82.6262 44.9445 83.3047 47.1527 83.3047 50.3594V59.4099C83.3047 60.9524 83.7335 61.7269 84.5976 61.7269C85.6089 61.7269 86.2042 60.1971 86.377 57.1376L87.0427 57.1825C86.921 59.8003 86.4346 61.5925 85.5705 62.5782C84.7064 63.5575 83.2983 64.0503 81.3333 64.0503C77.7682 64.0503 75.72 62.9494 75.1823 60.754C74.7983 61.8805 74.2158 62.7126 73.4413 63.2502C72.6669 63.7879 71.5404 64.0503 70.0554 64.0503C65.6582 64.0503 63.4564 62.2517 63.4564 58.6546C63.4564 56.5424 64.2949 55.0959 65.9718 54.3086C67.6488 53.5213 70.2283 53.1245 73.7038 53.1245H73.7166ZM72.1804 61.5925C72.3405 62.0405 72.6541 62.2581 73.1149 62.2581C73.5758 62.2581 74.0046 61.8805 74.4078 61.1188C74.8111 60.3636 75.0095 59.3139 75.0095 57.9761V53.8285H74.6959C72.8525 53.8285 71.9308 55.1791 71.9308 57.8865V58.597C71.9308 60.1395 72.014 61.138 72.174 61.5861L72.1804 61.5925Z" fill="white"/>
<path d="M95.6067 42.3842H106.347V46.487C106.821 45.1237 107.55 44.0228 108.53 43.1907C109.509 42.3586 110.994 41.9426 112.984 41.9426C117.593 41.9426 119.891 44.426 119.891 49.3865V62.8022H122.387V63.6022H109.771V62.8022H111.602V48.3176C111.602 46.5318 111.48 45.3861 111.243 44.8612C111.007 44.3428 110.578 44.0804 109.95 44.0804C108.997 44.0804 108.158 44.7076 107.435 45.9493C106.705 47.1975 106.341 48.7144 106.341 50.4938V62.7958H108.261V63.5958H95.6003V62.7958H98.0517V43.1843H95.6003V42.3842H95.6067Z" fill="white"/>
<path d="M126.074 61.0804C124.153 59.1026 123.2 56.3567 123.2 52.8364C123.2 49.3161 124.275 46.6214 126.432 44.746C128.589 42.877 131.329 41.9362 134.657 41.9362C141.403 41.9362 144.642 45.3221 144.373 52.1003H131.802V53.8413C131.802 56.7536 132.173 58.9554 132.916 60.4403C133.658 61.9253 134.951 62.6678 136.795 62.6678C140.245 62.6678 142.498 60.8244 143.573 57.1376L144.373 57.272C143.81 59.4098 142.792 61.074 141.32 62.2645C139.848 63.455 137.64 64.0503 134.702 64.0503C130.868 64.0503 127.994 63.0646 126.074 61.0868V61.0804ZM131.847 51.2042H136.436V49.0216C136.436 46.615 136.295 44.97 136.014 44.0932C135.732 43.2163 135.169 42.781 134.318 42.781C133.466 42.781 132.845 43.2483 132.449 44.1828C132.045 45.1173 131.847 46.7302 131.847 49.0216V51.2042Z" fill="white"/>
<path d="M159.882 43.1842V42.3841H171.384V43.1842H169.553L173.566 58.2064L177.534 43.1842H174.456V42.3841H180.472V43.1842H178.603L173.252 63.6022H167.146L163.268 49.9176L159.075 63.6022H153.103L146.504 43.1842H144.501V42.3841H158.006V43.1842H155.331L159.434 58.3408L162.64 47.9078L161.527 43.1842H159.875H159.882Z" fill="white"/>
<path d="M97.6804 72.4735V71.571H110.616V72.4735H108.561L113.074 89.3712L117.535 72.4735H114.072V71.571H120.844V72.4735H118.738L112.722 95.4389H105.854L101.489 80.0455L96.7779 95.4389H90.0573L82.6325 72.4735H80.3731V71.571H95.5682V72.4735H92.5599L97.1747 89.5248L100.785 77.7924L99.5302 72.4799H97.674L97.6804 72.4735Z" fill="white"/>
<path d="M132.225 83.6553H133.677V79.7957C133.677 76.621 133.505 74.4896 133.153 73.4015C132.801 72.3134 132.122 71.7694 131.124 71.7694C130.522 71.7694 129.978 71.9294 129.491 72.243C129.005 72.5631 128.762 72.9983 128.762 73.5487C128.762 74.0992 128.864 74.6624 129.063 75.2257H130.317C130.586 75.9298 130.72 76.7747 130.72 77.7604C130.72 78.746 130.304 79.5973 129.466 80.3206C128.627 81.0375 127.578 81.3959 126.304 81.3959C123.43 81.3959 121.99 80.007 121.99 77.2355C121.99 73.1263 125.485 71.0653 132.468 71.0653C136.449 71.0653 139.195 71.7438 140.718 73.0943C142.242 74.4512 143.003 76.9283 143.003 80.5382V90.7152C143.003 92.4562 143.49 93.3202 144.456 93.3202C145.589 93.3202 146.261 91.5985 146.46 88.155L147.215 88.2062C147.08 91.1504 146.53 93.173 145.557 94.2739C144.591 95.3748 143.003 95.9317 140.795 95.9317C136.782 95.9317 134.478 94.6964 133.876 92.2193C133.441 93.4931 132.788 94.4276 131.917 95.0292C131.047 95.6309 129.78 95.9317 128.109 95.9317C123.161 95.9317 120.691 93.9091 120.691 89.8639C120.691 87.4893 121.632 85.8635 123.526 84.9738C125.414 84.0906 128.314 83.6425 132.225 83.6425V83.6553ZM130.496 93.1858C130.682 93.6851 131.028 93.9347 131.552 93.9347C132.077 93.9347 132.557 93.5059 133.005 92.6546C133.453 91.8033 133.684 90.6256 133.684 89.1214V84.4554H133.332C131.258 84.4554 130.221 85.9787 130.221 89.019V89.8191C130.221 91.5601 130.311 92.6802 130.496 93.1794V93.1858Z" fill="white"/>
<path d="M144.463 72.4735V71.571H159.005V72.4735H156.297L161.763 89.1215L167.582 72.4735H164.221V71.571H171.294V72.4735H168.785L159.408 99.5033C158.307 102.646 157.065 104.841 155.696 106.096C154.326 107.35 152.655 107.978 150.684 107.978C148.713 107.978 147.157 107.53 146.018 106.621C144.879 105.718 144.315 104.566 144.315 103.158C144.315 101.75 144.68 100.681 145.416 99.9514C146.152 99.2153 147.119 98.8505 148.322 98.8505C151.094 98.8505 152.482 100.003 152.482 102.313C152.482 102.812 152.38 103.414 152.182 104.118H150.428C150.159 104.886 150.127 105.52 150.325 106.026C150.524 106.525 150.978 106.781 151.682 106.781C153.052 106.781 154.275 106.102 155.344 104.752C156.412 103.395 157.43 101.334 158.403 98.556L159.504 95.4453H155.094L146.517 72.4799H144.463V72.4735Z" fill="white"/>
<path d="M182.924 88.27V72.4733H180.165V71.5708H182.924V65.0997L192.249 62.7955V71.5708H198.765V72.4733H192.249V89.3709C192.249 90.9454 192.409 92.0975 192.723 92.8336C193.043 93.5697 193.702 93.9345 194.701 93.9345C195.699 93.9345 196.583 93.4353 197.332 92.4304C198.087 91.4255 198.58 90.0557 198.81 88.3212L199.661 88.4236C199.393 90.7278 198.656 92.5584 197.453 93.9153C196.25 95.2723 194.259 95.9443 191.488 95.9443C188.716 95.9443 186.591 95.3939 185.119 94.2866C183.647 93.1857 182.911 91.1759 182.911 88.27H182.924Z" fill="white"/>
<path d="M203.783 92.7314C201.646 90.5936 200.577 87.5277 200.577 83.5273C200.577 79.5269 201.722 76.4546 204.014 74.2976C206.305 72.1406 209.518 71.0653 213.666 71.0653C217.814 71.0653 220.905 72.0574 222.941 74.048C224.982 76.0386 226 79.0725 226 83.1497C226 91.6753 221.852 95.9585 213.359 95.9585C209.179 95.9585 205.921 94.8692 203.783 92.7314ZM216.367 85.5627V81.2999C216.367 78.0548 216.194 75.693 215.842 74.2016C215.49 72.7167 214.677 71.9678 213.41 71.9678C212.674 71.9678 212.079 72.179 211.631 72.595C211.183 73.0111 210.856 73.7088 210.651 74.6753C210.35 76.1794 210.197 78.4708 210.197 81.5431V85.4539C210.197 89.0958 210.306 91.2913 210.523 92.0209C210.741 92.757 210.965 93.3587 211.202 93.8259C211.567 94.626 212.29 95.0292 213.359 95.0292C214.665 95.0292 215.516 94.2739 215.913 92.7698C216.213 91.7009 216.367 89.2943 216.367 85.5499V85.5627Z" fill="white"/>
<path d="M11.9635 82.7334H39.7037V165.615H46.0467V167.65H12.4179V165.615H18.6457V84.7752H11.9635V82.7398V82.7334Z" fill="#EAD654"/>
<path d="M47.7429 113.757H75.4832V165.615H81.8262V167.651H48.1974V165.615H54.4252V115.799H47.7429V113.764V113.757ZM64.839 105.942C60.8386 105.942 57.9903 104.924 56.2878 102.883C54.5916 100.847 53.7403 98.319 53.7403 95.298C53.7403 92.2769 54.662 89.787 56.5118 87.822C58.3616 85.857 61.1714 84.8777 64.9478 84.8777C68.7242 84.8777 71.5916 85.7674 73.5502 87.5404C75.5088 89.3134 76.4945 91.8416 76.4945 95.1251C76.4945 98.4087 75.5472 101.033 73.6654 102.991C71.7773 104.956 68.833 105.936 64.8326 105.936L64.839 105.942Z" fill="#EAD654"/>
<path d="M79.5539 115.793V113.757H113.407V115.793H106.277L119.865 153.383L132.097 115.793H124.512V113.757H139.797V115.793H134.817L118.06 167.65H105.15L84.2008 115.793H79.5603H79.5539Z" fill="#EAD654"/>
<path d="M145.96 161.256C141.09 156.238 138.657 149.255 138.657 140.307C138.657 131.359 141.39 124.51 146.869 119.755C152.342 114.999 159.306 112.624 167.761 112.624C184.895 112.624 193.12 121.227 192.442 138.438H160.515V142.854C160.515 150.253 161.456 155.841 163.345 159.611C165.233 163.388 168.516 165.276 173.195 165.276C181.951 165.276 187.686 160.597 190.406 151.233L192.442 151.572C191.008 157.006 188.422 161.237 184.684 164.252C180.946 167.273 175.346 168.783 167.87 168.783C158.134 168.783 150.831 166.274 145.96 161.256ZM160.624 136.179H172.286V130.629C172.286 124.517 171.928 120.343 171.211 118.116C170.494 115.889 169.06 114.775 166.91 114.775C164.759 114.775 163.172 115.965 162.154 118.34C161.136 120.721 160.624 124.811 160.624 130.623V136.172V136.179Z" fill="#EAD654"/>
<path d="M14.4724 33.4039C13.3203 33.3463 12.1746 33.4039 11.0289 33.4359C10.9329 33.4359 8.50704 33.5831 7.52775 33.3975C6.03001 33.1095 4.53226 32.8662 3.00251 32.8022C1.97841 32.7574 1.17193 32.0982 0.314243 31.6117C0.0710192 31.4709 -0.0505871 31.2021 0.0198197 30.9076C0.263043 29.8707 0.839099 28.5458 2.24083 28.3538C3.59777 28.1682 4.91629 27.8609 6.31802 27.9506C7.44453 28.021 8.59025 27.7009 9.74236 27.6497C12.1042 27.5537 14.4404 27.1761 16.783 26.9009C17.3271 26.8368 20.5594 25.8063 22.4412 24.8271C22.8636 24.7822 23.0108 24.5582 22.9468 24.1294C22.7932 23.1053 22.7036 22.0684 22.5116 21.0507C22.1979 19.3417 21.8459 17.6456 21.7051 15.911C21.6859 15.6486 21.6155 15.3669 21.5003 15.1301C21.0842 14.2724 20.7642 13.3892 20.6874 12.4291C20.6618 12.1538 20.6362 11.8722 20.201 11.8402C19.9257 11.821 19.8489 11.4562 19.7337 11.2193C19.2857 10.3041 19.0744 9.30556 18.7352 8.35187C18.3576 7.29576 18.0056 6.23326 17.3399 5.30517C16.9623 4.77392 17.0967 3.06496 17.7303 2.43769C18.9016 1.28558 20.2458 0.434302 21.8587 0.0822681C23.3245 -0.237763 24.4062 0.389497 25.1038 1.72723C27.2544 5.85562 28.5602 10.2592 29.5971 14.7717C30.1539 17.1847 30.7812 19.5849 31.1012 22.0492C31.1716 22.6188 31.3764 22.7405 31.9525 22.5612C35.1144 21.5691 38.1803 20.3338 41.1886 18.9769C41.9439 18.6313 42.6543 18.1192 43.3904 17.6904C43.768 17.4727 43.8448 17.0631 43.8192 16.6791C43.7104 14.7845 43.4096 12.9219 42.872 11.0977C42.776 10.7713 42.6927 10.4449 42.6223 10.1184C42.5839 9.93922 42.5647 9.7088 42.7119 9.60639C43.4992 9.02393 44.1393 8.16625 45.1762 8.04464C46.0851 7.93583 46.9684 8.11504 47.73 8.6975C48.3509 9.17114 48.6645 9.84321 48.9653 10.5281C49.5094 11.7954 49.9126 13.1075 50.2583 14.4389C50.5335 15.4886 50.6551 15.5654 51.7176 15.3477C53.753 14.9317 55.782 14.5285 57.8046 14.0612C58.7775 13.8372 59.4303 14.2852 59.9808 14.9445C60.5312 15.6038 60.6593 16.4038 60.4288 17.2359C60.3328 17.5688 60.032 17.7096 59.7696 17.876C57.5358 19.2841 55.0971 20.321 52.7673 21.5499C52.5497 21.6651 52.3321 21.7804 52.1016 21.8828C51.7688 22.0364 51.6472 22.2476 51.7304 22.6316C52.2169 24.8143 52.3001 27.0545 52.5369 29.2691C52.5817 29.7107 52.7033 29.7683 53.0617 29.5955C54.0154 29.1347 54.9563 28.6482 55.9292 28.2322C57.7918 27.4449 59.616 26.5488 61.5298 25.8832C63.1107 25.3327 63.9812 25.6463 64.7621 27.1313C65.0373 27.6561 65.2229 28.2066 65.3573 28.7762C65.5621 29.6275 65.7093 30.498 66.023 31.3237C66.4006 32.3414 66.0806 33.2375 65.0949 33.8455C63.5844 34.7736 61.9074 35.3241 60.3328 36.0985C58.1502 37.1738 55.9484 38.2107 53.7466 39.2476C53.3114 39.4525 53.2729 39.7533 53.2793 40.1757C53.3946 44.7458 53.5482 49.3222 53.2025 53.8922C53.1449 54.6795 53.0617 55.4604 53.0105 56.2477C52.9849 56.6509 52.8249 56.8685 52.4153 56.9261C52.1976 56.9581 51.9416 56.9966 51.7752 57.131C49.6886 58.7503 45.925 57.2974 45.4194 54.2827C45.1698 52.8041 44.9458 51.3576 45.189 49.8599C45.509 47.8693 45.3874 45.8595 45.4898 43.8561C45.5218 43.28 45.3234 43.2032 44.8113 43.4144C41.7646 44.6562 38.7627 45.9939 35.6777 47.1524C34.6728 47.53 34.6984 47.6132 34.7624 48.7142C35.044 53.393 35.1016 58.0783 34.724 62.7571C34.6728 63.4228 34.4807 64.082 34.3015 64.7285C34.1159 65.4006 33.4951 65.5798 32.9318 65.6694C30.4164 66.0918 28.2593 65.4326 26.5632 63.4484C25.219 61.8738 24.4766 59.9856 23.7149 58.1039C22.8892 56.0621 22.5116 53.905 22.0763 51.7672C21.9803 51.2936 21.8331 51.0312 21.2763 51.172C17.7687 52.0233 14.1908 52.1833 10.6064 52.1641C9.76156 52.1641 8.93588 52.2729 8.0654 52.1769C5.90199 51.9337 4.76268 51.4472 3.66818 49.4694C3.52096 49.207 3.48256 48.919 3.48256 48.6245C3.48256 48.0613 3.49535 47.4916 3.33533 46.9476C3.17532 46.4035 3.38655 46.0835 3.905 45.9171C5.15952 45.5138 6.36922 45.0722 7.77096 45.1938C11.7265 45.533 15.5221 44.733 19.2153 43.3376C19.7401 43.1392 20.297 43.0176 20.841 42.8896C21.2059 42.8064 21.3595 42.608 21.3915 42.2367C21.5067 40.7326 21.5259 39.2348 21.4491 37.7179C21.3915 36.5978 21.3211 35.4777 21.2315 34.3576C21.1994 33.9799 21.3275 33.6471 21.5387 33.3399C21.7115 33.0838 21.8267 32.815 21.6411 32.527C21.4555 32.2454 21.1483 32.3222 20.8986 32.3606C19.5865 32.5718 18.2808 32.8086 16.9687 33.0326C16.8791 33.0454 16.7958 33.0902 16.7062 33.0902C16.431 33.0966 14.6644 33.3911 14.4596 33.3847L14.4724 33.4039ZM40.8878 33.8519C42.1999 33.4551 43.448 32.9046 44.7089 32.3734C45.1122 32.207 45.2018 32.0149 45.157 31.6181C45.0482 30.658 45.0354 29.6787 44.8689 28.725C44.6961 27.7201 44.8497 26.7024 44.7025 25.7039C44.6449 25.3071 44.4785 25.1727 44.0561 25.3583C40.4909 26.8688 36.7914 28.0146 33.175 29.3971C32.8294 29.5251 32.6502 29.6851 32.7078 30.0884C33.0342 32.4054 33.3478 34.7288 33.6615 37.0522C33.7255 37.5451 33.9431 37.6539 34.3975 37.4427C35.5176 36.9114 36.6506 36.4122 37.7707 35.8745L40.8941 33.8583L40.8878 33.8519Z" fill="#EAD654"/>
</svg>
