<svg width="15" height="15" viewBox="0 0 15 15" fill="none" xmlns="http://www.w3.org/2000/svg">
<path d="M7.5 0C3.36449 0 0 3.36449 0 7.5C0 11.6355 3.36449 15 7.5 15C11.6355 15 15 11.6355 15 7.5C15 3.36449 11.6472 0 7.5 0ZM0.771028 7.88551H3.07243C3.09579 8.84346 3.25935 9.8014 3.56308 10.7126H1.56542C1.09813 9.83645 0.829439 8.8785 0.771028 7.88551ZM7.88551 3.5514V0.899533C8.9486 1.50701 9.8014 2.42991 10.3388 3.53972H7.88551V3.5514ZM10.6542 4.31075C10.9813 5.22196 11.1565 6.17991 11.1799 7.13785H7.88551V4.31075H10.6542ZM7.12617 0.922897V3.53972H4.6729C5.21028 2.44159 6.06308 1.53037 7.12617 0.922897ZM7.12617 4.32243V7.13785H3.83178C3.85514 6.16822 4.03037 5.22196 4.35748 4.31075L7.12617 4.33411V4.32243ZM3.07243 7.13785H0.771028C0.817757 6.14486 1.09813 5.18692 1.56542 4.31075H3.56308C3.25935 5.22196 3.09579 6.17991 3.07243 7.13785ZM3.83178 7.8972H7.12617V10.7243H4.35748C4.03037 9.81308 3.85514 8.85514 3.83178 7.8972ZM7.12617 11.4836V14.1238C6.06308 13.5164 5.21028 12.5935 4.6729 11.4836H7.12617ZM7.88551 14.1238V11.4836H10.3388C9.8014 12.5818 8.9486 13.493 7.88551 14.1005V14.1238ZM7.88551 10.7243V7.8972H11.1799C11.1565 8.86682 10.9813 9.81308 10.6542 10.7243H7.88551ZM11.9393 7.8972H14.2407C14.1939 8.89019 13.9136 9.84813 13.4463 10.7243H11.4486C11.7523 9.81308 11.9159 8.85514 11.9393 7.8972ZM11.9393 7.13785C11.9159 6.17991 11.7523 5.22196 11.4486 4.31075H13.4463C13.9136 5.18692 14.1822 6.14486 14.2407 7.13785H11.9393ZM12.979 3.5514H11.1682C10.7477 2.58178 10.1168 1.70561 9.32243 1.00467C10.7827 1.42523 12.0678 2.31308 12.9673 3.5514H12.9907H12.979ZM5.68925 1.01636C4.89486 1.71729 4.26402 2.57009 3.84346 3.53972H2.05607C2.95561 2.31308 4.22897 1.42523 5.70093 1.01636H5.68925ZM2.05607 11.4603H3.86682C4.28738 12.4299 4.91822 13.3061 5.71262 14.007C4.24065 13.5981 2.95561 12.6986 2.05607 11.4603ZM9.31075 13.9836C10.1051 13.2827 10.736 12.4299 11.1565 11.4603H12.9673C12.0678 12.6869 10.7827 13.5864 9.31075 13.9836Z" fill="#F15F40"/>
</svg>
