<svg width="59" height="10" viewBox="0 0 59 10" fill="none" xmlns="http://www.w3.org/2000/svg">
<path d="M6.456 7.752L0.744 5.58V4.02L6.456 1.848V3.348L1.308 5.22V4.38L6.456 6.252V7.752ZM14.4796 7.752L8.76759 5.58V4.02L14.4796 1.848V3.348L9.33159 5.22V4.38L14.4796 6.252V7.752ZM21.2816 9V0.599999H25.3856C26.4416 0.599999 27.2336 0.799999 27.7616 1.2C28.2976 1.6 28.5656 2.128 28.5656 2.784C28.5656 3.224 28.4576 3.608 28.2416 3.936C28.0256 4.256 27.7296 4.504 27.3536 4.68C26.9776 4.856 26.5456 4.944 26.0576 4.944L26.2856 4.452C26.8136 4.452 27.2816 4.54 27.6896 4.716C28.0976 4.884 28.4136 5.136 28.6376 5.472C28.8696 5.808 28.9856 6.22 28.9856 6.708C28.9856 7.428 28.7016 7.992 28.1336 8.4C27.5656 8.8 26.7296 9 25.6256 9H21.2816ZM23.2136 7.536H25.4816C25.9856 7.536 26.3656 7.456 26.6216 7.296C26.8856 7.128 27.0176 6.864 27.0176 6.504C27.0176 6.152 26.8856 5.892 26.6216 5.724C26.3656 5.548 25.9856 5.46 25.4816 5.46H23.0696V4.044H25.1456C25.6176 4.044 25.9776 3.964 26.2256 3.804C26.4816 3.636 26.6096 3.384 26.6096 3.048C26.6096 2.72 26.4816 2.476 26.2256 2.316C25.9776 2.148 25.6176 2.064 25.1456 2.064H23.2136V7.536ZM30.1934 9L33.9374 0.599999H35.8574L39.6134 9H37.5734L34.5014 1.584H35.2694L32.1854 9H30.1934ZM32.0654 7.2L32.5814 5.724H36.9014L37.4294 7.2H32.0654ZM45.2277 9.144C44.5797 9.144 43.9757 9.04 43.4157 8.832C42.8637 8.616 42.3837 8.312 41.9757 7.92C41.5677 7.528 41.2477 7.068 41.0157 6.54C40.7917 6.012 40.6797 5.432 40.6797 4.8C40.6797 4.168 40.7917 3.588 41.0157 3.06C41.2477 2.532 41.5677 2.072 41.9757 1.68C42.3917 1.288 42.8757 0.987999 43.4277 0.779999C43.9797 0.564 44.5837 0.456 45.2397 0.456C45.9677 0.456 46.6237 0.584 47.2077 0.84C47.7997 1.088 48.2957 1.456 48.6957 1.944L47.4477 3.096C47.1597 2.768 46.8397 2.524 46.4877 2.364C46.1357 2.196 45.7517 2.112 45.3357 2.112C44.9437 2.112 44.5837 2.176 44.2557 2.304C43.9277 2.432 43.6437 2.616 43.4037 2.856C43.1637 3.096 42.9757 3.38 42.8397 3.708C42.7117 4.036 42.6477 4.4 42.6477 4.8C42.6477 5.2 42.7117 5.564 42.8397 5.892C42.9757 6.22 43.1637 6.504 43.4037 6.744C43.6437 6.984 43.9277 7.168 44.2557 7.296C44.5837 7.424 44.9437 7.488 45.3357 7.488C45.7517 7.488 46.1357 7.408 46.4877 7.248C46.8397 7.08 47.1597 6.828 47.4477 6.492L48.6957 7.644C48.2957 8.132 47.7997 8.504 47.2077 8.76C46.6237 9.016 45.9637 9.144 45.2277 9.144ZM52.5885 7.08L52.4805 4.836L56.5005 0.599999H58.6605L55.0365 4.5L53.9565 5.652L52.5885 7.08ZM50.8485 9V0.599999H52.7805V9H50.8485ZM56.5965 9L53.6085 5.34L54.8805 3.96L58.8645 9H56.5965Z" fill="#F15F40"/>
</svg>
