<svg width="262" height="14" viewBox="0 0 262 14" fill="none" xmlns="http://www.w3.org/2000/svg">
<path d="M0.596 11V1.2H4.586C5.63133 1.2 6.546 1.41 7.33 1.83C8.12333 2.24067 8.73933 2.81467 9.178 3.552C9.61667 4.28933 9.836 5.13867 9.836 6.1C9.836 7.06133 9.61667 7.91067 9.178 8.648C8.73933 9.38533 8.12333 9.964 7.33 10.384C6.546 10.7947 5.63133 11 4.586 11H0.596ZM1.632 10.104H4.53C5.398 10.104 6.14933 9.936 6.784 9.6C7.428 9.25467 7.92733 8.78333 8.282 8.186C8.63667 7.57933 8.814 6.884 8.814 6.1C8.814 5.30667 8.63667 4.61133 8.282 4.014C7.92733 3.41667 7.428 2.95 6.784 2.614C6.14933 2.26867 5.398 2.096 4.53 2.096H1.632V10.104ZM16.5584 11V9.376L16.5164 9.11V6.394C16.5164 5.76867 16.3391 5.288 15.9844 4.952C15.6391 4.616 15.1211 4.448 14.4304 4.448C13.9544 4.448 13.5017 4.52733 13.0724 4.686C12.6431 4.84467 12.2791 5.05467 11.9804 5.316L11.5324 4.574C11.9057 4.25667 12.3537 4.014 12.8764 3.846C13.3991 3.66867 13.9497 3.58 14.5284 3.58C15.4804 3.58 16.2131 3.818 16.7264 4.294C17.2491 4.76067 17.5104 5.47467 17.5104 6.436V11H16.5584ZM14.0244 11.07C13.4737 11.07 12.9931 10.9813 12.5824 10.804C12.1811 10.6173 11.8731 10.3653 11.6584 10.048C11.4437 9.72133 11.3364 9.348 11.3364 8.928C11.3364 8.54533 11.4251 8.2 11.6024 7.892C11.7891 7.57467 12.0877 7.32267 12.4984 7.136C12.9184 6.94 13.4784 6.842 14.1784 6.842H16.7124V7.584H14.2064C13.4971 7.584 13.0024 7.71 12.7224 7.962C12.4517 8.214 12.3164 8.52667 12.3164 8.9C12.3164 9.32 12.4797 9.656 12.8064 9.908C13.1331 10.16 13.5904 10.286 14.1784 10.286C14.7384 10.286 15.2191 10.16 15.6204 9.908C16.0311 9.64667 16.3297 9.27333 16.5164 8.788L16.7404 9.474C16.5537 9.95933 16.2271 10.3467 15.7604 10.636C15.3031 10.9253 14.7244 11.07 14.0244 11.07ZM22.1842 11.07C21.5776 11.07 21.0036 10.986 20.4622 10.818C19.9209 10.6407 19.4962 10.4213 19.1882 10.16L19.6362 9.376C19.9349 9.6 20.3176 9.796 20.7842 9.964C21.2509 10.1227 21.7409 10.202 22.2542 10.202C22.9542 10.202 23.4582 10.0947 23.7662 9.88C24.0742 9.656 24.2282 9.362 24.2282 8.998C24.2282 8.72733 24.1396 8.51733 23.9622 8.368C23.7942 8.20933 23.5702 8.09267 23.2902 8.018C23.0102 7.934 22.6976 7.864 22.3522 7.808C22.0069 7.752 21.6616 7.68667 21.3162 7.612C20.9802 7.53733 20.6722 7.43 20.3922 7.29C20.1122 7.14067 19.8836 6.94 19.7062 6.688C19.5382 6.436 19.4542 6.1 19.4542 5.68C19.4542 5.27867 19.5662 4.91933 19.7902 4.602C20.0142 4.28467 20.3409 4.03733 20.7702 3.86C21.2089 3.67333 21.7409 3.58 22.3662 3.58C22.8422 3.58 23.3182 3.64533 23.7942 3.776C24.2702 3.89733 24.6622 4.06067 24.9702 4.266L24.5362 5.064C24.2096 4.84 23.8596 4.68133 23.4862 4.588C23.1129 4.48533 22.7396 4.434 22.3662 4.434C21.7036 4.434 21.2136 4.55067 20.8962 4.784C20.5882 5.008 20.4342 5.29733 20.4342 5.652C20.4342 5.932 20.5182 6.15133 20.6862 6.31C20.8636 6.46867 21.0922 6.59467 21.3722 6.688C21.6616 6.772 21.9742 6.842 22.3102 6.898C22.6556 6.954 22.9962 7.024 23.3322 7.108C23.6776 7.18267 23.9902 7.29 24.2702 7.43C24.5596 7.56067 24.7882 7.752 24.9562 8.004C25.1336 8.24667 25.2222 8.56867 25.2222 8.97C25.2222 9.39933 25.1009 9.77267 24.8582 10.09C24.6249 10.398 24.2796 10.6407 23.8222 10.818C23.3742 10.986 22.8282 11.07 22.1842 11.07ZM30.7982 3.58C31.3955 3.58 31.9182 3.69667 32.3662 3.93C32.8235 4.154 33.1782 4.49933 33.4302 4.966C33.6915 5.43267 33.8222 6.02067 33.8222 6.73V11H32.8282V6.828C32.8282 6.05333 32.6322 5.47 32.2402 5.078C31.8575 4.67667 31.3162 4.476 30.6162 4.476C30.0935 4.476 29.6362 4.58333 29.2442 4.798C28.8615 5.00333 28.5628 5.30667 28.3482 5.708C28.1428 6.1 28.0402 6.576 28.0402 7.136V11H27.0462V0.611999H28.0402V5.666L27.8442 5.288C28.0775 4.756 28.4508 4.34067 28.9642 4.042C29.4775 3.734 30.0888 3.58 30.7982 3.58ZM40.3011 11.07C39.6571 11.07 39.0784 10.9253 38.5651 10.636C38.0518 10.3373 37.6458 9.908 37.3471 9.348C37.0484 8.788 36.8991 8.11133 36.8991 7.318C36.8991 6.51533 37.0484 5.83867 37.3471 5.288C37.6551 4.728 38.0658 4.30333 38.5791 4.014C39.0924 3.72467 39.6664 3.58 40.3011 3.58C41.0011 3.58 41.6264 3.73867 42.1771 4.056C42.7371 4.364 43.1758 4.798 43.4931 5.358C43.8104 5.918 43.9691 6.57133 43.9691 7.318C43.9691 8.05533 43.8104 8.70867 43.4931 9.278C43.1758 9.838 42.7371 10.2767 42.1771 10.594C41.6264 10.9113 41.0011 11.07 40.3011 11.07ZM36.5071 11V0.611999H37.5011V5.82L37.3611 7.304L37.4591 8.788V11H36.5071ZM40.2311 10.188C40.7538 10.188 41.2204 10.0713 41.6311 9.838C42.0418 9.59533 42.3684 9.25933 42.6111 8.83C42.8538 8.39133 42.9751 7.88733 42.9751 7.318C42.9751 6.73933 42.8538 6.23533 42.6111 5.806C42.3684 5.37667 42.0418 5.04533 41.6311 4.812C41.2204 4.56933 40.7538 4.448 40.2311 4.448C39.7084 4.448 39.2371 4.56933 38.8171 4.812C38.4064 5.04533 38.0798 5.37667 37.8371 5.806C37.6038 6.23533 37.4871 6.73933 37.4871 7.318C37.4871 7.88733 37.6038 8.39133 37.8371 8.83C38.0798 9.25933 38.4064 9.59533 38.8171 9.838C39.2371 10.0713 39.7084 10.188 40.2311 10.188ZM48.9914 11.07C48.282 11.07 47.6427 10.9113 47.0734 10.594C46.5134 10.2673 46.07 9.824 45.7434 9.264C45.4167 8.69467 45.2534 8.046 45.2534 7.318C45.2534 6.58067 45.4167 5.932 45.7434 5.372C46.07 4.812 46.5134 4.37333 47.0734 4.056C47.6334 3.73867 48.2727 3.58 48.9914 3.58C49.7194 3.58 50.3634 3.73867 50.9234 4.056C51.4927 4.37333 51.936 4.812 52.2534 5.372C52.58 5.932 52.7434 6.58067 52.7434 7.318C52.7434 8.046 52.58 8.69467 52.2534 9.264C51.936 9.824 51.4927 10.2673 50.9234 10.594C50.354 10.9113 49.71 11.07 48.9914 11.07ZM48.9914 10.188C49.5234 10.188 49.9947 10.0713 50.4054 9.838C50.816 9.59533 51.138 9.25933 51.3714 8.83C51.614 8.39133 51.7354 7.88733 51.7354 7.318C51.7354 6.73933 51.614 6.23533 51.3714 5.806C51.138 5.37667 50.816 5.04533 50.4054 4.812C49.9947 4.56933 49.528 4.448 49.0054 4.448C48.4827 4.448 48.016 4.56933 47.6054 4.812C47.1947 5.04533 46.868 5.37667 46.6254 5.806C46.3827 6.23533 46.2614 6.73933 46.2614 7.318C46.2614 7.88733 46.3827 8.39133 46.6254 8.83C46.868 9.25933 47.1947 9.59533 47.6054 9.838C48.016 10.0713 48.478 10.188 48.9914 10.188ZM59.3377 11V9.376L59.2957 9.11V6.394C59.2957 5.76867 59.1184 5.288 58.7637 4.952C58.4184 4.616 57.9004 4.448 57.2097 4.448C56.7337 4.448 56.281 4.52733 55.8517 4.686C55.4224 4.84467 55.0584 5.05467 54.7597 5.316L54.3117 4.574C54.685 4.25667 55.133 4.014 55.6557 3.846C56.1784 3.66867 56.729 3.58 57.3077 3.58C58.2597 3.58 58.9924 3.818 59.5057 4.294C60.0284 4.76067 60.2897 5.47467 60.2897 6.436V11H59.3377ZM56.8037 11.07C56.253 11.07 55.7724 10.9813 55.3617 10.804C54.9604 10.6173 54.6524 10.3653 54.4377 10.048C54.223 9.72133 54.1157 9.348 54.1157 8.928C54.1157 8.54533 54.2044 8.2 54.3817 7.892C54.5684 7.57467 54.867 7.32267 55.2777 7.136C55.6977 6.94 56.2577 6.842 56.9577 6.842H59.4917V7.584H56.9857C56.2764 7.584 55.7817 7.71 55.5017 7.962C55.231 8.214 55.0957 8.52667 55.0957 8.9C55.0957 9.32 55.259 9.656 55.5857 9.908C55.9124 10.16 56.3697 10.286 56.9577 10.286C57.5177 10.286 57.9984 10.16 58.3997 9.908C58.8104 9.64667 59.109 9.27333 59.2957 8.788L59.5197 9.474C59.333 9.95933 59.0064 10.3467 58.5397 10.636C58.0824 10.9253 57.5037 11.07 56.8037 11.07ZM62.9895 11V3.65H63.9415V5.652L63.8435 5.302C64.0488 4.742 64.3942 4.31733 64.8795 4.028C65.3648 3.72933 65.9668 3.58 66.6855 3.58V4.546C66.6482 4.546 66.6108 4.546 66.5735 4.546C66.5362 4.53667 66.4988 4.532 66.4615 4.532C65.6868 4.532 65.0802 4.77 64.6415 5.246C64.2028 5.71267 63.9835 6.38 63.9835 7.248V11H62.9895ZM71.3569 11.07C70.6569 11.07 70.0269 10.9113 69.4669 10.594C68.9163 10.2767 68.4823 9.838 68.1649 9.278C67.8476 8.70867 67.6889 8.05533 67.6889 7.318C67.6889 6.57133 67.8476 5.918 68.1649 5.358C68.4823 4.798 68.9163 4.364 69.4669 4.056C70.0269 3.73867 70.6569 3.58 71.3569 3.58C72.0009 3.58 72.5749 3.72467 73.0789 4.014C73.5923 4.30333 73.9983 4.728 74.2969 5.288C74.6049 5.83867 74.7589 6.51533 74.7589 7.318C74.7589 8.11133 74.6096 8.788 74.3109 9.348C74.0123 9.908 73.6063 10.3373 73.0929 10.636C72.5889 10.9253 72.0103 11.07 71.3569 11.07ZM71.4269 10.188C71.9496 10.188 72.4163 10.0713 72.8269 9.838C73.2469 9.59533 73.5736 9.25933 73.8069 8.83C74.0496 8.39133 74.1709 7.88733 74.1709 7.318C74.1709 6.73933 74.0496 6.23533 73.8069 5.806C73.5736 5.37667 73.2469 5.04533 72.8269 4.812C72.4163 4.56933 71.9496 4.448 71.4269 4.448C70.9136 4.448 70.4516 4.56933 70.0409 4.812C69.6303 5.04533 69.3036 5.37667 69.0609 5.806C68.8183 6.23533 68.6969 6.73933 68.6969 7.318C68.6969 7.88733 68.8183 8.39133 69.0609 8.83C69.3036 9.25933 69.6303 9.59533 70.0409 9.838C70.4516 10.0713 70.9136 10.188 71.4269 10.188ZM74.1989 11V8.788L74.2969 7.304L74.1569 5.82V0.611999H75.1509V11H74.1989ZM81.1773 8.998V8.13L86.9033 5.876V6.324L81.1773 4.07V3.202L87.2673 5.638V6.562L81.1773 8.998ZM89.23 8.998V8.13L94.956 5.876V6.324L89.23 4.07V3.202L95.32 5.638V6.562L89.23 8.998ZM101.563 11V1.2H102.417L106.897 8.844H106.449L110.887 1.2H111.741V11H110.747V2.754H110.985L106.897 9.754H106.407L102.291 2.754H102.557V11H101.563ZM114.78 13.786C114.435 13.786 114.103 13.73 113.786 13.618C113.478 13.506 113.212 13.338 112.988 13.114L113.45 12.372C113.637 12.5493 113.837 12.6847 114.052 12.778C114.276 12.8807 114.523 12.932 114.794 12.932C115.121 12.932 115.401 12.8387 115.634 12.652C115.877 12.4747 116.105 12.1573 116.32 11.7L116.796 10.622L116.908 10.468L119.932 3.65H120.912L117.23 11.882C117.025 12.358 116.796 12.736 116.544 13.016C116.301 13.296 116.035 13.492 115.746 13.604C115.457 13.7253 115.135 13.786 114.78 13.786ZM116.74 11.21L113.352 3.65H114.388L117.384 10.398L116.74 11.21ZM130.442 11.084C129.705 11.084 129.023 10.9627 128.398 10.72C127.773 10.468 127.231 10.118 126.774 9.67C126.317 9.222 125.957 8.69467 125.696 8.088C125.444 7.48133 125.318 6.81867 125.318 6.1C125.318 5.38133 125.444 4.71867 125.696 4.112C125.957 3.50533 126.317 2.978 126.774 2.53C127.241 2.082 127.787 1.73667 128.412 1.494C129.037 1.242 129.719 1.116 130.456 1.116C131.165 1.116 131.833 1.23733 132.458 1.48C133.083 1.71333 133.611 2.068 134.04 2.544L133.382 3.202C132.981 2.79133 132.537 2.49733 132.052 2.32C131.567 2.13333 131.044 2.04 130.484 2.04C129.896 2.04 129.35 2.14267 128.846 2.348C128.342 2.544 127.903 2.82867 127.53 3.202C127.157 3.566 126.863 3.99533 126.648 4.49C126.443 4.97533 126.34 5.512 126.34 6.1C126.34 6.688 126.443 7.22933 126.648 7.724C126.863 8.20933 127.157 8.63867 127.53 9.012C127.903 9.376 128.342 9.66067 128.846 9.866C129.35 10.062 129.896 10.16 130.484 10.16C131.044 10.16 131.567 10.0667 132.052 9.88C132.537 9.69333 132.981 9.39467 133.382 8.984L134.04 9.642C133.611 10.118 133.083 10.4773 132.458 10.72C131.833 10.9627 131.161 11.084 130.442 11.084ZM139.79 3.58C140.388 3.58 140.91 3.69667 141.358 3.93C141.816 4.154 142.17 4.49933 142.422 4.966C142.684 5.43267 142.814 6.02067 142.814 6.73V11H141.82V6.828C141.82 6.05333 141.624 5.47 141.232 5.078C140.85 4.67667 140.308 4.476 139.608 4.476C139.086 4.476 138.628 4.58333 138.236 4.798C137.854 5.00333 137.555 5.30667 137.34 5.708C137.135 6.1 137.032 6.576 137.032 7.136V11H136.038V0.611999H137.032V5.666L136.836 5.288C137.07 4.756 137.443 4.34067 137.956 4.042C138.47 3.734 139.081 3.58 139.79 3.58ZM148.495 11.07C147.786 11.07 147.147 10.9113 146.577 10.594C146.017 10.2673 145.574 9.824 145.247 9.264C144.921 8.69467 144.757 8.046 144.757 7.318C144.757 6.58067 144.921 5.932 145.247 5.372C145.574 4.812 146.017 4.37333 146.577 4.056C147.137 3.73867 147.777 3.58 148.495 3.58C149.223 3.58 149.867 3.73867 150.427 4.056C150.997 4.37333 151.44 4.812 151.757 5.372C152.084 5.932 152.247 6.58067 152.247 7.318C152.247 8.046 152.084 8.69467 151.757 9.264C151.44 9.824 150.997 10.2673 150.427 10.594C149.858 10.9113 149.214 11.07 148.495 11.07ZM148.495 10.188C149.027 10.188 149.499 10.0713 149.909 9.838C150.32 9.59533 150.642 9.25933 150.875 8.83C151.118 8.39133 151.239 7.88733 151.239 7.318C151.239 6.73933 151.118 6.23533 150.875 5.806C150.642 5.37667 150.32 5.04533 149.909 4.812C149.499 4.56933 149.032 4.448 148.509 4.448C147.987 4.448 147.52 4.56933 147.109 4.812C146.699 5.04533 146.372 5.37667 146.129 5.806C145.887 6.23533 145.765 6.73933 145.765 7.318C145.765 7.88733 145.887 8.39133 146.129 8.83C146.372 9.25933 146.699 9.59533 147.109 9.838C147.52 10.0713 147.982 10.188 148.495 10.188ZM154.277 11V3.65H155.271V11H154.277ZM154.781 2.026C154.575 2.026 154.403 1.956 154.263 1.816C154.123 1.676 154.053 1.508 154.053 1.312C154.053 1.116 154.123 0.952666 154.263 0.821999C154.403 0.681999 154.575 0.611999 154.781 0.611999C154.986 0.611999 155.159 0.677333 155.299 0.807999C155.439 0.938666 155.509 1.102 155.509 1.298C155.509 1.50333 155.439 1.676 155.299 1.816C155.168 1.956 154.995 2.026 154.781 2.026ZM161.088 11.07C160.36 11.07 159.707 10.9113 159.128 10.594C158.559 10.2673 158.111 9.824 157.784 9.264C157.458 8.69467 157.294 8.046 157.294 7.318C157.294 6.58067 157.458 5.932 157.784 5.372C158.111 4.812 158.559 4.37333 159.128 4.056C159.707 3.73867 160.36 3.58 161.088 3.58C161.714 3.58 162.278 3.70133 162.782 3.944C163.286 4.18667 163.683 4.55067 163.972 5.036L163.23 5.54C162.978 5.16667 162.666 4.89133 162.292 4.714C161.919 4.53667 161.513 4.448 161.074 4.448C160.552 4.448 160.08 4.56933 159.66 4.812C159.24 5.04533 158.909 5.37667 158.666 5.806C158.424 6.23533 158.302 6.73933 158.302 7.318C158.302 7.89667 158.424 8.40067 158.666 8.83C158.909 9.25933 159.24 9.59533 159.66 9.838C160.08 10.0713 160.552 10.188 161.074 10.188C161.513 10.188 161.919 10.0993 162.292 9.922C162.666 9.74467 162.978 9.474 163.23 9.11L163.972 9.614C163.683 10.09 163.286 10.454 162.782 10.706C162.278 10.9487 161.714 11.07 161.088 11.07ZM168.924 11.07C168.159 11.07 167.487 10.9113 166.908 10.594C166.329 10.2673 165.877 9.824 165.55 9.264C165.223 8.69467 165.06 8.046 165.06 7.318C165.06 6.59 165.214 5.946 165.522 5.386C165.839 4.826 166.269 4.38733 166.81 4.07C167.361 3.74333 167.977 3.58 168.658 3.58C169.349 3.58 169.96 3.73867 170.492 4.056C171.033 4.364 171.458 4.80267 171.766 5.372C172.074 5.932 172.228 6.58067 172.228 7.318C172.228 7.36467 172.223 7.416 172.214 7.472C172.214 7.51867 172.214 7.57 172.214 7.626H165.816V6.884H171.682L171.29 7.178C171.29 6.646 171.173 6.17467 170.94 5.764C170.716 5.344 170.408 5.01733 170.016 4.784C169.624 4.55067 169.171 4.434 168.658 4.434C168.154 4.434 167.701 4.55067 167.3 4.784C166.899 5.01733 166.586 5.344 166.362 5.764C166.138 6.184 166.026 6.66467 166.026 7.206V7.36C166.026 7.92 166.147 8.41467 166.39 8.844C166.642 9.264 166.987 9.59533 167.426 9.838C167.874 10.0713 168.383 10.188 168.952 10.188C169.4 10.188 169.815 10.1087 170.198 9.95C170.59 9.79133 170.926 9.54867 171.206 9.222L171.766 9.866C171.439 10.258 171.029 10.5567 170.534 10.762C170.049 10.9673 169.512 11.07 168.924 11.07ZM176.225 11.07C175.619 11.07 175.045 10.986 174.503 10.818C173.962 10.6407 173.537 10.4213 173.229 10.16L173.677 9.376C173.976 9.6 174.359 9.796 174.825 9.964C175.292 10.1227 175.782 10.202 176.295 10.202C176.995 10.202 177.499 10.0947 177.807 9.88C178.115 9.656 178.269 9.362 178.269 8.998C178.269 8.72733 178.181 8.51733 178.003 8.368C177.835 8.20933 177.611 8.09267 177.331 8.018C177.051 7.934 176.739 7.864 176.393 7.808C176.048 7.752 175.703 7.68667 175.357 7.612C175.021 7.53733 174.713 7.43 174.433 7.29C174.153 7.14067 173.925 6.94 173.747 6.688C173.579 6.436 173.495 6.1 173.495 5.68C173.495 5.27867 173.607 4.91933 173.831 4.602C174.055 4.28467 174.382 4.03733 174.811 3.86C175.25 3.67333 175.782 3.58 176.407 3.58C176.883 3.58 177.359 3.64533 177.835 3.776C178.311 3.89733 178.703 4.06067 179.011 4.266L178.577 5.064C178.251 4.84 177.901 4.68133 177.527 4.588C177.154 4.48533 176.781 4.434 176.407 4.434C175.745 4.434 175.255 4.55067 174.937 4.784C174.629 5.008 174.475 5.29733 174.475 5.652C174.475 5.932 174.559 6.15133 174.727 6.31C174.905 6.46867 175.133 6.59467 175.413 6.688C175.703 6.772 176.015 6.842 176.351 6.898C176.697 6.954 177.037 7.024 177.373 7.108C177.719 7.18267 178.031 7.29 178.311 7.43C178.601 7.56067 178.829 7.752 178.997 8.004C179.175 8.24667 179.263 8.56867 179.263 8.97C179.263 9.39933 179.142 9.77267 178.899 10.09C178.666 10.398 178.321 10.6407 177.863 10.818C177.415 10.986 176.869 11.07 176.225 11.07ZM184.345 8.998V8.13L190.071 5.876V6.324L184.345 4.07V3.202L190.435 5.638V6.562L184.345 8.998ZM192.398 8.998V8.13L198.124 5.876V6.324L192.398 4.07V3.202L198.488 5.638V6.562L192.398 8.998Z" fill="#A3A3A3"/>
<path d="M205.865 5.834H210.919V7.038H205.865V5.834ZM206.005 11H204.605V1.2H211.521V2.418H206.005V11ZM213.295 11V3.58H214.639V11H213.295ZM213.967 2.152C213.706 2.152 213.487 2.068 213.309 1.9C213.141 1.732 213.057 1.52667 213.057 1.284C213.057 1.032 213.141 0.822 213.309 0.654C213.487 0.486 213.706 0.402 213.967 0.402C214.229 0.402 214.443 0.486 214.611 0.654C214.789 0.812666 214.877 1.01333 214.877 1.256C214.877 1.508 214.793 1.72267 214.625 1.9C214.457 2.068 214.238 2.152 213.967 2.152ZM221.168 3.51C221.774 3.51 222.306 3.62667 222.764 3.86C223.23 4.09333 223.594 4.448 223.856 4.924C224.117 5.4 224.248 6.002 224.248 6.73V11H222.904V6.884C222.904 6.16533 222.726 5.624 222.372 5.26C222.026 4.896 221.536 4.714 220.902 4.714C220.426 4.714 220.01 4.80733 219.656 4.994C219.301 5.18067 219.026 5.456 218.83 5.82C218.643 6.184 218.55 6.63667 218.55 7.178V11H217.206V3.58H218.494V5.582L218.284 5.05C218.526 4.56467 218.9 4.18667 219.404 3.916C219.908 3.64533 220.496 3.51 221.168 3.51ZM226.735 11V3.58H228.079V11H226.735ZM227.407 2.152C227.146 2.152 226.926 2.068 226.749 1.9C226.581 1.732 226.497 1.52667 226.497 1.284C226.497 1.032 226.581 0.822 226.749 0.654C226.926 0.486 227.146 0.402 227.407 0.402C227.668 0.402 227.883 0.486 228.051 0.654C228.228 0.812666 228.317 1.01333 228.317 1.256C228.317 1.508 228.233 1.72267 228.065 1.9C227.897 2.068 227.678 2.152 227.407 2.152ZM232.773 11.084C232.157 11.084 231.569 11 231.009 10.832C230.458 10.664 230.024 10.4587 229.707 10.216L230.267 9.152C230.584 9.36667 230.976 9.54867 231.443 9.698C231.91 9.84733 232.386 9.922 232.871 9.922C233.496 9.922 233.944 9.83333 234.215 9.656C234.495 9.47867 234.635 9.23133 234.635 8.914C234.635 8.68067 234.551 8.49867 234.383 8.368C234.215 8.23733 233.991 8.13933 233.711 8.074C233.44 8.00867 233.137 7.95267 232.801 7.906C232.465 7.85 232.129 7.78467 231.793 7.71C231.457 7.626 231.149 7.514 230.869 7.374C230.589 7.22467 230.365 7.024 230.197 6.772C230.029 6.51067 229.945 6.16533 229.945 5.736C229.945 5.288 230.071 4.896 230.323 4.56C230.575 4.224 230.93 3.96733 231.387 3.79C231.854 3.60333 232.404 3.51 233.039 3.51C233.524 3.51 234.014 3.57067 234.509 3.692C235.013 3.804 235.424 3.96733 235.741 4.182L235.167 5.246C234.831 5.022 234.481 4.868 234.117 4.784C233.753 4.7 233.389 4.658 233.025 4.658C232.437 4.658 231.998 4.756 231.709 4.952C231.42 5.13867 231.275 5.38133 231.275 5.68C231.275 5.932 231.359 6.128 231.527 6.268C231.704 6.39867 231.928 6.50133 232.199 6.576C232.479 6.65067 232.787 6.716 233.123 6.772C233.459 6.81867 233.795 6.884 234.131 6.968C234.467 7.04267 234.77 7.15 235.041 7.29C235.321 7.43 235.545 7.626 235.713 7.878C235.89 8.13 235.979 8.466 235.979 8.886C235.979 9.334 235.848 9.72133 235.587 10.048C235.326 10.3747 234.957 10.6313 234.481 10.818C234.005 10.9953 233.436 11.084 232.773 11.084ZM241.621 3.51C242.227 3.51 242.759 3.62667 243.217 3.86C243.683 4.09333 244.047 4.448 244.309 4.924C244.57 5.4 244.701 6.002 244.701 6.73V11H243.357V6.884C243.357 6.16533 243.179 5.624 242.825 5.26C242.479 4.896 241.989 4.714 241.355 4.714C240.879 4.714 240.463 4.80733 240.109 4.994C239.754 5.18067 239.479 5.456 239.283 5.82C239.096 6.184 239.003 6.63667 239.003 7.178V11H237.659V0.611999H239.003V5.582L238.737 5.05C238.979 4.56467 239.353 4.18667 239.857 3.916C240.361 3.64533 240.949 3.51 241.621 3.51ZM250.492 11.084C249.699 11.084 248.999 10.9207 248.392 10.594C247.795 10.2673 247.328 9.81933 246.992 9.25C246.665 8.68067 246.502 8.02733 246.502 7.29C246.502 6.55267 246.661 5.89933 246.978 5.33C247.305 4.76067 247.748 4.31733 248.308 4C248.877 3.67333 249.517 3.51 250.226 3.51C250.945 3.51 251.579 3.66867 252.13 3.986C252.681 4.30333 253.11 4.75133 253.418 5.33C253.735 5.89933 253.894 6.56667 253.894 7.332C253.894 7.388 253.889 7.45333 253.88 7.528C253.88 7.60267 253.875 7.67267 253.866 7.738H247.552V6.772H253.166L252.62 7.108C252.629 6.632 252.531 6.20733 252.326 5.834C252.121 5.46067 251.836 5.17133 251.472 4.966C251.117 4.75133 250.702 4.644 250.226 4.644C249.759 4.644 249.344 4.75133 248.98 4.966C248.616 5.17133 248.331 5.46533 248.126 5.848C247.921 6.22133 247.818 6.65067 247.818 7.136V7.36C247.818 7.85467 247.93 8.298 248.154 8.69C248.387 9.07267 248.709 9.37133 249.12 9.586C249.531 9.80067 250.002 9.908 250.534 9.908C250.973 9.908 251.369 9.83333 251.724 9.684C252.088 9.53467 252.405 9.31067 252.676 9.012L253.418 9.88C253.082 10.272 252.662 10.5707 252.158 10.776C251.663 10.9813 251.108 11.084 250.492 11.084ZM257.888 11.084C257.272 11.084 256.684 11 256.124 10.832C255.574 10.664 255.14 10.4587 254.822 10.216L255.382 9.152C255.7 9.36667 256.092 9.54867 256.558 9.698C257.025 9.84733 257.501 9.922 257.986 9.922C258.612 9.922 259.06 9.83333 259.33 9.656C259.61 9.47867 259.75 9.23133 259.75 8.914C259.75 8.68067 259.666 8.49867 259.498 8.368C259.33 8.23733 259.106 8.13933 258.826 8.074C258.556 8.00867 258.252 7.95267 257.916 7.906C257.58 7.85 257.244 7.78467 256.908 7.71C256.572 7.626 256.264 7.514 255.984 7.374C255.704 7.22467 255.48 7.024 255.312 6.772C255.144 6.51067 255.06 6.16533 255.06 5.736C255.06 5.288 255.186 4.896 255.438 4.56C255.69 4.224 256.045 3.96733 256.502 3.79C256.969 3.60333 257.52 3.51 258.154 3.51C258.64 3.51 259.13 3.57067 259.624 3.692C260.128 3.804 260.539 3.96733 260.856 4.182L260.282 5.246C259.946 5.022 259.596 4.868 259.232 4.784C258.868 4.7 258.504 4.658 258.14 4.658C257.552 4.658 257.114 4.756 256.824 4.952C256.535 5.13867 256.39 5.38133 256.39 5.68C256.39 5.932 256.474 6.128 256.642 6.268C256.82 6.39867 257.044 6.50133 257.314 6.576C257.594 6.65067 257.902 6.716 258.238 6.772C258.574 6.81867 258.91 6.884 259.246 6.968C259.582 7.04267 259.886 7.15 260.156 7.29C260.436 7.43 260.66 7.626 260.828 7.878C261.006 8.13 261.094 8.466 261.094 8.886C261.094 9.334 260.964 9.72133 260.702 10.048C260.441 10.3747 260.072 10.6313 259.596 10.818C259.12 10.9953 258.551 11.084 257.888 11.084Z" fill="#1A1A1A"/>
</svg>
