<svg width="81" height="35" viewBox="0 0 81 35" fill="none" xmlns="http://www.w3.org/2000/svg">
<g opacity="0.4">
<rect width="81" height="35" rx="8" fill="#E6E6F3"/>
<path d="M19.4433 22L16.6953 13.6H18.7113L21.0993 21.04H20.0913L22.5873 13.6H24.3873L26.7873 21.04H25.8153L28.2633 13.6H30.1233L27.3753 22H25.2873L23.1633 15.472H23.7153L21.5313 22H19.4433ZM30.6633 22L34.4073 13.6H36.3273L40.0833 22H38.0433L34.9713 14.584H35.7393L32.6553 22H30.6633ZM32.5353 20.2L33.0513 18.724H37.3713L37.8993 20.2H32.5353ZM41.7948 22V13.6H43.7388V20.416H47.9508V22H41.7948ZM49.877 22V13.6H51.821V20.416H56.033V22H49.877ZM60.6723 22.144C60.0003 22.144 59.3563 22.056 58.7403 21.88C58.1243 21.696 57.6283 21.46 57.2523 21.172L57.9123 19.708C58.2723 19.964 58.6963 20.176 59.1843 20.344C59.6803 20.504 60.1803 20.584 60.6843 20.584C61.0683 20.584 61.3763 20.548 61.6083 20.476C61.8483 20.396 62.0243 20.288 62.1363 20.152C62.2483 20.016 62.3043 19.86 62.3043 19.684C62.3043 19.46 62.2163 19.284 62.0403 19.156C61.8643 19.02 61.6323 18.912 61.3443 18.832C61.0563 18.744 60.7363 18.664 60.3843 18.592C60.0403 18.512 59.6923 18.416 59.3403 18.304C58.9963 18.192 58.6803 18.048 58.3923 17.872C58.1043 17.696 57.8683 17.464 57.6843 17.176C57.5083 16.888 57.4203 16.52 57.4203 16.072C57.4203 15.592 57.5483 15.156 57.8043 14.764C58.0683 14.364 58.4603 14.048 58.9803 13.816C59.5083 13.576 60.1683 13.456 60.9603 13.456C61.4883 13.456 62.0083 13.52 62.5203 13.648C63.0323 13.768 63.4843 13.952 63.8763 14.2L63.2763 15.676C62.8843 15.452 62.4923 15.288 62.1003 15.184C61.7083 15.072 61.3243 15.016 60.9483 15.016C60.5723 15.016 60.2643 15.06 60.0243 15.148C59.7843 15.236 59.6123 15.352 59.5083 15.496C59.4043 15.632 59.3523 15.792 59.3523 15.976C59.3523 16.192 59.4403 16.368 59.6163 16.504C59.7923 16.632 60.0243 16.736 60.3123 16.816C60.6003 16.896 60.9163 16.976 61.2603 17.056C61.6123 17.136 61.9603 17.228 62.3043 17.332C62.6563 17.436 62.9763 17.576 63.2643 17.752C63.5523 17.928 63.7843 18.16 63.9603 18.448C64.1443 18.736 64.2363 19.1 64.2363 19.54C64.2363 20.012 64.1043 20.444 63.8403 20.836C63.5763 21.228 63.1803 21.544 62.6523 21.784C62.1323 22.024 61.4723 22.144 60.6723 22.144Z" fill="#7E79A3"/>
</g>
</svg>
