<svg width="176" height="35" viewBox="0 0 176 35" fill="none" xmlns="http://www.w3.org/2000/svg">
<rect width="176" height="35" rx="8" fill="#E6E6F3"/>
<path d="M19.2537 17.38H23.2857V18.94H19.2537V17.38ZM19.3977 22H17.4537V13.6H23.8017V15.16H19.3977V22ZM25.9578 22V13.6H27.9018V20.416H32.1138V22H25.9578ZM37.9794 22.144C37.3154 22.144 36.6994 22.036 36.1314 21.82C35.5714 21.604 35.0834 21.3 34.6674 20.908C34.2594 20.516 33.9394 20.056 33.7074 19.528C33.4834 19 33.3714 18.424 33.3714 17.8C33.3714 17.176 33.4834 16.6 33.7074 16.072C33.9394 15.544 34.2634 15.084 34.6794 14.692C35.0954 14.3 35.5834 13.996 36.1434 13.78C36.7034 13.564 37.3114 13.456 37.9674 13.456C38.6314 13.456 39.2394 13.564 39.7914 13.78C40.3514 13.996 40.8354 14.3 41.2434 14.692C41.6594 15.084 41.9834 15.544 42.2154 16.072C42.4474 16.592 42.5634 17.168 42.5634 17.8C42.5634 18.424 42.4474 19.004 42.2154 19.54C41.9834 20.068 41.6594 20.528 41.2434 20.92C40.8354 21.304 40.3514 21.604 39.7914 21.82C39.2394 22.036 38.6354 22.144 37.9794 22.144ZM37.9674 20.488C38.3434 20.488 38.6874 20.424 38.9994 20.296C39.3194 20.168 39.5994 19.984 39.8394 19.744C40.0794 19.504 40.2634 19.22 40.3914 18.892C40.5274 18.564 40.5954 18.2 40.5954 17.8C40.5954 17.4 40.5274 17.036 40.3914 16.708C40.2634 16.38 40.0794 16.096 39.8394 15.856C39.6074 15.616 39.3314 15.432 39.0114 15.304C38.6914 15.176 38.3434 15.112 37.9674 15.112C37.5914 15.112 37.2434 15.176 36.9234 15.304C36.6114 15.432 36.3354 15.616 36.0954 15.856C35.8554 16.096 35.6674 16.38 35.5314 16.708C35.4034 17.036 35.3394 17.4 35.3394 17.8C35.3394 18.192 35.4034 18.556 35.5314 18.892C35.6674 19.22 35.8514 19.504 36.0834 19.744C36.3234 19.984 36.6034 20.168 36.9234 20.296C37.2434 20.424 37.5914 20.488 37.9674 20.488ZM48.9444 22.144C48.2804 22.144 47.6644 22.036 47.0964 21.82C46.5364 21.604 46.0484 21.3 45.6324 20.908C45.2244 20.516 44.9044 20.056 44.6724 19.528C44.4484 19 44.3364 18.424 44.3364 17.8C44.3364 17.176 44.4484 16.6 44.6724 16.072C44.9044 15.544 45.2284 15.084 45.6444 14.692C46.0604 14.3 46.5484 13.996 47.1084 13.78C47.6684 13.564 48.2764 13.456 48.9324 13.456C49.5964 13.456 50.2044 13.564 50.7564 13.78C51.3164 13.996 51.8004 14.3 52.2084 14.692C52.6244 15.084 52.9484 15.544 53.1804 16.072C53.4124 16.592 53.5284 17.168 53.5284 17.8C53.5284 18.424 53.4124 19.004 53.1804 19.54C52.9484 20.068 52.6244 20.528 52.2084 20.92C51.8004 21.304 51.3164 21.604 50.7564 21.82C50.2044 22.036 49.6004 22.144 48.9444 22.144ZM48.9324 20.488C49.3084 20.488 49.6524 20.424 49.9644 20.296C50.2844 20.168 50.5644 19.984 50.8044 19.744C51.0444 19.504 51.2284 19.22 51.3564 18.892C51.4924 18.564 51.5604 18.2 51.5604 17.8C51.5604 17.4 51.4924 17.036 51.3564 16.708C51.2284 16.38 51.0444 16.096 50.8044 15.856C50.5724 15.616 50.2964 15.432 49.9764 15.304C49.6564 15.176 49.3084 15.112 48.9324 15.112C48.5564 15.112 48.2084 15.176 47.8884 15.304C47.5764 15.432 47.3004 15.616 47.0604 15.856C46.8204 16.096 46.6324 16.38 46.4964 16.708C46.3684 17.036 46.3044 17.4 46.3044 17.8C46.3044 18.192 46.3684 18.556 46.4964 18.892C46.6324 19.22 46.8164 19.504 47.0484 19.744C47.2884 19.984 47.5684 20.168 47.8884 20.296C48.2084 20.424 48.5564 20.488 48.9324 20.488ZM55.8294 22V13.6H59.4654C60.2174 13.6 60.8654 13.724 61.4094 13.972C61.9534 14.212 62.3734 14.56 62.6694 15.016C62.9654 15.472 63.1134 16.016 63.1134 16.648C63.1134 17.272 62.9654 17.812 62.6694 18.268C62.3734 18.716 61.9534 19.06 61.4094 19.3C60.8654 19.54 60.2174 19.66 59.4654 19.66H56.9094L57.7734 18.808V22H55.8294ZM61.1694 22L59.0694 18.952H61.1454L63.2694 22H61.1694ZM57.7734 19.024L56.9094 18.112H59.3574C59.9574 18.112 60.4054 17.984 60.7014 17.728C60.9974 17.464 61.1454 17.104 61.1454 16.648C61.1454 16.184 60.9974 15.824 60.7014 15.568C60.4054 15.312 59.9574 15.184 59.3574 15.184H56.9094L57.7734 14.26V19.024ZM68.2536 22.144C67.5816 22.144 66.9376 22.056 66.3216 21.88C65.7056 21.696 65.2096 21.46 64.8336 21.172L65.4936 19.708C65.8536 19.964 66.2776 20.176 66.7656 20.344C67.2616 20.504 67.7616 20.584 68.2656 20.584C68.6496 20.584 68.9576 20.548 69.1896 20.476C69.4296 20.396 69.6056 20.288 69.7176 20.152C69.8296 20.016 69.8856 19.86 69.8856 19.684C69.8856 19.46 69.7976 19.284 69.6216 19.156C69.4456 19.02 69.2136 18.912 68.9256 18.832C68.6376 18.744 68.3176 18.664 67.9656 18.592C67.6216 18.512 67.2736 18.416 66.9216 18.304C66.5776 18.192 66.2616 18.048 65.9736 17.872C65.6856 17.696 65.4496 17.464 65.2656 17.176C65.0896 16.888 65.0016 16.52 65.0016 16.072C65.0016 15.592 65.1296 15.156 65.3856 14.764C65.6496 14.364 66.0416 14.048 66.5616 13.816C67.0896 13.576 67.7496 13.456 68.5416 13.456C69.0696 13.456 69.5896 13.52 70.1016 13.648C70.6136 13.768 71.0656 13.952 71.4576 14.2L70.8576 15.676C70.4656 15.452 70.0736 15.288 69.6816 15.184C69.2896 15.072 68.9056 15.016 68.5296 15.016C68.1536 15.016 67.8456 15.06 67.6056 15.148C67.3656 15.236 67.1936 15.352 67.0896 15.496C66.9856 15.632 66.9336 15.792 66.9336 15.976C66.9336 16.192 67.0216 16.368 67.1976 16.504C67.3736 16.632 67.6056 16.736 67.8936 16.816C68.1816 16.896 68.4976 16.976 68.8416 17.056C69.1936 17.136 69.5416 17.228 69.8856 17.332C70.2376 17.436 70.5576 17.576 70.8456 17.752C71.1336 17.928 71.3656 18.16 71.5416 18.448C71.7256 18.736 71.8176 19.1 71.8176 19.54C71.8176 20.012 71.6856 20.444 71.4216 20.836C71.1576 21.228 70.7616 21.544 70.2336 21.784C69.7136 22.024 69.0536 22.144 68.2536 22.144ZM77.8524 19.372V17.872H81.2484V19.372H77.8524ZM89.7317 17.38H93.7637V18.94H89.7317V17.38ZM89.8757 22H87.9317V13.6H94.2797V15.16H89.8757V22ZM96.4358 22V13.6H98.3798V20.416H102.592V22H96.4358ZM108.457 22.144C107.793 22.144 107.177 22.036 106.609 21.82C106.049 21.604 105.561 21.3 105.145 20.908C104.737 20.516 104.417 20.056 104.185 19.528C103.961 19 103.849 18.424 103.849 17.8C103.849 17.176 103.961 16.6 104.185 16.072C104.417 15.544 104.741 15.084 105.157 14.692C105.573 14.3 106.061 13.996 106.621 13.78C107.181 13.564 107.789 13.456 108.445 13.456C109.109 13.456 109.717 13.564 110.269 13.78C110.829 13.996 111.313 14.3 111.721 14.692C112.137 15.084 112.461 15.544 112.693 16.072C112.925 16.592 113.041 17.168 113.041 17.8C113.041 18.424 112.925 19.004 112.693 19.54C112.461 20.068 112.137 20.528 111.721 20.92C111.313 21.304 110.829 21.604 110.269 21.82C109.717 22.036 109.113 22.144 108.457 22.144ZM108.445 20.488C108.821 20.488 109.165 20.424 109.477 20.296C109.797 20.168 110.077 19.984 110.317 19.744C110.557 19.504 110.741 19.22 110.869 18.892C111.005 18.564 111.073 18.2 111.073 17.8C111.073 17.4 111.005 17.036 110.869 16.708C110.741 16.38 110.557 16.096 110.317 15.856C110.085 15.616 109.809 15.432 109.489 15.304C109.169 15.176 108.821 15.112 108.445 15.112C108.069 15.112 107.721 15.176 107.401 15.304C107.089 15.432 106.813 15.616 106.573 15.856C106.333 16.096 106.145 16.38 106.009 16.708C105.881 17.036 105.817 17.4 105.817 17.8C105.817 18.192 105.881 18.556 106.009 18.892C106.145 19.22 106.329 19.504 106.561 19.744C106.801 19.984 107.081 20.168 107.401 20.296C107.721 20.424 108.069 20.488 108.445 20.488ZM119.422 22.144C118.758 22.144 118.142 22.036 117.574 21.82C117.014 21.604 116.526 21.3 116.11 20.908C115.702 20.516 115.382 20.056 115.15 19.528C114.926 19 114.814 18.424 114.814 17.8C114.814 17.176 114.926 16.6 115.15 16.072C115.382 15.544 115.706 15.084 116.122 14.692C116.538 14.3 117.026 13.996 117.586 13.78C118.146 13.564 118.754 13.456 119.41 13.456C120.074 13.456 120.682 13.564 121.234 13.78C121.794 13.996 122.278 14.3 122.686 14.692C123.102 15.084 123.426 15.544 123.658 16.072C123.89 16.592 124.006 17.168 124.006 17.8C124.006 18.424 123.89 19.004 123.658 19.54C123.426 20.068 123.102 20.528 122.686 20.92C122.278 21.304 121.794 21.604 121.234 21.82C120.682 22.036 120.078 22.144 119.422 22.144ZM119.41 20.488C119.786 20.488 120.13 20.424 120.442 20.296C120.762 20.168 121.042 19.984 121.282 19.744C121.522 19.504 121.706 19.22 121.834 18.892C121.97 18.564 122.038 18.2 122.038 17.8C122.038 17.4 121.97 17.036 121.834 16.708C121.706 16.38 121.522 16.096 121.282 15.856C121.05 15.616 120.774 15.432 120.454 15.304C120.134 15.176 119.786 15.112 119.41 15.112C119.034 15.112 118.686 15.176 118.366 15.304C118.054 15.432 117.778 15.616 117.538 15.856C117.298 16.096 117.11 16.38 116.974 16.708C116.846 17.036 116.782 17.4 116.782 17.8C116.782 18.192 116.846 18.556 116.974 18.892C117.11 19.22 117.294 19.504 117.526 19.744C117.766 19.984 118.046 20.168 118.366 20.296C118.686 20.424 119.034 20.488 119.41 20.488ZM126.307 22V13.6H129.943C130.695 13.6 131.343 13.724 131.887 13.972C132.431 14.212 132.851 14.56 133.147 15.016C133.443 15.472 133.591 16.016 133.591 16.648C133.591 17.272 133.443 17.812 133.147 18.268C132.851 18.716 132.431 19.06 131.887 19.3C131.343 19.54 130.695 19.66 129.943 19.66H127.387L128.251 18.808V22H126.307ZM131.647 22L129.547 18.952H131.623L133.747 22H131.647ZM128.251 19.024L127.387 18.112H129.835C130.435 18.112 130.883 17.984 131.179 17.728C131.475 17.464 131.623 17.104 131.623 16.648C131.623 16.184 131.475 15.824 131.179 15.568C130.883 15.312 130.435 15.184 129.835 15.184H127.387L128.251 14.26V19.024ZM135.972 22V13.6H137.916V22H135.972ZM140.749 22V13.6H142.357L147.313 19.648H146.533V13.6H148.453V22H146.857L141.889 15.952H142.669V22H140.749ZM155.336 22.144C154.672 22.144 154.06 22.04 153.5 21.832C152.948 21.616 152.464 21.312 152.048 20.92C151.64 20.528 151.32 20.068 151.088 19.54C150.864 19.012 150.752 18.432 150.752 17.8C150.752 17.168 150.864 16.588 151.088 16.06C151.32 15.532 151.644 15.072 152.06 14.68C152.476 14.288 152.964 13.988 153.524 13.78C154.084 13.564 154.7 13.456 155.372 13.456C156.116 13.456 156.784 13.58 157.376 13.828C157.976 14.076 158.48 14.436 158.888 14.908L157.64 16.06C157.336 15.74 157.004 15.504 156.644 15.352C156.284 15.192 155.892 15.112 155.468 15.112C155.06 15.112 154.688 15.176 154.352 15.304C154.016 15.432 153.724 15.616 153.476 15.856C153.236 16.096 153.048 16.38 152.912 16.708C152.784 17.036 152.72 17.4 152.72 17.8C152.72 18.192 152.784 18.552 152.912 18.88C153.048 19.208 153.236 19.496 153.476 19.744C153.724 19.984 154.012 20.168 154.34 20.296C154.676 20.424 155.044 20.488 155.444 20.488C155.828 20.488 156.2 20.428 156.56 20.308C156.928 20.18 157.284 19.968 157.628 19.672L158.732 21.076C158.276 21.42 157.744 21.684 157.136 21.868C156.536 22.052 155.936 22.144 155.336 22.144ZM156.956 20.824V17.668H158.732V21.076L156.956 20.824Z" fill="#7E79A3"/>
</svg>
