<svg width="116" height="35" viewBox="0 0 116 35" fill="none" xmlns="http://www.w3.org/2000/svg">
<g opacity="0.4">
<rect width="116" height="35" rx="8" fill="#E6E6F3"/>
<path d="M17.304 22V13.6H18.912L22.488 19.528H21.636L25.152 13.6H26.748L26.772 22H24.948L24.936 16.396H25.272L22.464 21.112H21.588L18.72 16.396H19.128V22H17.304ZM28.5009 22L32.2449 13.6H34.1649L37.9209 22H35.8809L32.8089 14.584H33.5769L30.4929 22H28.5009ZM30.3729 20.2L30.8889 18.724H35.2089L35.7369 20.2H30.3729ZM39.6324 22V13.6H41.5764V22H39.6324ZM44.4099 22V13.6H46.0179L50.9739 19.648H50.1939V13.6H52.1139V22H50.5179L45.5499 15.952H46.3299V22H44.4099ZM59.1798 22V13.6H62.9958C63.9078 13.6 64.7118 13.776 65.4078 14.128C66.1038 14.472 66.6478 14.956 67.0398 15.58C67.4318 16.204 67.6278 16.944 67.6278 17.8C67.6278 18.648 67.4318 19.388 67.0398 20.02C66.6478 20.644 66.1038 21.132 65.4078 21.484C64.7118 21.828 63.9078 22 62.9958 22H59.1798ZM61.1238 20.404H62.8998C63.4598 20.404 63.9438 20.3 64.3518 20.092C64.7678 19.876 65.0878 19.572 65.3118 19.18C65.5438 18.788 65.6598 18.328 65.6598 17.8C65.6598 17.264 65.5438 16.804 65.3118 16.42C65.0878 16.028 64.7678 15.728 64.3518 15.52C63.9438 15.304 63.4598 15.196 62.8998 15.196H61.1238V20.404ZM74.0138 22.144C73.3498 22.144 72.7338 22.036 72.1658 21.82C71.6058 21.604 71.1178 21.3 70.7018 20.908C70.2938 20.516 69.9738 20.056 69.7418 19.528C69.5178 19 69.4058 18.424 69.4058 17.8C69.4058 17.176 69.5178 16.6 69.7418 16.072C69.9738 15.544 70.2978 15.084 70.7138 14.692C71.1298 14.3 71.6178 13.996 72.1778 13.78C72.7378 13.564 73.3458 13.456 74.0018 13.456C74.6658 13.456 75.2738 13.564 75.8258 13.78C76.3858 13.996 76.8698 14.3 77.2778 14.692C77.6938 15.084 78.0178 15.544 78.2498 16.072C78.4818 16.592 78.5978 17.168 78.5978 17.8C78.5978 18.424 78.4818 19.004 78.2498 19.54C78.0178 20.068 77.6938 20.528 77.2778 20.92C76.8698 21.304 76.3858 21.604 75.8258 21.82C75.2738 22.036 74.6698 22.144 74.0138 22.144ZM74.0018 20.488C74.3778 20.488 74.7218 20.424 75.0338 20.296C75.3538 20.168 75.6338 19.984 75.8738 19.744C76.1138 19.504 76.2978 19.22 76.4258 18.892C76.5618 18.564 76.6298 18.2 76.6298 17.8C76.6298 17.4 76.5618 17.036 76.4258 16.708C76.2978 16.38 76.1138 16.096 75.8738 15.856C75.6418 15.616 75.3658 15.432 75.0458 15.304C74.7258 15.176 74.3778 15.112 74.0018 15.112C73.6258 15.112 73.2778 15.176 72.9578 15.304C72.6458 15.432 72.3698 15.616 72.1298 15.856C71.8898 16.096 71.7018 16.38 71.5658 16.708C71.4378 17.036 71.3738 17.4 71.3738 17.8C71.3738 18.192 71.4378 18.556 71.5658 18.892C71.7018 19.22 71.8858 19.504 72.1178 19.744C72.3578 19.984 72.6378 20.168 72.9578 20.296C73.2778 20.424 73.6258 20.488 74.0018 20.488ZM84.9788 22.144C84.3148 22.144 83.6988 22.036 83.1308 21.82C82.5708 21.604 82.0828 21.3 81.6668 20.908C81.2588 20.516 80.9388 20.056 80.7068 19.528C80.4828 19 80.3708 18.424 80.3708 17.8C80.3708 17.176 80.4828 16.6 80.7068 16.072C80.9388 15.544 81.2628 15.084 81.6788 14.692C82.0948 14.3 82.5828 13.996 83.1428 13.78C83.7028 13.564 84.3108 13.456 84.9668 13.456C85.6308 13.456 86.2388 13.564 86.7908 13.78C87.3508 13.996 87.8348 14.3 88.2428 14.692C88.6588 15.084 88.9828 15.544 89.2148 16.072C89.4468 16.592 89.5628 17.168 89.5628 17.8C89.5628 18.424 89.4468 19.004 89.2148 19.54C88.9828 20.068 88.6588 20.528 88.2428 20.92C87.8348 21.304 87.3508 21.604 86.7908 21.82C86.2388 22.036 85.6348 22.144 84.9788 22.144ZM84.9668 20.488C85.3428 20.488 85.6868 20.424 85.9988 20.296C86.3188 20.168 86.5988 19.984 86.8388 19.744C87.0788 19.504 87.2628 19.22 87.3908 18.892C87.5268 18.564 87.5948 18.2 87.5948 17.8C87.5948 17.4 87.5268 17.036 87.3908 16.708C87.2628 16.38 87.0788 16.096 86.8388 15.856C86.6068 15.616 86.3308 15.432 86.0108 15.304C85.6908 15.176 85.3428 15.112 84.9668 15.112C84.5908 15.112 84.2428 15.176 83.9228 15.304C83.6108 15.432 83.3348 15.616 83.0948 15.856C82.8548 16.096 82.6668 16.38 82.5308 16.708C82.4028 17.036 82.3388 17.4 82.3388 17.8C82.3388 18.192 82.4028 18.556 82.5308 18.892C82.6668 19.22 82.8508 19.504 83.0828 19.744C83.3228 19.984 83.6028 20.168 83.9228 20.296C84.2428 20.424 84.5908 20.488 84.9668 20.488ZM91.8638 22V13.6H95.4998C96.2518 13.6 96.8998 13.724 97.4438 13.972C97.9878 14.212 98.4078 14.56 98.7038 15.016C98.9998 15.472 99.1478 16.016 99.1478 16.648C99.1478 17.272 98.9998 17.812 98.7038 18.268C98.4078 18.716 97.9878 19.06 97.4438 19.3C96.8998 19.54 96.2518 19.66 95.4998 19.66H92.9438L93.8078 18.808V22H91.8638ZM97.2038 22L95.1038 18.952H97.1798L99.3038 22H97.2038ZM93.8078 19.024L92.9438 18.112H95.3918C95.9918 18.112 96.4398 17.984 96.7358 17.728C97.0318 17.464 97.1798 17.104 97.1798 16.648C97.1798 16.184 97.0318 15.824 96.7358 15.568C96.4398 15.312 95.9918 15.184 95.3918 15.184H92.9438L93.8078 14.26V19.024Z" fill="#7E79A3"/>
</g>
</svg>
