<svg width="57" height="19" viewBox="0 0 57 19" fill="none" xmlns="http://www.w3.org/2000/svg">
<path d="M3.66 6.3H10.38V8.9H3.66V6.3ZM3.9 14H0.66V-9.53674e-07H11.24V2.6H3.9V14ZM18.06 14.16C16.9133 14.16 15.8933 13.92 15 13.44C14.12 12.96 13.42 12.3067 12.9 11.48C12.3933 10.64 12.14 9.68667 12.14 8.62C12.14 7.54 12.3933 6.58667 12.9 5.76C13.42 4.92 14.12 4.26667 15 3.8C15.8933 3.32 16.9133 3.08 18.06 3.08C19.1933 3.08 20.2067 3.32 21.1 3.8C21.9933 4.26667 22.6933 4.91333 23.2 5.74C23.7067 6.56667 23.96 7.52667 23.96 8.62C23.96 9.68667 23.7067 10.64 23.2 11.48C22.6933 12.3067 21.9933 12.96 21.1 13.44C20.2067 13.92 19.1933 14.16 18.06 14.16ZM18.06 11.6C18.58 11.6 19.0467 11.48 19.46 11.24C19.8733 11 20.2 10.66 20.44 10.22C20.68 9.76667 20.8 9.23333 20.8 8.62C20.8 7.99333 20.68 7.46 20.44 7.02C20.2 6.58 19.8733 6.24 19.46 6C19.0467 5.76 18.58 5.64 18.06 5.64C17.54 5.64 17.0733 5.76 16.66 6C16.2467 6.24 15.9133 6.58 15.66 7.02C15.42 7.46 15.3 7.99333 15.3 8.62C15.3 9.23333 15.42 9.76667 15.66 10.22C15.9133 10.66 16.2467 11 16.66 11.24C17.0733 11.48 17.54 11.6 18.06 11.6ZM27.1125 18.04C26.5525 18.04 25.9992 17.9533 25.4525 17.78C24.9058 17.6067 24.4592 17.3667 24.1125 17.06L25.2525 14.84C25.4925 15.0533 25.7658 15.22 26.0725 15.34C26.3925 15.46 26.7058 15.52 27.0125 15.52C27.4525 15.52 27.7992 15.4133 28.0525 15.2C28.3192 15 28.5592 14.66 28.7725 14.18L29.3325 12.86L29.5725 12.52L33.4325 3.24H36.4325L31.5725 14.66C31.2258 15.5267 30.8258 16.2067 30.3725 16.7C29.9325 17.1933 29.4392 17.54 28.8925 17.74C28.3592 17.94 27.7658 18.04 27.1125 18.04ZM28.9525 14.42L24.1525 3.24H27.3725L31.0925 12.24L28.9525 14.42ZM42.7527 14.16C41.526 14.16 40.446 13.92 39.5127 13.44C38.5927 12.96 37.8793 12.3067 37.3727 11.48C36.866 10.64 36.6127 9.68667 36.6127 8.62C36.6127 7.54 36.8593 6.58667 37.3527 5.76C37.8593 4.92 38.546 4.26667 39.4127 3.8C40.2793 3.32 41.2593 3.08 42.3527 3.08C43.406 3.08 44.3527 3.30667 45.1927 3.76C46.046 4.2 46.7193 4.84 47.2127 5.68C47.706 6.50667 47.9527 7.5 47.9527 8.66C47.9527 8.78 47.946 8.92 47.9327 9.08C47.9193 9.22667 47.906 9.36667 47.8927 9.5H39.1527V7.68H46.2527L45.0527 8.22C45.0527 7.66 44.9393 7.17333 44.7127 6.76C44.486 6.34667 44.1727 6.02667 43.7727 5.8C43.3727 5.56 42.906 5.44 42.3727 5.44C41.8393 5.44 41.366 5.56 40.9527 5.8C40.5527 6.02667 40.2393 6.35333 40.0127 6.78C39.786 7.19333 39.6727 7.68667 39.6727 8.26V8.74C39.6727 9.32667 39.7993 9.84667 40.0527 10.3C40.3193 10.74 40.686 11.08 41.1527 11.32C41.6327 11.5467 42.1927 11.66 42.8327 11.66C43.406 11.66 43.906 11.5733 44.3327 11.4C44.7727 11.2267 45.1727 10.9667 45.5327 10.62L47.1927 12.42C46.6993 12.98 46.0793 13.4133 45.3327 13.72C44.586 14.0133 43.726 14.16 42.7527 14.16ZM50.0298 14V3.24H53.0098V6.28L52.5898 5.4C52.9098 4.64 53.4232 4.06667 54.1298 3.68C54.8365 3.28 55.6965 3.08 56.7098 3.08V5.96C56.5765 5.94667 56.4565 5.94 56.3498 5.94C56.2432 5.92667 56.1298 5.92 56.0098 5.92C55.1565 5.92 54.4632 6.16667 53.9298 6.66C53.4098 7.14 53.1498 7.89333 53.1498 8.92V14H50.0298Z" fill="#F15F40"/>
</svg>
