<svg width="80" height="36" viewBox="0 0 80 36" fill="none" xmlns="http://www.w3.org/2000/svg">
<g clip-path="url(#clip0_40_65)">
<path d="M40 28.0352C40.6593 28.0352 41.3185 28.0278 41.963 28.0204V30.2426C41.3037 30.2426 40.6519 30.2574 40 30.2574C20.6148 30.2574 0 25.7759 0 17.4796C0 13.3018 5.48889 9.67963 15.4444 7.28703L15.963 9.45C7.48889 11.487 2.22222 14.5611 2.22222 17.4796C2.22222 22.4722 17.7407 28.0352 40 28.0352Z" fill="white"/>
<path d="M79.9999 17.4796C79.9999 24.813 63.8888 29.1685 46.748 30.0796V27.8574C65.3406 26.8796 77.7777 21.9537 77.7777 17.4796C77.7777 14.5463 72.4814 11.4648 63.9555 9.42777L64.474 7.26481C74.4888 9.6574 79.9999 13.287 79.9999 17.4796Z" fill="white"/>
<path d="M37.674 35.1241C37.3925 35.1241 37.1036 35.013 36.8888 34.7981C36.4518 34.3611 36.4518 33.6574 36.8888 33.2278L40.7555 29.3611L36.8888 25.4944C36.4518 25.0574 36.4518 24.3537 36.8888 23.9241C37.3258 23.487 38.0296 23.487 38.4592 23.9241L43.111 28.5759C43.5481 29.013 43.5481 29.7167 43.111 30.1463L38.4592 34.7981C38.2444 35.013 37.9555 35.1241 37.674 35.1241Z" fill="white"/>
<path d="M55.9185 3.30185C55.9185 1.87222 56.674 1.05 58.0518 1.05C59.4296 1.05 60.1851 1.86481 60.1851 3.30185V7.9537C60.1851 9.38333 59.4296 10.2056 58.0518 10.2056C56.674 10.2056 55.9185 9.39074 55.9185 7.9537V3.30185ZM57.3185 8.04259C57.3185 8.67963 57.5999 8.92407 58.0444 8.92407C58.4888 8.92407 58.7703 8.67963 58.7703 8.04259V3.21296C58.7703 2.57592 58.4888 2.33148 58.0444 2.33148C57.5999 2.33148 57.3185 2.57592 57.3185 3.21296V8.04259Z" fill="white"/>
<path d="M26.5557 6.25C26.5557 4.40555 25.9112 3.90185 24.8816 3.90185C23.852 3.90185 23.2149 4.4574 23.2149 5.92407V7.24259H20.1631V6.13148C20.1631 2.85 21.8075 0.975922 24.9705 0.975922C28.1335 0.975922 29.7779 2.85 29.7779 6.13148V6.6574C29.7779 8.8574 29.0742 10.2352 27.5186 10.8796C29.1335 11.5833 29.7779 13.1093 29.7779 15.1907V16.8056C29.7779 20.087 28.1409 21.9611 24.9705 21.9611C21.8001 21.9611 20.1631 20.087 20.1631 16.8056V15.1093H23.2149V17.013C23.2149 18.4796 23.8594 19.0352 24.8816 19.0352C25.9038 19.0352 26.5557 18.5389 26.5557 16.7167V15.1018C26.5557 13.1981 25.9112 12.4944 24.4446 12.4944H23.3631V9.56111H24.6223C25.8223 9.56111 26.5557 9.03518 26.5557 7.39074V6.25Z" fill="white"/>
<path d="M32.3262 6.30926C32.3262 2.85 33.9114 0.975922 37.2521 0.975922C40.4151 0.975922 42.0595 2.85 42.0595 6.13148V6.6574H39.0077V5.92407C39.0077 4.4574 38.3632 3.90185 37.341 3.90185C36.2002 3.90185 35.5558 4.4574 35.5558 6.42037V10.1685C36.1114 8.99814 37.1114 8.3537 38.5484 8.3537C40.9262 8.3537 42.1262 10.0278 42.1262 13.0426V16.7907C42.1262 20.0722 40.4002 21.9463 37.2299 21.9463C34.0595 21.9463 32.3336 20.0722 32.3336 16.7907V6.30926H32.3262ZM35.5484 13.3167V17.013C35.5484 18.4796 36.1928 19.0056 37.2225 19.0056C38.2521 19.0056 38.8891 18.4796 38.8891 17.013V13.3167C38.8891 11.85 38.2447 11.2944 37.2225 11.2944C36.2002 11.2944 35.5484 11.85 35.5484 13.3167Z" fill="white"/>
<path d="M44.4595 6.13148C44.4595 2.85 46.1854 0.975922 49.3558 0.975922C52.5261 0.975922 54.2521 2.85 54.2521 6.13148V16.7981C54.2521 20.0796 52.5261 21.9537 49.3558 21.9537C46.1854 21.9537 44.4595 20.0796 44.4595 16.7981V6.13148ZM47.6817 17.0056C47.6817 18.4722 48.3261 19.0278 49.3558 19.0278C50.3854 19.0278 51.0224 18.4722 51.0224 17.0056V5.93148C51.0224 4.46481 50.378 3.90925 49.3558 3.90925C48.3335 3.90925 47.6817 4.46481 47.6817 5.93148V17.013V17.0056Z" fill="white"/>
</g>
<defs>
<clipPath id="clip0_40_65">
<rect width="80" height="34.1481" fill="white" transform="translate(0 0.975922)"/>
</clipPath>
</defs>
</svg>
