<svg width="21" height="20" viewBox="0 0 21 20" fill="none" xmlns="http://www.w3.org/2000/svg">
<path fill-rule="evenodd" clip-rule="evenodd" d="M19.7951 0.225129C20.0952 0.525301 20.0952 1.01198 19.7951 1.31215L14.6276 6.47964C14.3274 6.77981 13.8407 6.77981 13.5406 6.47964C13.2404 6.17947 13.2404 5.69279 13.5406 5.39262L18.7081 0.225129C19.0082 -0.075043 19.4949 -0.075043 19.7951 0.225129Z" fill="white"/>
<path fill-rule="evenodd" clip-rule="evenodd" d="M13.3081 0.776008C13.3081 0.351501 13.6522 0.00737 14.0767 0.00737H19.2442C19.6687 0.00737 20.0129 0.351501 20.0129 0.776008V5.9435C20.0129 6.36801 19.6687 6.71214 19.2442 6.71214C18.8197 6.71214 18.4756 6.36801 18.4756 5.9435V1.54465H14.0767C13.6522 1.54465 13.3081 1.20052 13.3081 0.776008Z" fill="white"/>
<path fill-rule="evenodd" clip-rule="evenodd" d="M6.49966 13.5204C6.79983 13.8205 6.79983 14.3072 6.49966 14.6074L1.33217 19.7749C1.03199 20.075 0.54532 20.075 0.245148 19.7749C-0.0550234 19.4747 -0.0550234 18.988 0.245149 18.6878L5.41264 13.5204C5.71281 13.2202 6.19949 13.2202 6.49966 13.5204Z" fill="white"/>
<path fill-rule="evenodd" clip-rule="evenodd" d="M0.795982 13.2878C1.22049 13.2878 1.56462 13.632 1.56462 14.0565V18.4553H5.96348C6.38798 18.4553 6.73211 18.7995 6.73211 19.224C6.73211 19.6485 6.38798 19.9926 5.96348 19.9926H0.795982C0.371475 19.9926 0.0273438 19.6485 0.0273438 19.224V14.0565C0.0273438 13.632 0.371475 13.2878 0.795982 13.2878Z" fill="white"/>
<path fill-rule="evenodd" clip-rule="evenodd" d="M13.5406 13.5204C13.8407 13.2202 14.3274 13.2202 14.6276 13.5204L19.7951 18.6878C20.0952 18.988 20.0952 19.4747 19.7951 19.7749C19.4949 20.075 19.0082 20.075 18.7081 19.7749L13.5406 14.6074C13.2404 14.3072 13.2404 13.8205 13.5406 13.5204Z" fill="white"/>
<path fill-rule="evenodd" clip-rule="evenodd" d="M19.2442 13.2878C19.6687 13.2878 20.0129 13.632 20.0129 14.0565V19.224C20.0129 19.6485 19.6687 19.9926 19.2442 19.9926H14.0767C13.6522 19.9926 13.3081 19.6485 13.3081 19.224C13.3081 18.7995 13.6522 18.4553 14.0767 18.4553H18.4756V14.0565C18.4756 13.632 18.8197 13.2878 19.2442 13.2878Z" fill="white"/>
<path fill-rule="evenodd" clip-rule="evenodd" d="M0.245148 0.225129C0.54532 -0.075043 1.032 -0.075043 1.33217 0.225129L6.49966 5.39262C6.79983 5.69279 6.79983 6.17947 6.49966 6.47964C6.19949 6.77981 5.71281 6.77981 5.41264 6.47964L0.245148 1.31215C-0.0550235 1.01198 -0.0550235 0.525301 0.245148 0.225129Z" fill="white"/>
<path fill-rule="evenodd" clip-rule="evenodd" d="M0.0273438 0.776008C0.0273438 0.351501 0.371475 0.00737 0.795982 0.00737H5.96348C6.38798 0.00737 6.73211 0.351501 6.73211 0.776008C6.73211 1.20052 6.38798 1.54465 5.96348 1.54465H1.56462V5.9435C1.56462 6.36801 1.22049 6.71214 0.795982 6.71214C0.371475 6.71214 0.0273438 6.36801 0.0273438 5.9435V0.776008Z" fill="white"/>
</svg>
