<svg width="569" height="8" viewBox="0 0 569 8" fill="none" xmlns="http://www.w3.org/2000/svg">
<rect y="3" width="566" height="2" rx="1" fill="#FBE7D2"/>
<rect y="3" width="183" height="2" rx="1" fill="#F4A146"/>
<rect x="432" y="3" width="36" height="2" rx="1" fill="#F4A146"/>
<circle cx="4" cy="4" r="4" fill="#F4A146"/>
<circle cx="565" cy="4" r="4" fill="#FBE7D2"/>
<circle cx="532" cy="4" r="4" fill="#FBE7D2"/>
<circle cx="499" cy="4" r="4" fill="#FBE7D2"/>
<circle cx="466" cy="4" r="4" fill="#F4A146"/>
<circle cx="433" cy="4" r="4" fill="#F4A146"/>
<circle cx="400" cy="4" r="4" fill="#FBE7D2"/>
<circle cx="367" cy="4" r="4" fill="#FBE7D2"/>
<circle cx="334" cy="4" r="4" fill="#FBE7D2"/>
<circle cx="301" cy="4" r="4" fill="#FBE7D2"/>
<circle cx="268" cy="4" r="4" fill="#FBE7D2"/>
<circle cx="235" cy="4" r="4" fill="#FBE7D2"/>
<circle cx="202" cy="4" r="4" fill="#FBE7D2"/>
<circle cx="169" cy="4" r="4" fill="#F4A146"/>
<circle cx="136" cy="4" r="4" fill="#F4A146"/>
<circle cx="103" cy="4" r="4" fill="#F4A146"/>
<circle cx="70" cy="4" r="4" fill="#F4A146"/>
<circle cx="37" cy="4" r="4" fill="#F4A146"/>
</svg>
