<svg width="172" height="7" viewBox="0 0 172 7" fill="none" xmlns="http://www.w3.org/2000/svg">
<path d="M0.664 6V0.4H1.96V4.944H4.768V6H0.664ZM5.89213 6V0.4H7.18813V6H5.89213ZM10.5659 6L8.14988 0.4H9.54988L11.6619 5.36H10.8379L12.9819 0.4H14.2699L11.8459 6H10.5659ZM16.3294 2.656H19.0254V3.664H16.3294V2.656ZM16.4254 4.96H19.4734V6H15.1374V0.4H19.3694V1.44H16.4254V4.96ZM23.5703 6V0.4H25.9943C26.4956 0.4 26.9276 0.482666 27.2903 0.648C27.6529 0.808 27.9329 1.04 28.1303 1.344C28.3276 1.648 28.4263 2.01067 28.4263 2.432C28.4263 2.848 28.3276 3.208 28.1303 3.512C27.9329 3.81067 27.6529 4.04 27.2903 4.2C26.9276 4.36 26.4956 4.44 25.9943 4.44H24.2903L24.8663 3.872V6H23.5703ZM27.1302 6L25.7303 3.968H27.1143L28.5303 6H27.1302ZM24.8663 4.016L24.2903 3.408H25.9223C26.3223 3.408 26.6209 3.32267 26.8183 3.152C27.0156 2.976 27.1143 2.736 27.1143 2.432C27.1143 2.12267 27.0156 1.88267 26.8183 1.712C26.6209 1.54133 26.3223 1.456 25.9223 1.456H24.2903L24.8663 0.84V4.016ZM31.0451 2.656H33.7411V3.664H31.0451V2.656ZM31.1411 4.96H34.1891V6H29.8531V0.4H34.0851V1.44H31.1411V4.96ZM37.4602 6.096C37.0122 6.096 36.5829 6.03733 36.1722 5.92C35.7616 5.79733 35.4309 5.64 35.1802 5.448L35.6202 4.472C35.8602 4.64267 36.1429 4.784 36.4682 4.896C36.7989 5.00267 37.1322 5.056 37.4682 5.056C37.7242 5.056 37.9296 5.032 38.0842 4.984C38.2442 4.93067 38.3616 4.85867 38.4362 4.768C38.5109 4.67733 38.5482 4.57333 38.5482 4.456C38.5482 4.30667 38.4896 4.18933 38.3722 4.104C38.2549 4.01333 38.1002 3.94133 37.9082 3.888C37.7162 3.82933 37.5029 3.776 37.2682 3.728C37.0389 3.67467 36.8069 3.61067 36.5722 3.536C36.3429 3.46133 36.1322 3.36533 35.9402 3.248C35.7482 3.13067 35.5909 2.976 35.4682 2.784C35.3509 2.592 35.2922 2.34667 35.2922 2.048C35.2922 1.728 35.3776 1.43733 35.5482 1.176C35.7242 0.909333 35.9856 0.698666 36.3322 0.544C36.6842 0.384 37.1242 0.304 37.6522 0.304C38.0042 0.304 38.3509 0.346666 38.6922 0.432C39.0336 0.512 39.3349 0.634666 39.5962 0.8L39.1962 1.784C38.9349 1.63467 38.6736 1.52533 38.4122 1.456C38.1509 1.38133 37.8949 1.344 37.6442 1.344C37.3936 1.344 37.1882 1.37333 37.0282 1.432C36.8682 1.49067 36.7536 1.568 36.6842 1.664C36.6149 1.75467 36.5802 1.86133 36.5802 1.984C36.5802 2.128 36.6389 2.24533 36.7562 2.336C36.8736 2.42133 37.0282 2.49067 37.2202 2.544C37.4122 2.59733 37.6229 2.65067 37.8522 2.704C38.0869 2.75733 38.3189 2.81867 38.5482 2.888C38.7829 2.95733 38.9962 3.05067 39.1882 3.168C39.3802 3.28533 39.5349 3.44 39.6522 3.632C39.7749 3.824 39.8362 4.06667 39.8362 4.36C39.8362 4.67467 39.7482 4.96267 39.5722 5.224C39.3962 5.48533 39.1322 5.696 38.7802 5.856C38.4336 6.016 37.9936 6.096 37.4602 6.096ZM42.9618 6.096C42.5138 6.096 42.0845 6.03733 41.6738 5.92C41.2631 5.79733 40.9325 5.64 40.6818 5.448L41.1218 4.472C41.3618 4.64267 41.6445 4.784 41.9698 4.896C42.3005 5.00267 42.6338 5.056 42.9698 5.056C43.2258 5.056 43.4311 5.032 43.5858 4.984C43.7458 4.93067 43.8631 4.85867 43.9378 4.768C44.0125 4.67733 44.0498 4.57333 44.0498 4.456C44.0498 4.30667 43.9911 4.18933 43.8738 4.104C43.7565 4.01333 43.6018 3.94133 43.4098 3.888C43.2178 3.82933 43.0045 3.776 42.7698 3.728C42.5405 3.67467 42.3085 3.61067 42.0738 3.536C41.8445 3.46133 41.6338 3.36533 41.4418 3.248C41.2498 3.13067 41.0925 2.976 40.9698 2.784C40.8525 2.592 40.7938 2.34667 40.7938 2.048C40.7938 1.728 40.8791 1.43733 41.0498 1.176C41.2258 0.909333 41.4871 0.698666 41.8338 0.544C42.1858 0.384 42.6258 0.304 43.1538 0.304C43.5058 0.304 43.8525 0.346666 44.1938 0.432C44.5351 0.512 44.8365 0.634666 45.0978 0.8L44.6978 1.784C44.4365 1.63467 44.1751 1.52533 43.9138 1.456C43.6525 1.38133 43.3965 1.344 43.1458 1.344C42.8951 1.344 42.6898 1.37333 42.5298 1.432C42.3698 1.49067 42.2551 1.568 42.1858 1.664C42.1165 1.75467 42.0818 1.86133 42.0818 1.984C42.0818 2.128 42.1405 2.24533 42.2578 2.336C42.3751 2.42133 42.5298 2.49067 42.7218 2.544C42.9138 2.59733 43.1245 2.65067 43.3538 2.704C43.5885 2.75733 43.8205 2.81867 44.0498 2.888C44.2845 2.95733 44.4978 3.05067 44.6898 3.168C44.8818 3.28533 45.0365 3.44 45.1538 3.632C45.2765 3.824 45.3378 4.06667 45.3378 4.36C45.3378 4.67467 45.2498 4.96267 45.0738 5.224C44.8978 5.48533 44.6338 5.696 44.2818 5.856C43.9351 6.016 43.4951 6.096 42.9618 6.096ZM49.1114 6.096C48.3167 6.096 47.6954 5.87467 47.2474 5.432C46.7994 4.98933 46.5754 4.35733 46.5754 3.536V0.4H47.8714V3.488C47.8714 4.02133 47.9807 4.40533 48.1994 4.64C48.418 4.87467 48.7247 4.992 49.1194 4.992C49.514 4.992 49.8207 4.87467 50.0394 4.64C50.258 4.40533 50.3674 4.02133 50.3674 3.488V0.4H51.6474V3.536C51.6474 4.35733 51.4234 4.98933 50.9754 5.432C50.5274 5.87467 49.906 6.096 49.1114 6.096ZM53.3281 6V0.4H54.6241V4.944H57.4321V6H53.3281ZM59.1928 6V1.456H57.4008V0.4H62.2808V1.456H60.4888V6H59.1928ZM65.179 6.096C64.731 6.096 64.3017 6.03733 63.891 5.92C63.4803 5.79733 63.1497 5.64 62.899 5.448L63.339 4.472C63.579 4.64267 63.8617 4.784 64.187 4.896C64.5177 5.00267 64.851 5.056 65.187 5.056C65.443 5.056 65.6483 5.032 65.803 4.984C65.963 4.93067 66.0803 4.85867 66.155 4.768C66.2297 4.67733 66.267 4.57333 66.267 4.456C66.267 4.30667 66.2083 4.18933 66.091 4.104C65.9737 4.01333 65.819 3.94133 65.627 3.888C65.435 3.82933 65.2217 3.776 64.987 3.728C64.7577 3.67467 64.5257 3.61067 64.291 3.536C64.0617 3.46133 63.851 3.36533 63.659 3.248C63.467 3.13067 63.3097 2.976 63.187 2.784C63.0697 2.592 63.011 2.34667 63.011 2.048C63.011 1.728 63.0963 1.43733 63.267 1.176C63.443 0.909333 63.7043 0.698666 64.051 0.544C64.403 0.384 64.843 0.304 65.371 0.304C65.723 0.304 66.0697 0.346666 66.411 0.432C66.7523 0.512 67.0537 0.634666 67.315 0.8L66.915 1.784C66.6537 1.63467 66.3923 1.52533 66.131 1.456C65.8697 1.38133 65.6137 1.344 65.363 1.344C65.1123 1.344 64.907 1.37333 64.747 1.432C64.587 1.49067 64.4723 1.568 64.403 1.664C64.3337 1.75467 64.299 1.86133 64.299 1.984C64.299 2.128 64.3577 2.24533 64.475 2.336C64.5923 2.42133 64.747 2.49067 64.939 2.544C65.131 2.59733 65.3417 2.65067 65.571 2.704C65.8057 2.75733 66.0377 2.81867 66.267 2.888C66.5017 2.95733 66.715 3.05067 66.907 3.168C67.099 3.28533 67.2537 3.44 67.371 3.632C67.4937 3.824 67.555 4.06667 67.555 4.36C67.555 4.67467 67.467 4.96267 67.291 5.224C67.115 5.48533 66.851 5.696 66.499 5.856C66.1523 6.016 65.7123 6.096 65.179 6.096ZM71.5062 6V0.4H74.2422C74.9462 0.4 75.4742 0.533333 75.8262 0.8C76.1835 1.06667 76.3622 1.41867 76.3622 1.856C76.3622 2.14933 76.2902 2.40533 76.1462 2.624C76.0022 2.83733 75.8049 3.00267 75.5542 3.12C75.3035 3.23733 75.0155 3.296 74.6902 3.296L74.8422 2.968C75.1942 2.968 75.5062 3.02667 75.7782 3.144C76.0502 3.256 76.2609 3.424 76.4102 3.648C76.5649 3.872 76.6422 4.14667 76.6422 4.472C76.6422 4.952 76.4529 5.328 76.0742 5.6C75.6955 5.86667 75.1382 6 74.4022 6H71.5062ZM72.7942 5.024H74.3062C74.6422 5.024 74.8955 4.97067 75.0662 4.864C75.2422 4.752 75.3302 4.576 75.3302 4.336C75.3302 4.10133 75.2422 3.928 75.0662 3.816C74.8955 3.69867 74.6422 3.64 74.3062 3.64H72.6982V2.696H74.0822C74.3969 2.696 74.6369 2.64267 74.8022 2.536C74.9729 2.424 75.0582 2.256 75.0582 2.032C75.0582 1.81333 74.9729 1.65067 74.8022 1.544C74.6369 1.432 74.3969 1.376 74.0822 1.376H72.7942V5.024ZM77.2874 6L79.7834 0.4H81.0634L83.5674 6H82.2074L80.1594 1.056H80.6714L78.6154 6H77.2874ZM78.5354 4.8L78.8794 3.816H81.7594L82.1114 4.8H78.5354ZM86.3884 6.096C85.9404 6.096 85.511 6.03733 85.1004 5.92C84.6897 5.79733 84.359 5.64 84.1084 5.448L84.5484 4.472C84.7884 4.64267 85.071 4.784 85.3964 4.896C85.727 5.00267 86.0604 5.056 86.3964 5.056C86.6524 5.056 86.8577 5.032 87.0124 4.984C87.1724 4.93067 87.2897 4.85867 87.3644 4.768C87.439 4.67733 87.4764 4.57333 87.4764 4.456C87.4764 4.30667 87.4177 4.18933 87.3004 4.104C87.183 4.01333 87.0284 3.94133 86.8364 3.888C86.6444 3.82933 86.431 3.776 86.1964 3.728C85.967 3.67467 85.735 3.61067 85.5004 3.536C85.271 3.46133 85.0604 3.36533 84.8684 3.248C84.6764 3.13067 84.519 2.976 84.3964 2.784C84.279 2.592 84.2204 2.34667 84.2204 2.048C84.2204 1.728 84.3057 1.43733 84.4764 1.176C84.6524 0.909333 84.9137 0.698666 85.2604 0.544C85.6124 0.384 86.0524 0.304 86.5804 0.304C86.9324 0.304 87.279 0.346666 87.6204 0.432C87.9617 0.512 88.263 0.634666 88.5244 0.8L88.1244 1.784C87.863 1.63467 87.6017 1.52533 87.3404 1.456C87.079 1.38133 86.823 1.344 86.5724 1.344C86.3217 1.344 86.1164 1.37333 85.9564 1.432C85.7964 1.49067 85.6817 1.568 85.6124 1.664C85.543 1.75467 85.5084 1.86133 85.5084 1.984C85.5084 2.128 85.567 2.24533 85.6844 2.336C85.8017 2.42133 85.9564 2.49067 86.1484 2.544C86.3404 2.59733 86.551 2.65067 86.7804 2.704C87.015 2.75733 87.247 2.81867 87.4764 2.888C87.711 2.95733 87.9244 3.05067 88.1164 3.168C88.3084 3.28533 88.463 3.44 88.5804 3.632C88.703 3.824 88.7644 4.06667 88.7644 4.36C88.7644 4.67467 88.6764 4.96267 88.5004 5.224C88.3244 5.48533 88.0604 5.696 87.7084 5.856C87.3617 6.016 86.9217 6.096 86.3884 6.096ZM91.2419 2.656H93.9379V3.664H91.2419V2.656ZM91.3379 4.96H94.3859V6H90.0499V0.4H94.2819V1.44H91.3379V4.96ZM95.8171 6V0.4H98.3611C98.9691 0.4 99.5051 0.517333 99.9691 0.752C100.433 0.981333 100.796 1.304 101.057 1.72C101.318 2.136 101.449 2.62933 101.449 3.2C101.449 3.76533 101.318 4.25867 101.057 4.68C100.796 5.096 100.433 5.42133 99.9691 5.656C99.5051 5.88533 98.9691 6 98.3611 6H95.8171ZM97.1131 4.936H98.2971C98.6705 4.936 98.9931 4.86667 99.2651 4.728C99.5425 4.584 99.7558 4.38133 99.9051 4.12C100.06 3.85867 100.137 3.552 100.137 3.2C100.137 2.84267 100.06 2.536 99.9051 2.28C99.7558 2.01867 99.5425 1.81867 99.2651 1.68C98.9931 1.536 98.6705 1.464 98.2971 1.464H97.1131V4.936ZM108.212 6.096C107.769 6.096 107.359 6.024 106.98 5.88C106.607 5.736 106.281 5.53333 106.004 5.272C105.732 5.01067 105.519 4.704 105.364 4.352C105.215 4 105.14 3.616 105.14 3.2C105.14 2.784 105.215 2.4 105.364 2.048C105.519 1.696 105.735 1.38933 106.012 1.128C106.289 0.866666 106.615 0.664 106.988 0.52C107.361 0.376 107.767 0.304 108.204 0.304C108.647 0.304 109.052 0.376 109.42 0.52C109.793 0.664 110.116 0.866666 110.388 1.128C110.665 1.38933 110.881 1.696 111.036 2.048C111.191 2.39467 111.268 2.77867 111.268 3.2C111.268 3.616 111.191 4.00267 111.036 4.36C110.881 4.712 110.665 5.01867 110.388 5.28C110.116 5.536 109.793 5.736 109.42 5.88C109.052 6.024 108.649 6.096 108.212 6.096ZM108.204 4.992C108.455 4.992 108.684 4.94933 108.892 4.864C109.105 4.77867 109.292 4.656 109.452 4.496C109.612 4.336 109.735 4.14667 109.82 3.928C109.911 3.70933 109.956 3.46667 109.956 3.2C109.956 2.93333 109.911 2.69067 109.82 2.472C109.735 2.25333 109.612 2.064 109.452 1.904C109.297 1.744 109.113 1.62133 108.9 1.536C108.687 1.45067 108.455 1.408 108.204 1.408C107.953 1.408 107.721 1.45067 107.508 1.536C107.3 1.62133 107.116 1.744 106.956 1.904C106.796 2.064 106.671 2.25333 106.58 2.472C106.495 2.69067 106.452 2.93333 106.452 3.2C106.452 3.46133 106.495 3.704 106.58 3.928C106.671 4.14667 106.793 4.336 106.948 4.496C107.108 4.656 107.295 4.77867 107.508 4.864C107.721 4.94933 107.953 4.992 108.204 4.992ZM112.642 6V0.4H113.714L117.018 4.432H116.498V0.4H117.778V6H116.714L113.402 1.968H113.922V6H112.642ZM124.009 6.096C123.561 6.096 123.131 6.03733 122.721 5.92C122.31 5.79733 121.979 5.64 121.729 5.448L122.169 4.472C122.409 4.64267 122.691 4.784 123.017 4.896C123.347 5.00267 123.681 5.056 124.017 5.056C124.273 5.056 124.478 5.032 124.633 4.984C124.793 4.93067 124.91 4.85867 124.985 4.768C125.059 4.67733 125.097 4.57333 125.097 4.456C125.097 4.30667 125.038 4.18933 124.921 4.104C124.803 4.01333 124.649 3.94133 124.457 3.888C124.265 3.82933 124.051 3.776 123.817 3.728C123.587 3.67467 123.355 3.61067 123.121 3.536C122.891 3.46133 122.681 3.36533 122.489 3.248C122.297 3.13067 122.139 2.976 122.017 2.784C121.899 2.592 121.841 2.34667 121.841 2.048C121.841 1.728 121.926 1.43733 122.097 1.176C122.273 0.909333 122.534 0.698666 122.881 0.544C123.233 0.384 123.673 0.304 124.201 0.304C124.553 0.304 124.899 0.346666 125.241 0.432C125.582 0.512 125.883 0.634666 126.145 0.8L125.745 1.784C125.483 1.63467 125.222 1.52533 124.961 1.456C124.699 1.38133 124.443 1.344 124.193 1.344C123.942 1.344 123.737 1.37333 123.577 1.432C123.417 1.49067 123.302 1.568 123.233 1.664C123.163 1.75467 123.129 1.86133 123.129 1.984C123.129 2.128 123.187 2.24533 123.305 2.336C123.422 2.42133 123.577 2.49067 123.769 2.544C123.961 2.59733 124.171 2.65067 124.401 2.704C124.635 2.75733 124.867 2.81867 125.097 2.888C125.331 2.95733 125.545 3.05067 125.737 3.168C125.929 3.28533 126.083 3.44 126.201 3.632C126.323 3.824 126.385 4.06667 126.385 4.36C126.385 4.67467 126.297 4.96267 126.121 5.224C125.945 5.48533 125.681 5.696 125.329 5.856C124.982 6.016 124.542 6.096 124.009 6.096ZM128.862 2.656H131.558V3.664H128.862V2.656ZM128.958 4.96H132.006V6H127.67V0.4H131.902V1.44H128.958V4.96ZM133.437 6V0.4H134.733V4.944H137.541V6H133.437ZM139.858 2.656H142.554V3.664H139.858V2.656ZM139.954 4.96H143.002V6H138.666V0.4H142.898V1.44H139.954V4.96ZM147.113 6.096C146.681 6.096 146.278 6.02667 145.905 5.888C145.537 5.744 145.217 5.54133 144.945 5.28C144.673 5.01867 144.459 4.712 144.305 4.36C144.155 4.008 144.081 3.62133 144.081 3.2C144.081 2.77867 144.155 2.392 144.305 2.04C144.459 1.688 144.673 1.38133 144.945 1.12C145.222 0.858666 145.545 0.658666 145.913 0.52C146.281 0.376 146.683 0.304 147.121 0.304C147.606 0.304 148.043 0.389333 148.433 0.56C148.827 0.725333 149.158 0.970666 149.425 1.296L148.593 2.064C148.401 1.84533 148.187 1.68267 147.953 1.576C147.718 1.464 147.462 1.408 147.185 1.408C146.923 1.408 146.683 1.45067 146.465 1.536C146.246 1.62133 146.057 1.744 145.897 1.904C145.737 2.064 145.611 2.25333 145.521 2.472C145.435 2.69067 145.393 2.93333 145.393 3.2C145.393 3.46667 145.435 3.70933 145.521 3.928C145.611 4.14667 145.737 4.336 145.897 4.496C146.057 4.656 146.246 4.77867 146.465 4.864C146.683 4.94933 146.923 4.992 147.185 4.992C147.462 4.992 147.718 4.93867 147.953 4.832C148.187 4.72 148.401 4.552 148.593 4.328L149.425 5.096C149.158 5.42133 148.827 5.66933 148.433 5.84C148.043 6.01067 147.603 6.096 147.113 6.096ZM151.805 6V1.456H150.013V0.4H154.893V1.456H153.101V6H151.805ZM155.991 6V0.4H157.287V6H155.991ZM161.736 6.096C161.293 6.096 160.882 6.024 160.504 5.88C160.13 5.736 159.805 5.53333 159.528 5.272C159.256 5.01067 159.042 4.704 158.888 4.352C158.738 4 158.664 3.616 158.664 3.2C158.664 2.784 158.738 2.4 158.888 2.048C159.042 1.696 159.258 1.38933 159.536 1.128C159.813 0.866666 160.138 0.664 160.512 0.52C160.885 0.376 161.29 0.304 161.728 0.304C162.17 0.304 162.576 0.376 162.944 0.52C163.317 0.664 163.64 0.866666 163.912 1.128C164.189 1.38933 164.405 1.696 164.56 2.048C164.714 2.39467 164.792 2.77867 164.792 3.2C164.792 3.616 164.714 4.00267 164.56 4.36C164.405 4.712 164.189 5.01867 163.912 5.28C163.64 5.536 163.317 5.736 162.944 5.88C162.576 6.024 162.173 6.096 161.736 6.096ZM161.728 4.992C161.978 4.992 162.208 4.94933 162.416 4.864C162.629 4.77867 162.816 4.656 162.976 4.496C163.136 4.336 163.258 4.14667 163.344 3.928C163.434 3.70933 163.48 3.46667 163.48 3.2C163.48 2.93333 163.434 2.69067 163.344 2.472C163.258 2.25333 163.136 2.064 162.976 1.904C162.821 1.744 162.637 1.62133 162.424 1.536C162.21 1.45067 161.978 1.408 161.728 1.408C161.477 1.408 161.245 1.45067 161.032 1.536C160.824 1.62133 160.64 1.744 160.48 1.904C160.32 2.064 160.194 2.25333 160.104 2.472C160.018 2.69067 159.976 2.93333 159.976 3.2C159.976 3.46133 160.018 3.704 160.104 3.928C160.194 4.14667 160.317 4.336 160.472 4.496C160.632 4.656 160.818 4.77867 161.032 4.864C161.245 4.94933 161.477 4.992 161.728 4.992ZM166.166 6V0.4H167.238L170.542 4.432H170.022V0.4H171.302V6H170.238L166.926 1.968H167.446V6H166.166Z" fill="white"/>
</svg>
