<svg width="56" height="9" viewBox="0 0 56 9" fill="none" xmlns="http://www.w3.org/2000/svg">
<path d="M0.909117 9V0.599999H2.51712L7.47312 6.648H6.69312V0.599999H8.61312V9H7.01712L2.04912 2.952H2.82912V9H0.909117ZM13.2285 3.984H17.2725V5.496H13.2285V3.984ZM13.3725 7.44H17.9445V9H11.4405V0.599999H17.7885V2.16H13.3725V7.44ZM19.2893 9L22.9013 4.02V5.436L19.4453 0.599999H21.6533L24.0413 3.972L23.1173 3.984L25.4693 0.599999H27.5813L24.1493 5.352V3.96L27.7853 9H25.5413L23.0693 5.436H23.9573L21.5213 9H19.2893ZM31.0324 9V2.184H28.3444V0.599999H35.6644V2.184H32.9764V9H31.0324ZM41.5368 7.752V6.252L46.6848 4.38V5.22L41.5368 3.348V1.848L47.2488 4.02V5.58L41.5368 7.752ZM49.5604 7.752V6.252L54.7084 4.38V5.22L49.5604 3.348V1.848L55.2724 4.02V5.58L49.5604 7.752Z" fill="#F15F40"/>
</svg>
