<svg width="44" height="13" viewBox="0 0 44 13" fill="none" xmlns="http://www.w3.org/2000/svg">
<path d="M3.60612 11.144C2.91812 11.144 2.30212 10.976 1.75812 10.64C1.21412 10.296 0.786124 9.8 0.474124 9.152C0.162124 8.504 0.00612409 7.72 0.00612409 6.8C0.00612409 5.88 0.162124 5.096 0.474124 4.448C0.786124 3.8 1.21412 3.308 1.75812 2.972C2.30212 2.628 2.91812 2.456 3.60612 2.456C4.30212 2.456 4.91812 2.628 5.45412 2.972C5.99812 3.308 6.42612 3.8 6.73812 4.448C7.05012 5.096 7.20612 5.88 7.20612 6.8C7.20612 7.72 7.05012 8.504 6.73812 9.152C6.42612 9.8 5.99812 10.296 5.45412 10.64C4.91812 10.976 4.30212 11.144 3.60612 11.144ZM3.60612 9.5C3.93412 9.5 4.21812 9.408 4.45812 9.224C4.70612 9.04 4.89812 8.748 5.03412 8.348C5.17812 7.948 5.25012 7.432 5.25012 6.8C5.25012 6.168 5.17812 5.652 5.03412 5.252C4.89812 4.852 4.70612 4.56 4.45812 4.376C4.21812 4.192 3.93412 4.1 3.60612 4.1C3.28612 4.1 3.00212 4.192 2.75412 4.376C2.51412 4.56 2.32212 4.852 2.17812 5.252C2.04212 5.652 1.97412 6.168 1.97412 6.8C1.97412 7.432 2.04212 7.948 2.17812 8.348C2.32212 8.748 2.51412 9.04 2.75412 9.224C3.00212 9.408 3.28612 9.5 3.60612 9.5ZM10.2398 11V3.32L11.0798 4.16H8.55978V2.6H12.1838V11H10.2398ZM17.8574 12.2L21.8174 0.895999H23.4854L19.5254 12.2H17.8574ZM32.0991 11.144C31.4111 11.144 30.7951 10.976 30.2511 10.64C29.7071 10.296 29.2791 9.8 28.9671 9.152C28.6551 8.504 28.4991 7.72 28.4991 6.8C28.4991 5.88 28.6551 5.096 28.9671 4.448C29.2791 3.8 29.7071 3.308 30.2511 2.972C30.7951 2.628 31.4111 2.456 32.0991 2.456C32.7951 2.456 33.4111 2.628 33.9471 2.972C34.4911 3.308 34.9191 3.8 35.2311 4.448C35.5431 5.096 35.6991 5.88 35.6991 6.8C35.6991 7.72 35.5431 8.504 35.2311 9.152C34.9191 9.8 34.4911 10.296 33.9471 10.64C33.4111 10.976 32.7951 11.144 32.0991 11.144ZM32.0991 9.5C32.4271 9.5 32.7111 9.408 32.9511 9.224C33.1991 9.04 33.3911 8.748 33.5271 8.348C33.6711 7.948 33.7431 7.432 33.7431 6.8C33.7431 6.168 33.6711 5.652 33.5271 5.252C33.3911 4.852 33.1991 4.56 32.9511 4.376C32.7111 4.192 32.4271 4.1 32.0991 4.1C31.7791 4.1 31.4951 4.192 31.2471 4.376C31.0071 4.56 30.8151 4.852 30.6711 5.252C30.5351 5.652 30.4671 6.168 30.4671 6.8C30.4671 7.432 30.5351 7.948 30.6711 8.348C30.8151 8.748 31.0071 9.04 31.2471 9.224C31.4951 9.408 31.7791 9.5 32.0991 9.5ZM40.0904 11.144C39.5064 11.144 38.9264 11.068 38.3504 10.916C37.7744 10.756 37.2864 10.532 36.8864 10.244L37.6424 8.756C37.9624 8.988 38.3344 9.172 38.7584 9.308C39.1824 9.444 39.6104 9.512 40.0424 9.512C40.5304 9.512 40.9144 9.416 41.1944 9.224C41.4744 9.032 41.6144 8.768 41.6144 8.432C41.6144 8.112 41.4904 7.86 41.2424 7.676C40.9944 7.492 40.5944 7.4 40.0424 7.4H39.1544V6.116L41.4944 3.464L41.7104 4.16H37.3064V2.6H43.1864V3.86L40.8584 6.512L39.8744 5.948H40.4384C41.4704 5.948 42.2504 6.18 42.7784 6.644C43.3064 7.108 43.5704 7.704 43.5704 8.432C43.5704 8.904 43.4464 9.348 43.1984 9.764C42.9504 10.172 42.5704 10.504 42.0584 10.76C41.5464 11.016 40.8904 11.144 40.0904 11.144Z" fill="#A3A3A3"/>
</svg>
