<svg width="289" height="55" viewBox="0 0 289 55" fill="none" xmlns="http://www.w3.org/2000/svg">
<path d="M0 8C0 3.58172 3.58172 0 8 0H281C285.418 0 289 3.58172 289 8V47C289 51.4183 285.418 55 281 55H8C3.58172 55 0 51.4183 0 47V8Z" fill="#6B5EA9"/>
<path d="M49.874 32L54.242 22.2H56.482L60.864 32H58.484L54.9 23.348H55.796L52.198 32H49.874ZM52.058 29.9L52.66 28.178H57.7L58.316 29.9H52.058ZM62.8607 32V22.2H67.1027C67.9801 22.2 68.7361 22.3447 69.3708 22.634C70.0054 22.914 70.4954 23.32 70.8408 23.852C71.1861 24.384 71.3588 25.0187 71.3588 25.756C71.3588 26.484 71.1861 27.114 70.8408 27.646C70.4954 28.178 70.0054 28.5887 69.3708 28.878C68.7361 29.158 67.9801 29.298 67.1027 29.298H64.1207L65.1287 28.276V32H62.8607ZM65.1287 28.528L64.1207 27.45H66.9767C67.6767 27.45 68.1994 27.3007 68.5447 27.002C68.8901 26.7033 69.0627 26.288 69.0627 25.756C69.0627 25.2147 68.8901 24.7947 68.5447 24.496C68.1994 24.1973 67.6767 24.048 66.9767 24.048H64.1207L65.1287 22.97V28.528ZM73.9579 32V22.2H78.1999C79.0773 22.2 79.8333 22.3447 80.4679 22.634C81.1026 22.914 81.5926 23.32 81.9379 23.852C82.2833 24.384 82.4559 25.0187 82.4559 25.756C82.4559 26.484 82.2833 27.114 81.9379 27.646C81.5926 28.178 81.1026 28.5887 80.4679 28.878C79.8333 29.158 79.0773 29.298 78.1999 29.298H75.2179L76.2259 28.276V32H73.9579ZM76.2259 28.528L75.2179 27.45H78.0739C78.7739 27.45 79.2966 27.3007 79.6419 27.002C79.9873 26.7033 80.1599 26.288 80.1599 25.756C80.1599 25.2147 79.9873 24.7947 79.6419 24.496C79.2966 24.1973 78.7739 24.048 78.0739 24.048H75.2179L76.2259 22.97V28.528ZM85.0551 32V22.2H87.3231V30.152H92.2371V32H85.0551ZM95.9086 32V27.996L96.4266 29.368L92.1146 22.2H94.5226L97.8266 27.702H96.4406L99.7586 22.2H101.985L97.6726 29.368L98.1766 27.996V32H95.9086ZM113.548 32.168C112.792 32.168 112.088 32.0467 111.434 31.804C110.79 31.552 110.23 31.1973 109.754 30.74C109.278 30.2827 108.905 29.746 108.634 29.13C108.373 28.514 108.242 27.8373 108.242 27.1C108.242 26.3627 108.373 25.686 108.634 25.07C108.905 24.454 109.278 23.9173 109.754 23.46C110.24 23.0027 110.804 22.6527 111.448 22.41C112.092 22.158 112.797 22.032 113.562 22.032C114.412 22.032 115.177 22.1813 115.858 22.48C116.549 22.7693 117.128 23.1987 117.594 23.768L116.138 25.112C115.802 24.7293 115.429 24.4447 115.018 24.258C114.608 24.062 114.16 23.964 113.674 23.964C113.217 23.964 112.797 24.0387 112.414 24.188C112.032 24.3373 111.7 24.552 111.42 24.832C111.14 25.112 110.921 25.4433 110.762 25.826C110.613 26.2087 110.538 26.6333 110.538 27.1C110.538 27.5667 110.613 27.9913 110.762 28.374C110.921 28.7567 111.14 29.088 111.42 29.368C111.7 29.648 112.032 29.8627 112.414 30.012C112.797 30.1613 113.217 30.236 113.674 30.236C114.16 30.236 114.608 30.1427 115.018 29.956C115.429 29.76 115.802 29.466 116.138 29.074L117.594 30.418C117.128 30.9873 116.549 31.4213 115.858 31.72C115.177 32.0187 114.407 32.168 113.548 32.168ZM126.826 22.2H129.094V32H126.826V22.2ZM122.374 32H120.106V22.2H122.374V32ZM126.994 27.982H122.206V26.064H126.994V27.982ZM131.105 32L135.473 22.2H137.713L142.095 32H139.715L136.131 23.348H137.027L133.429 32H131.105ZM133.289 29.9L133.891 28.178H138.931L139.547 29.9H133.289ZM144.091 32V22.2H145.967L151.749 29.256H150.839V22.2H153.079V32H151.217L145.421 24.944H146.331V32H144.091ZM161.11 32.168C160.335 32.168 159.621 32.0467 158.968 31.804C158.324 31.552 157.759 31.1973 157.274 30.74C156.798 30.2827 156.425 29.746 156.154 29.13C155.893 28.514 155.762 27.8373 155.762 27.1C155.762 26.3627 155.893 25.686 156.154 25.07C156.425 24.454 156.803 23.9173 157.288 23.46C157.773 23.0027 158.343 22.6527 158.996 22.41C159.649 22.158 160.368 22.032 161.152 22.032C162.02 22.032 162.799 22.1767 163.49 22.466C164.19 22.7553 164.778 23.1753 165.254 23.726L163.798 25.07C163.443 24.6967 163.056 24.4213 162.636 24.244C162.216 24.0573 161.759 23.964 161.264 23.964C160.788 23.964 160.354 24.0387 159.962 24.188C159.57 24.3373 159.229 24.552 158.94 24.832C158.66 25.112 158.441 25.4433 158.282 25.826C158.133 26.2087 158.058 26.6333 158.058 27.1C158.058 27.5573 158.133 27.9773 158.282 28.36C158.441 28.7427 158.66 29.0787 158.94 29.368C159.229 29.648 159.565 29.8627 159.948 30.012C160.34 30.1613 160.769 30.236 161.236 30.236C161.684 30.236 162.118 30.166 162.538 30.026C162.967 29.8767 163.383 29.6293 163.784 29.284L165.072 30.922C164.54 31.3233 163.919 31.6313 163.21 31.846C162.51 32.0607 161.81 32.168 161.11 32.168ZM163 30.628V26.946H165.072V30.922L163 30.628ZM170.245 26.148H174.963V27.912H170.245V26.148ZM170.413 30.18H175.747V32H168.159V22.2H175.565V24.02H170.413V30.18ZM181.751 32.168C180.967 32.168 180.216 32.0653 179.497 31.86C178.779 31.6453 178.2 31.37 177.761 31.034L178.531 29.326C178.951 29.6247 179.446 29.872 180.015 30.068C180.594 30.2547 181.177 30.348 181.765 30.348C182.213 30.348 182.573 30.306 182.843 30.222C183.123 30.1287 183.329 30.0027 183.459 29.844C183.59 29.6853 183.655 29.5033 183.655 29.298C183.655 29.0367 183.553 28.8313 183.347 28.682C183.142 28.5233 182.871 28.3973 182.535 28.304C182.199 28.2013 181.826 28.108 181.415 28.024C181.014 27.9307 180.608 27.8187 180.197 27.688C179.796 27.5573 179.427 27.3893 179.091 27.184C178.755 26.9787 178.48 26.708 178.265 26.372C178.06 26.036 177.957 25.6067 177.957 25.084C177.957 24.524 178.107 24.0153 178.405 23.558C178.713 23.0913 179.171 22.7227 179.777 22.452C180.393 22.172 181.163 22.032 182.087 22.032C182.703 22.032 183.31 22.1067 183.907 22.256C184.505 22.396 185.032 22.6107 185.489 22.9L184.789 24.622C184.332 24.3607 183.875 24.1693 183.417 24.048C182.96 23.9173 182.512 23.852 182.073 23.852C181.635 23.852 181.275 23.9033 180.995 24.006C180.715 24.1087 180.515 24.244 180.393 24.412C180.272 24.5707 180.211 24.7573 180.211 24.972C180.211 25.224 180.314 25.4293 180.519 25.588C180.725 25.7373 180.995 25.8587 181.331 25.952C181.667 26.0453 182.036 26.1387 182.437 26.232C182.848 26.3253 183.254 26.4327 183.655 26.554C184.066 26.6753 184.439 26.8387 184.775 27.044C185.111 27.2493 185.382 27.52 185.587 27.856C185.802 28.192 185.909 28.6167 185.909 29.13C185.909 29.6807 185.755 30.1847 185.447 30.642C185.139 31.0993 184.677 31.468 184.061 31.748C183.455 32.028 182.685 32.168 181.751 32.168Z" fill="white"/>
<path d="M232.707 28.7071C233.098 28.3166 233.098 27.6834 232.707 27.2929L226.343 20.9289C225.953 20.5384 225.319 20.5384 224.929 20.9289C224.538 21.3195 224.538 21.9526 224.929 22.3431L230.586 28L224.929 33.6569C224.538 34.0474 224.538 34.6805 224.929 35.0711C225.319 35.4616 225.953 35.4616 226.343 35.0711L232.707 28.7071ZM210 29L232 29L232 27L210 27L210 29Z" fill="white"/>
</svg>
