<svg width="38" height="38" viewBox="0 0 38 38" fill="none" xmlns="http://www.w3.org/2000/svg">
<path fill-rule="evenodd" clip-rule="evenodd" d="M19 38C29.4934 38 38 29.4934 38 19C38 8.50659 29.4934 0 19 0C8.50659 0 0 8.50659 0 19C0 29.4934 8.50659 38 19 38ZM19 29.5556C24.8297 29.5556 29.5556 24.8297 29.5556 19C29.5556 13.1703 24.8297 8.44444 19 8.44444C13.1703 8.44444 8.44446 13.1703 8.44446 19C8.44446 24.8297 13.1703 29.5556 19 29.5556Z" fill="#F4A146" fill-opacity="0.25"/>
<path fill-rule="evenodd" clip-rule="evenodd" d="M18.8376 0.000671387C8.41895 0.0879105 0 8.56078 0 19C0 29.4934 8.50659 38 19 38C29.4392 38 37.9121 29.5811 37.9993 19.1625H29.5543C29.4676 24.9173 24.7755 29.5556 19 29.5556C13.1703 29.5556 8.44446 24.8298 8.44446 19.0001C8.44446 13.2247 13.0828 8.53257 18.8376 8.44575V0.000671387Z" fill="#F4A146"/>
</svg>
