<svg width="155" height="10" viewBox="0 0 155 10" fill="none" xmlns="http://www.w3.org/2000/svg">
<path d="M0.497251 9V0.599999H2.10525L5.68125 6.528H4.82925L8.34525 0.599999H9.94125L9.96525 9H8.14125L8.12925 3.396H8.46525L5.65725 8.112H4.78125L1.91325 3.396H2.32125V9H0.497251ZM14.8862 9V5.568L15.3302 6.744L11.6342 0.599999H13.6982L16.5302 5.316H15.3422L18.1862 0.599999H20.0942L16.3982 6.744L16.8302 5.568V9H14.8862ZM29.718 9.144C28.526 9.144 27.594 8.812 26.922 8.148C26.25 7.484 25.914 6.536 25.914 5.304V0.599999H27.858V5.232C27.858 6.032 28.022 6.608 28.35 6.96C28.678 7.312 29.138 7.488 29.73 7.488C30.322 7.488 30.782 7.312 31.11 6.96C31.438 6.608 31.602 6.032 31.602 5.232V0.599999H33.522V5.304C33.522 6.536 33.186 7.484 32.514 8.148C31.842 8.812 30.91 9.144 29.718 9.144ZM36.283 9V0.599999H37.891L42.847 6.648H42.067V0.599999H43.987V9H42.391L37.423 2.952H38.203V9H36.283ZM46.8144 9V0.599999H48.7584V9H46.8144ZM53.3319 9V2.184H50.6439V0.599999H57.9639V2.184H55.2759V9H53.3319ZM68.1083 9.144C67.4603 9.144 66.8563 9.04 66.2963 8.832C65.7443 8.616 65.2643 8.312 64.8563 7.92C64.4483 7.528 64.1283 7.068 63.8963 6.54C63.6723 6.012 63.5603 5.432 63.5603 4.8C63.5603 4.168 63.6723 3.588 63.8963 3.06C64.1283 2.532 64.4483 2.072 64.8563 1.68C65.2723 1.288 65.7563 0.987999 66.3083 0.779999C66.8603 0.564 67.4643 0.456 68.1203 0.456C68.8483 0.456 69.5043 0.584 70.0883 0.84C70.6803 1.088 71.1763 1.456 71.5763 1.944L70.3283 3.096C70.0403 2.768 69.7203 2.524 69.3683 2.364C69.0163 2.196 68.6323 2.112 68.2163 2.112C67.8243 2.112 67.4643 2.176 67.1363 2.304C66.8083 2.432 66.5243 2.616 66.2843 2.856C66.0443 3.096 65.8563 3.38 65.7203 3.708C65.5923 4.036 65.5283 4.4 65.5283 4.8C65.5283 5.2 65.5923 5.564 65.7203 5.892C65.8563 6.22 66.0443 6.504 66.2843 6.744C66.5243 6.984 66.8083 7.168 67.1363 7.296C67.4643 7.424 67.8243 7.488 68.2163 7.488C68.6323 7.488 69.0163 7.408 69.3683 7.248C69.7203 7.08 70.0403 6.828 70.3283 6.492L71.5763 7.644C71.1763 8.132 70.6803 8.504 70.0883 8.76C69.5043 9.016 68.8443 9.144 68.1083 9.144ZM77.6333 9.144C76.9693 9.144 76.3533 9.036 75.7853 8.82C75.2253 8.604 74.7373 8.3 74.3213 7.908C73.9133 7.516 73.5933 7.056 73.3613 6.528C73.1373 6 73.0253 5.424 73.0253 4.8C73.0253 4.176 73.1373 3.6 73.3613 3.072C73.5933 2.544 73.9173 2.084 74.3333 1.692C74.7493 1.3 75.2373 0.995999 75.7973 0.779999C76.3573 0.564 76.9653 0.456 77.6213 0.456C78.2853 0.456 78.8933 0.564 79.4453 0.779999C80.0053 0.995999 80.4893 1.3 80.8973 1.692C81.3133 2.084 81.6373 2.544 81.8693 3.072C82.1013 3.592 82.2173 4.168 82.2173 4.8C82.2173 5.424 82.1013 6.004 81.8693 6.54C81.6373 7.068 81.3133 7.528 80.8973 7.92C80.4893 8.304 80.0053 8.604 79.4453 8.82C78.8933 9.036 78.2893 9.144 77.6333 9.144ZM77.6213 7.488C77.9973 7.488 78.3413 7.424 78.6533 7.296C78.9733 7.168 79.2533 6.984 79.4933 6.744C79.7333 6.504 79.9173 6.22 80.0453 5.892C80.1813 5.564 80.2493 5.2 80.2493 4.8C80.2493 4.4 80.1813 4.036 80.0453 3.708C79.9173 3.38 79.7333 3.096 79.4933 2.856C79.2613 2.616 78.9853 2.432 78.6653 2.304C78.3453 2.176 77.9973 2.112 77.6213 2.112C77.2453 2.112 76.8973 2.176 76.5773 2.304C76.2653 2.432 75.9893 2.616 75.7493 2.856C75.5093 3.096 75.3213 3.38 75.1853 3.708C75.0573 4.036 74.9933 4.4 74.9933 4.8C74.9933 5.192 75.0573 5.556 75.1853 5.892C75.3213 6.22 75.5053 6.504 75.7373 6.744C75.9773 6.984 76.2573 7.168 76.5773 7.296C76.8973 7.424 77.2453 7.488 77.6213 7.488ZM84.5183 9V0.599999H86.1263L89.7023 6.528H88.8503L92.3663 0.599999H93.9623L93.9863 9H92.1623L92.1503 3.396H92.4863L89.6783 8.112H88.8023L85.9343 3.396H86.3423V9H84.5183ZM96.8193 9V0.599999H100.455C101.207 0.599999 101.855 0.724 102.399 0.972C102.943 1.212 103.363 1.56 103.659 2.016C103.955 2.472 104.103 3.016 104.103 3.648C104.103 4.272 103.955 4.812 103.659 5.268C103.363 5.724 102.943 6.076 102.399 6.324C101.855 6.564 101.207 6.684 100.455 6.684H97.8993L98.7633 5.808V9H96.8193ZM98.7633 6.024L97.8993 5.1H100.347C100.947 5.1 101.395 4.972 101.691 4.716C101.987 4.46 102.135 4.104 102.135 3.648C102.135 3.184 101.987 2.824 101.691 2.568C101.395 2.312 100.947 2.184 100.347 2.184H97.8993L98.7633 1.26V6.024ZM106.331 9V0.599999H108.275V7.416H112.487V9H106.331ZM116.201 3.984H120.245V5.496H116.201V3.984ZM116.345 7.44H120.917V9H114.413V0.599999H120.761V2.16H116.345V7.44ZM125.044 9V2.184H122.356V0.599999H129.676V2.184H126.988V9H125.044ZM131.562 9V0.599999H133.506V9H131.562ZM140.42 9.144C139.756 9.144 139.14 9.036 138.572 8.82C138.012 8.604 137.524 8.3 137.108 7.908C136.7 7.516 136.38 7.056 136.148 6.528C135.924 6 135.812 5.424 135.812 4.8C135.812 4.176 135.924 3.6 136.148 3.072C136.38 2.544 136.704 2.084 137.12 1.692C137.536 1.3 138.024 0.995999 138.584 0.779999C139.144 0.564 139.752 0.456 140.408 0.456C141.072 0.456 141.68 0.564 142.232 0.779999C142.792 0.995999 143.276 1.3 143.684 1.692C144.1 2.084 144.424 2.544 144.656 3.072C144.888 3.592 145.004 4.168 145.004 4.8C145.004 5.424 144.888 6.004 144.656 6.54C144.424 7.068 144.1 7.528 143.684 7.92C143.276 8.304 142.792 8.604 142.232 8.82C141.68 9.036 141.076 9.144 140.42 9.144ZM140.408 7.488C140.784 7.488 141.128 7.424 141.44 7.296C141.76 7.168 142.04 6.984 142.28 6.744C142.52 6.504 142.704 6.22 142.832 5.892C142.968 5.564 143.036 5.2 143.036 4.8C143.036 4.4 142.968 4.036 142.832 3.708C142.704 3.38 142.52 3.096 142.28 2.856C142.048 2.616 141.772 2.432 141.452 2.304C141.132 2.176 140.784 2.112 140.408 2.112C140.032 2.112 139.684 2.176 139.364 2.304C139.052 2.432 138.776 2.616 138.536 2.856C138.296 3.096 138.108 3.38 137.972 3.708C137.844 4.036 137.78 4.4 137.78 4.8C137.78 5.192 137.844 5.556 137.972 5.892C138.108 6.22 138.292 6.504 138.524 6.744C138.764 6.984 139.044 7.168 139.364 7.296C139.684 7.424 140.032 7.488 140.408 7.488ZM147.305 9V0.599999H148.913L153.869 6.648H153.089V0.599999H155.009V9H153.413L148.445 2.952H149.225V9H147.305Z" fill="#A3A3A3"/>
</svg>
