<svg width="75" height="11" viewBox="0 0 75 11" fill="none" xmlns="http://www.w3.org/2000/svg">
<path d="M0.26 10V1.6H1.244L6.8 8.5H6.284V1.6H7.484V10H6.5L0.944 3.1H1.46V10H0.26ZM12.5543 10.072C11.9143 10.072 11.3463 9.932 10.8503 9.652C10.3543 9.372 9.96228 8.988 9.67428 8.5C9.38628 8.004 9.24228 7.444 9.24228 6.82C9.24228 6.188 9.38628 5.628 9.67428 5.14C9.96228 4.652 10.3543 4.272 10.8503 4C11.3463 3.72 11.9143 3.58 12.5543 3.58C13.1863 3.58 13.7503 3.72 14.2463 4C14.7503 4.272 15.1423 4.652 15.4223 5.14C15.7103 5.62 15.8543 6.18 15.8543 6.82C15.8543 7.452 15.7103 8.012 15.4223 8.5C15.1423 8.988 14.7503 9.372 14.2463 9.652C13.7503 9.932 13.1863 10.072 12.5543 10.072ZM12.5543 9.064C12.9623 9.064 13.3263 8.972 13.6463 8.788C13.9743 8.604 14.2303 8.344 14.4143 8.008C14.5983 7.664 14.6903 7.268 14.6903 6.82C14.6903 6.364 14.5983 5.972 14.4143 5.644C14.2303 5.308 13.9743 5.048 13.6463 4.864C13.3263 4.68 12.9623 4.588 12.5543 4.588C12.1463 4.588 11.7823 4.68 11.4623 4.864C11.1423 5.048 10.8863 5.308 10.6943 5.644C10.5023 5.972 10.4063 6.364 10.4063 6.82C10.4063 7.268 10.5023 7.664 10.6943 8.008C10.8863 8.344 11.1423 8.604 11.4623 8.788C11.7823 8.972 12.1463 9.064 12.5543 9.064ZM20.8435 3.58C21.3635 3.58 21.8195 3.68 22.2115 3.88C22.6115 4.08 22.9235 4.384 23.1475 4.792C23.3715 5.2 23.4835 5.716 23.4835 6.34V10H22.3315V6.472C22.3315 5.856 22.1795 5.392 21.8755 5.08C21.5795 4.768 21.1595 4.612 20.6155 4.612C20.2075 4.612 19.8515 4.692 19.5475 4.852C19.2435 5.012 19.0075 5.248 18.8395 5.56C18.6795 5.872 18.5995 6.26 18.5995 6.724V10H17.4475V3.64H18.5515V5.356L18.3715 4.9C18.5795 4.484 18.8995 4.16 19.3315 3.928C19.7635 3.696 20.2675 3.58 20.8435 3.58ZM25.2074 7.204V6.208H28.4354V7.204H25.2074ZM31.7248 10L28.9408 3.64H30.1408L32.6128 9.4H32.0368L34.5568 3.64H35.6848L32.9008 10H31.7248ZM36.76 10V3.64H37.912V10H36.76ZM37.336 2.416C37.112 2.416 36.924 2.344 36.772 2.2C36.628 2.056 36.556 1.88 36.556 1.672C36.556 1.456 36.628 1.276 36.772 1.132C36.924 0.988 37.112 0.916 37.336 0.916C37.56 0.916 37.744 0.988 37.888 1.132C38.04 1.268 38.116 1.44 38.116 1.648C38.116 1.864 38.044 2.048 37.9 2.2C37.756 2.344 37.568 2.416 37.336 2.416ZM42.2955 10.072C41.6555 10.072 41.1595 9.9 40.8075 9.556C40.4555 9.212 40.2795 8.72 40.2795 8.08V2.248H41.4315V8.032C41.4315 8.376 41.5155 8.64 41.6835 8.824C41.8595 9.008 42.1075 9.1 42.4275 9.1C42.7875 9.1 43.0875 9 43.3275 8.8L43.6875 9.628C43.5115 9.78 43.2995 9.892 43.0515 9.964C42.8115 10.036 42.5595 10.072 42.2955 10.072ZM39.1995 4.588V3.64H43.2555V4.588H39.1995ZM45.0803 10V3.64H46.1843V5.368L46.0763 4.936C46.2523 4.496 46.5483 4.16 46.9643 3.928C47.3803 3.696 47.8923 3.58 48.5003 3.58V4.696C48.4523 4.688 48.4043 4.684 48.3563 4.684C48.3163 4.684 48.2763 4.684 48.2363 4.684C47.6203 4.684 47.1323 4.868 46.7723 5.236C46.4123 5.604 46.2323 6.136 46.2323 6.832V10H45.0803ZM49.9201 10V3.64H51.0721V10H49.9201ZM50.4961 2.416C50.2721 2.416 50.0841 2.344 49.9321 2.2C49.7881 2.056 49.7161 1.88 49.7161 1.672C49.7161 1.456 49.7881 1.276 49.9321 1.132C50.0841 0.988 50.2721 0.916 50.4961 0.916C50.7201 0.916 50.9041 0.988 51.0481 1.132C51.2001 1.268 51.2761 1.44 51.2761 1.648C51.2761 1.864 51.2041 2.048 51.0601 2.2C50.9161 2.344 50.7281 2.416 50.4961 2.416ZM53.4397 10V3.076C53.4397 2.452 53.6197 1.956 53.9797 1.588C54.3477 1.212 54.8677 1.024 55.5397 1.024C55.7877 1.024 56.0237 1.056 56.2477 1.12C56.4797 1.176 56.6757 1.268 56.8357 1.396L56.4877 2.272C56.3677 2.176 56.2317 2.104 56.0797 2.056C55.9277 2 55.7677 1.972 55.5997 1.972C55.2637 1.972 55.0077 2.068 54.8317 2.26C54.6557 2.444 54.5677 2.72 54.5677 3.088V3.94L54.5917 4.468V10H53.4397ZM52.3597 4.588V3.64H56.4157V4.588H52.3597ZM57.5077 10V3.64H58.6597V10H57.5077ZM58.0837 2.416C57.8597 2.416 57.6717 2.344 57.5197 2.2C57.3757 2.056 57.3037 1.88 57.3037 1.672C57.3037 1.456 57.3757 1.276 57.5197 1.132C57.6717 0.988 57.8597 0.916 58.0837 0.916C58.3077 0.916 58.4917 0.988 58.6357 1.132C58.7877 1.268 58.8637 1.44 58.8637 1.648C58.8637 1.864 58.7917 2.048 58.6477 2.2C58.5037 2.344 58.3157 2.416 58.0837 2.416ZM63.6857 10.072C63.0057 10.072 62.4057 9.932 61.8857 9.652C61.3737 9.372 60.9737 8.988 60.6857 8.5C60.4057 8.012 60.2657 7.452 60.2657 6.82C60.2657 6.188 60.4017 5.628 60.6737 5.14C60.9537 4.652 61.3337 4.272 61.8137 4C62.3017 3.72 62.8497 3.58 63.4577 3.58C64.0737 3.58 64.6177 3.716 65.0897 3.988C65.5617 4.26 65.9297 4.644 66.1937 5.14C66.4657 5.628 66.6017 6.2 66.6017 6.856C66.6017 6.904 66.5977 6.96 66.5897 7.024C66.5897 7.088 66.5857 7.148 66.5777 7.204H61.1657V6.376H65.9777L65.5097 6.664C65.5177 6.256 65.4337 5.892 65.2577 5.572C65.0817 5.252 64.8377 5.004 64.5257 4.828C64.2217 4.644 63.8657 4.552 63.4577 4.552C63.0577 4.552 62.7017 4.644 62.3897 4.828C62.0777 5.004 61.8337 5.256 61.6577 5.584C61.4817 5.904 61.3937 6.272 61.3937 6.688V6.88C61.3937 7.304 61.4897 7.684 61.6817 8.02C61.8817 8.348 62.1577 8.604 62.5097 8.788C62.8617 8.972 63.2657 9.064 63.7217 9.064C64.0977 9.064 64.4377 9 64.7417 8.872C65.0537 8.744 65.3257 8.552 65.5577 8.296L66.1937 9.04C65.9057 9.376 65.5457 9.632 65.1137 9.808C64.6897 9.984 64.2137 10.072 63.6857 10.072ZM70.8294 10.072C70.2134 10.072 69.6614 9.936 69.1734 9.664C68.6934 9.392 68.3134 9.012 68.0334 8.524C67.7534 8.036 67.6134 7.468 67.6134 6.82C67.6134 6.172 67.7534 5.608 68.0334 5.128C68.3134 4.64 68.6934 4.26 69.1734 3.988C69.6614 3.716 70.2134 3.58 70.8294 3.58C71.3654 3.58 71.8494 3.7 72.2814 3.94C72.7134 4.18 73.0574 4.54 73.3134 5.02C73.5774 5.5 73.7094 6.1 73.7094 6.82C73.7094 7.54 73.5814 8.14 73.3254 8.62C73.0774 9.1 72.7374 9.464 72.3054 9.712C71.8734 9.952 71.3814 10.072 70.8294 10.072ZM70.9254 9.064C71.3254 9.064 71.6854 8.972 72.0054 8.788C72.3334 8.604 72.5894 8.344 72.7734 8.008C72.9654 7.664 73.0614 7.268 73.0614 6.82C73.0614 6.364 72.9654 5.972 72.7734 5.644C72.5894 5.308 72.3334 5.048 72.0054 4.864C71.6854 4.68 71.3254 4.588 70.9254 4.588C70.5174 4.588 70.1534 4.68 69.8334 4.864C69.5134 5.048 69.2574 5.308 69.0654 5.644C68.8734 5.972 68.7774 6.364 68.7774 6.82C68.7774 7.268 68.8734 7.664 69.0654 8.008C69.2574 8.344 69.5134 8.604 69.8334 8.788C70.1534 8.972 70.5174 9.064 70.9254 9.064ZM73.0974 10V8.284L73.1694 6.808L73.0494 5.332V1.096H74.2014V10H73.0974Z" fill="white"/>
</svg>
