<svg width="46" height="7" viewBox="0 0 46 7" fill="none" xmlns="http://www.w3.org/2000/svg">
<path d="M2.30556 6.096C1.85756 6.096 1.42823 6.03733 1.01756 5.92C0.606897 5.79733 0.27623 5.64 0.0255633 5.448L0.465563 4.472C0.705563 4.64267 0.98823 4.784 1.31356 4.896C1.64423 5.00267 1.97756 5.056 2.31356 5.056C2.56956 5.056 2.7749 5.032 2.92956 4.984C3.08956 4.93067 3.2069 4.85867 3.28156 4.768C3.35623 4.67733 3.39356 4.57333 3.39356 4.456C3.39356 4.30667 3.3349 4.18933 3.21756 4.104C3.10023 4.01333 2.94556 3.94133 2.75356 3.888C2.56156 3.82933 2.34823 3.776 2.11356 3.728C1.88423 3.67467 1.65223 3.61067 1.41756 3.536C1.18823 3.46133 0.977563 3.36533 0.785563 3.248C0.593563 3.13067 0.43623 2.976 0.313563 2.784C0.19623 2.592 0.137563 2.34667 0.137563 2.048C0.137563 1.728 0.222897 1.43733 0.393563 1.176C0.569563 0.909333 0.830897 0.698666 1.17756 0.544C1.52956 0.384 1.96956 0.304 2.49756 0.304C2.84956 0.304 3.19623 0.346666 3.53756 0.432C3.8789 0.512 4.18023 0.634666 4.44156 0.8L4.04156 1.784C3.78023 1.63467 3.5189 1.52533 3.25756 1.456C2.99623 1.38133 2.74023 1.344 2.48956 1.344C2.2389 1.344 2.03356 1.37333 1.87356 1.432C1.71356 1.49067 1.5989 1.568 1.52956 1.664C1.46023 1.75467 1.42556 1.86133 1.42556 1.984C1.42556 2.128 1.48423 2.24533 1.60156 2.336C1.7189 2.42133 1.87356 2.49067 2.06556 2.544C2.25756 2.59733 2.46823 2.65067 2.69756 2.704C2.93223 2.75733 3.16423 2.81867 3.39356 2.888C3.62823 2.95733 3.84156 3.05067 4.03356 3.168C4.22556 3.28533 4.38023 3.44 4.49756 3.632C4.62023 3.824 4.68156 4.06667 4.68156 4.36C4.68156 4.67467 4.59356 4.96267 4.41756 5.224C4.24156 5.48533 3.97756 5.696 3.62556 5.856C3.2789 6.016 2.8389 6.096 2.30556 6.096ZM7.15913 2.656H9.85513V3.664H7.15913V2.656ZM7.25513 4.96H10.3031V6H5.96713V0.4H10.1991V1.44H7.25513V4.96ZM11.7343 6V0.4H13.0303V4.944H15.8383V6H11.7343ZM18.1544 2.656H20.8504V3.664H18.1544V2.656ZM18.2504 4.96H21.2984V6H16.9624V0.4H21.1944V1.44H18.2504V4.96ZM25.4096 6.096C24.9776 6.096 24.575 6.02667 24.2016 5.888C23.8336 5.744 23.5136 5.54133 23.2416 5.28C22.9696 5.01867 22.7563 4.712 22.6016 4.36C22.4523 4.008 22.3776 3.62133 22.3776 3.2C22.3776 2.77867 22.4523 2.392 22.6016 2.04C22.7563 1.688 22.9696 1.38133 23.2416 1.12C23.519 0.858666 23.8416 0.658666 24.2096 0.52C24.5776 0.376 24.9803 0.304 25.4176 0.304C25.903 0.304 26.3403 0.389333 26.7296 0.56C27.1243 0.725333 27.455 0.970666 27.7216 1.296L26.8896 2.064C26.6976 1.84533 26.4843 1.68267 26.2496 1.576C26.015 1.464 25.759 1.408 25.4816 1.408C25.2203 1.408 24.9803 1.45067 24.7616 1.536C24.543 1.62133 24.3536 1.744 24.1936 1.904C24.0336 2.064 23.9083 2.25333 23.8176 2.472C23.7323 2.69067 23.6896 2.93333 23.6896 3.2C23.6896 3.46667 23.7323 3.70933 23.8176 3.928C23.9083 4.14667 24.0336 4.336 24.1936 4.496C24.3536 4.656 24.543 4.77867 24.7616 4.864C24.9803 4.94933 25.2203 4.992 25.4816 4.992C25.759 4.992 26.015 4.93867 26.2496 4.832C26.4843 4.72 26.6976 4.552 26.8896 4.328L27.7216 5.096C27.455 5.42133 27.1243 5.66933 26.7296 5.84C26.3403 6.01067 25.9003 6.096 25.4096 6.096ZM30.1021 6V1.456H28.3101V0.4H33.1901V1.456H31.3981V6H30.1021ZM35.4794 2.656H38.1754V3.664H35.4794V2.656ZM35.5754 4.96H38.6234V6H34.2874V0.4H38.5194V1.44H35.5754V4.96ZM40.0546 6V0.4H42.5986C43.2066 0.4 43.7426 0.517333 44.2066 0.752C44.6706 0.981333 45.0333 1.304 45.2946 1.72C45.556 2.136 45.6866 2.62933 45.6866 3.2C45.6866 3.76533 45.556 4.25867 45.2946 4.68C45.0333 5.096 44.6706 5.42133 44.2066 5.656C43.7426 5.88533 43.2066 6 42.5986 6H40.0546ZM41.3506 4.936H42.5346C42.908 4.936 43.2306 4.86667 43.5026 4.728C43.78 4.584 43.9933 4.38133 44.1426 4.12C44.2973 3.85867 44.3746 3.552 44.3746 3.2C44.3746 2.84267 44.2973 2.536 44.1426 2.28C43.9933 2.01867 43.78 1.81867 43.5026 1.68C43.2306 1.536 42.908 1.464 42.5346 1.464H41.3506V4.936Z" fill="white"/>
</svg>
