<svg width="48" height="11" viewBox="0 0 48 11" fill="none" xmlns="http://www.w3.org/2000/svg">
<path d="M4.684 10L0.988 1.6H2.284L5.68 9.352H4.936L8.356 1.6H9.556L5.872 10H4.684ZM10.4709 10V3.64H11.6229V10H10.4709ZM11.0469 2.416C10.8229 2.416 10.6349 2.344 10.4829 2.2C10.3389 2.056 10.2669 1.88 10.2669 1.672C10.2669 1.456 10.3389 1.276 10.4829 1.132C10.6349 0.988 10.8229 0.916 11.0469 0.916C11.2709 0.916 11.4549 0.988 11.5989 1.132C11.7509 1.268 11.8269 1.44 11.8269 1.648C11.8269 1.864 11.7549 2.048 11.6109 2.2C11.4669 2.344 11.2789 2.416 11.0469 2.416ZM16.0065 10.072C15.3665 10.072 14.8705 9.9 14.5185 9.556C14.1665 9.212 13.9905 8.72 13.9905 8.08V2.248H15.1425V8.032C15.1425 8.376 15.2265 8.64 15.3945 8.824C15.5705 9.008 15.8185 9.1 16.1385 9.1C16.4985 9.1 16.7985 9 17.0385 8.8L17.3985 9.628C17.2225 9.78 17.0105 9.892 16.7625 9.964C16.5225 10.036 16.2705 10.072 16.0065 10.072ZM12.9105 4.588V3.64H16.9665V4.588H12.9105ZM18.7912 10V3.64H19.8952V5.368L19.7872 4.936C19.9632 4.496 20.2592 4.16 20.6752 3.928C21.0912 3.696 21.6032 3.58 22.2112 3.58V4.696C22.1632 4.688 22.1152 4.684 22.0672 4.684C22.0272 4.684 21.9872 4.684 21.9472 4.684C21.3312 4.684 20.8432 4.868 20.4832 5.236C20.1232 5.604 19.9432 6.136 19.9432 6.832V10H18.7912ZM23.6311 10V3.64H24.7831V10H23.6311ZM24.2071 2.416C23.9831 2.416 23.7951 2.344 23.6431 2.2C23.4991 2.056 23.4271 1.88 23.4271 1.672C23.4271 1.456 23.4991 1.276 23.6431 1.132C23.7951 0.988 23.9831 0.916 24.2071 0.916C24.4311 0.916 24.6151 0.988 24.7591 1.132C24.9111 1.268 24.9871 1.44 24.9871 1.648C24.9871 1.864 24.9151 2.048 24.7711 2.2C24.6271 2.344 24.4391 2.416 24.2071 2.416ZM27.1506 10V3.076C27.1506 2.452 27.3306 1.956 27.6906 1.588C28.0586 1.212 28.5786 1.024 29.2506 1.024C29.4986 1.024 29.7346 1.056 29.9586 1.12C30.1906 1.176 30.3866 1.268 30.5466 1.396L30.1986 2.272C30.0786 2.176 29.9426 2.104 29.7906 2.056C29.6386 2 29.4786 1.972 29.3106 1.972C28.9746 1.972 28.7186 2.068 28.5426 2.26C28.3666 2.444 28.2786 2.72 28.2786 3.088V3.94L28.3026 4.468V10H27.1506ZM26.0706 4.588V3.64H30.1266V4.588H26.0706ZM31.2186 10V3.64H32.3706V10H31.2186ZM31.7946 2.416C31.5706 2.416 31.3826 2.344 31.2306 2.2C31.0866 2.056 31.0146 1.88 31.0146 1.672C31.0146 1.456 31.0866 1.276 31.2306 1.132C31.3826 0.988 31.5706 0.916 31.7946 0.916C32.0186 0.916 32.2026 0.988 32.3466 1.132C32.4986 1.268 32.5746 1.44 32.5746 1.648C32.5746 1.864 32.5026 2.048 32.3586 2.2C32.2146 2.344 32.0266 2.416 31.7946 2.416ZM37.3967 10.072C36.7167 10.072 36.1167 9.932 35.5967 9.652C35.0847 9.372 34.6847 8.988 34.3967 8.5C34.1167 8.012 33.9767 7.452 33.9767 6.82C33.9767 6.188 34.1127 5.628 34.3847 5.14C34.6647 4.652 35.0447 4.272 35.5247 4C36.0127 3.72 36.5607 3.58 37.1687 3.58C37.7847 3.58 38.3287 3.716 38.8007 3.988C39.2727 4.26 39.6407 4.644 39.9047 5.14C40.1767 5.628 40.3127 6.2 40.3127 6.856C40.3127 6.904 40.3087 6.96 40.3007 7.024C40.3007 7.088 40.2967 7.148 40.2887 7.204H34.8767V6.376H39.6887L39.2207 6.664C39.2287 6.256 39.1447 5.892 38.9687 5.572C38.7927 5.252 38.5487 5.004 38.2367 4.828C37.9327 4.644 37.5767 4.552 37.1687 4.552C36.7687 4.552 36.4127 4.644 36.1007 4.828C35.7887 5.004 35.5447 5.256 35.3687 5.584C35.1927 5.904 35.1047 6.272 35.1047 6.688V6.88C35.1047 7.304 35.2007 7.684 35.3927 8.02C35.5927 8.348 35.8687 8.604 36.2207 8.788C36.5727 8.972 36.9767 9.064 37.4327 9.064C37.8087 9.064 38.1487 9 38.4527 8.872C38.7647 8.744 39.0367 8.552 39.2687 8.296L39.9047 9.04C39.6167 9.376 39.2567 9.632 38.8247 9.808C38.4007 9.984 37.9247 10.072 37.3967 10.072ZM44.5403 10.072C43.9243 10.072 43.3723 9.936 42.8843 9.664C42.4043 9.392 42.0243 9.012 41.7443 8.524C41.4643 8.036 41.3243 7.468 41.3243 6.82C41.3243 6.172 41.4643 5.608 41.7443 5.128C42.0243 4.64 42.4043 4.26 42.8843 3.988C43.3723 3.716 43.9243 3.58 44.5403 3.58C45.0763 3.58 45.5603 3.7 45.9923 3.94C46.4243 4.18 46.7683 4.54 47.0243 5.02C47.2883 5.5 47.4203 6.1 47.4203 6.82C47.4203 7.54 47.2923 8.14 47.0363 8.62C46.7883 9.1 46.4483 9.464 46.0163 9.712C45.5843 9.952 45.0923 10.072 44.5403 10.072ZM44.6363 9.064C45.0363 9.064 45.3963 8.972 45.7163 8.788C46.0443 8.604 46.3003 8.344 46.4843 8.008C46.6763 7.664 46.7723 7.268 46.7723 6.82C46.7723 6.364 46.6763 5.972 46.4843 5.644C46.3003 5.308 46.0443 5.048 45.7163 4.864C45.3963 4.68 45.0363 4.588 44.6363 4.588C44.2283 4.588 43.8643 4.68 43.5443 4.864C43.2243 5.048 42.9683 5.308 42.7763 5.644C42.5843 5.972 42.4883 6.364 42.4883 6.82C42.4883 7.268 42.5843 7.664 42.7763 8.008C42.9683 8.344 43.2243 8.604 43.5443 8.788C43.8643 8.972 44.2283 9.064 44.6363 9.064ZM46.8083 10V8.284L46.8803 6.808L46.7603 5.332V1.096H47.9123V10H46.8083Z" fill="white"/>
</svg>
