<svg width="25" height="30" viewBox="0 0 25 30" fill="none" xmlns="http://www.w3.org/2000/svg">
<path d="M16.2285 26.059C16.2285 27.5514 15.4328 28.6937 14.1406 29.4403C12.8487 30.1865 11.257 30.1865 9.96755 29.4403C8.67491 28.6937 7.87963 27.5514 7.87963 26.059" fill="#C0CDD1"/>
<path d="M12.0531 0C13.1917 0 14.1088 0.702002 14.1088 1.78154C14.1088 2.46103 14.1325 2.96803 14.5595 3.0979C18.1906 4.19432 20.5189 6.76431 20.5189 10.1018V15.7114C20.5189 18.2814 21.5703 18.8017 22.8935 19.7847C24.8097 21.206 24.3723 24.1656 22.1734 24.1636H1.93354C-0.265345 24.1656 -0.702789 21.206 1.21344 19.7847C2.53503 18.8017 3.58803 18.2814 3.58803 15.7114V10.1018C3.58803 6.76431 5.91638 4.19432 9.54741 3.0979C9.9732 2.96803 9.99812 2.46103 9.99812 1.78154C9.99853 0.702002 10.916 0 12.0531 0Z" fill="#C0CDD1"/>
</svg>
